<?xml version="1.0" standalone="no"?>
<!DOCTYPE svg PUBLIC "-//W3C//DTD SVG 1.1//EN" "http://www.w3.org/Graphics/SVG/1.1/DTD/svg11.dtd" >
<svg xmlns="http://www.w3.org/2000/svg" xmlns:xlink="http://www.w3.org/1999/xlink" version="1.1">
<metadata></metadata>
<defs>
<font id="ia_writer_duo_vregular" horiz-adv-x="1228" >
<font-face units-per-em="2048" ascent="1597" descent="-451" />
<missing-glyph horiz-adv-x="500" />
<glyph horiz-adv-x="0" />
<glyph horiz-adv-x="682" />
<glyph unicode=" " />
<glyph unicode="!" d="M479 0v268h266v-268h-266zM524 1014v416h181v-416l-58 -537h-65z" />
<glyph unicode="&#x22;" d="M355 948v568h155v-568h-155zM719 948v568h155v-568h-155z" />
<glyph unicode="#" d="M33 442v136h295l47 274h-269v135h293l78 443h150l-252 -1430h-150l78 442h-270zM303 442l25 136h526l-25 -136h-526zM375 852l24 135h527l-25 -135h-526zM602 0l252 1430h150l-78 -443h270v-135h-295l-47 -274h268v-136h-293l-77 -442h-150z" />
<glyph unicode="$" d="M102 227l125 103q76 -94 159 -144.5t187 -60.5v534l-47 9q-199 33 -285.5 138t-86.5 259q0 170 111.5 271.5t305.5 115.5v209h127v-209q139 -10 244 -67.5t182 -163.5l-129 -93q-57 78 -128.5 121t-170.5 54v-502l62 -10q199 -33 285.5 -138.5t86.5 -261.5 q0 -178 -112.5 -287.5t-319.5 -126.5v-208h-127v208q-162 10 -276.5 75t-192.5 175zM319 1065q0 -100 59.5 -158.5t194.5 -85.5v484q-123 -12 -188.5 -74t-65.5 -166zM696 127q129 14 199 81.5t70 180.5q0 109 -62.5 167t-206.5 83v-512z" />
<glyph unicode="%" horiz-adv-x="1843" d="M133 1049q0 197 84 301t240 104t239.5 -104.5t83.5 -300.5q0 -197 -84 -301.5t-239 -104.5q-156 0 -240 104.5t-84 301.5zM281 987q0 -238 176 -237q176 -1 176 237v123q0 238 -176 238t-176 -238v-123zM375 0l991 1430h158l-992 -1430h-157zM1118 381q0 197 84 301 t240 104t239.5 -104t83.5 -301t-84 -301.5t-239 -104.5q-156 0 -240 104.5t-84 301.5zM1266 319q0 -238 176 -237q176 -1 176 237v123q0 238 -176 238t-176 -238v-123z" />
<glyph unicode="&#x26;" d="M51 371q0 123 61.5 233.5t202.5 181.5q-63 82 -98 160t-35 162q0 100 50.5 179t135.5 123t185 44q127 0 217 -64.5t123 -152.5l-135 -70q-29 68 -83 108t-130 40q-90 0 -145.5 -56.5t-55.5 -144.5v-16q0 -59 28.5 -117.5t98.5 -149.5l18 -22l185 -227l149 -185h11 q14 84 22 301l4 82h289v-137h-154l-6 -45q-12 -96 -25.5 -160.5t-41.5 -142.5l249 -295h-194l-178 211h-11q-31 -109 -119.5 -172.5t-224.5 -63.5q-120 0 -209.5 52.5t-136.5 142.5t-47 201zM221 362q0 -111 74 -176t192 -65q88 0 156 37t107 102l-357 430 q-90 -55 -131 -130t-41 -167v-31z" />
<glyph unicode="'" d="M537 948v568h155v-568h-155z" />
<glyph unicode="(" d="M420 637q0 192 57.5 370.5t153.5 319.5t215 229h166q-190 -143 -314.5 -362t-124.5 -469v-176q0 -250 124 -469t315 -363h-166q-119 88 -215 229.5t-153.5 319.5t-57.5 371z" />
<glyph unicode=")" d="M217 -283q190 143 314 362.5t124 469.5v176q0 250 -123.5 469t-314.5 362h166q119 -88 215 -229t153.5 -319.5t57.5 -370.5q0 -193 -57.5 -371t-153.5 -319.5t-215 -229.5h-166z" />
<glyph unicode="*" d="M88 676l43 135l408 -131v442h151v-442l408 131l43 -135l-408 -135l254 -348l-117 -87l-256 353l-256 -353l-116 87l254 348z" />
<glyph unicode="+" d="M127 555v139h410v428h155v-428h410v-139h-410v-428h-155v428h-410z" />
<glyph unicode="," d="M418 -289l108 568h265l-236 -568h-137z" />
<glyph unicode="-" d="M317 537v172h594v-172h-594z" />
<glyph unicode="." d="M479 0v268h266v-268h-266z" />
<glyph unicode="/" d="M184 -283l713 1839h147l-712 -1839h-148z" />
<glyph unicode="0" d="M115 715q0 360 121.5 549.5t377.5 189.5t378 -189.5t122 -549.5t-122 -550t-378 -190t-377.5 189.5t-121.5 550.5zM293 598q0 -225 78 -349t243 -124q166 0 244 124t78 349v233q0 225 -78 349.5t-244 124.5t-243.5 -124t-77.5 -350v-233zM487 692v45q0 98 127 99 q127 0 127 -99v-45q0 -98 -127 -98t-127 98z" />
<glyph unicode="1" d="M109 1075l378 355h269v-1280h377v-150h-959v150h410v1153h-15l-360 -336z" />
<glyph unicode="2" d="M133 1118q49 145 161 240.5t304 95.5q139 0 239.5 -52t152.5 -146.5t52 -215.5q0 -104 -38.5 -196t-107.5 -174t-173 -172l-399 -348h776v-150h-955v176l478 430q115 102 177 201.5t62 202.5v24q0 129 -68.5 200t-199.5 71q-125 0 -197.5 -63.5t-109.5 -180.5z" />
<glyph unicode="3" d="M98 219l129 98q63 -96 139 -144t201 -48q150 0 232 70.5t82 197.5v17q0 127 -80 196.5t-236 69.5h-170v147h158q145 0 222 65.5t77 172.5v14q0 111 -70.5 170.5t-191.5 59.5q-109 0 -181.5 -47.5t-119.5 -135.5l-129 99q66 102 170 167.5t264 65.5q123 0 223.5 -42 t157.5 -124t57 -194q0 -131 -76.5 -217t-201.5 -117v-8q131 -25 219 -117t88 -244q0 -123 -61.5 -217t-173 -146.5t-259.5 -52.5q-172 0 -280.5 67t-188.5 177z" />
<glyph unicode="4" d="M70 281v151l618 998h250v-1008h213v-141h-213v-281h-164v281h-704zM223 422h551v874h-8z" />
<glyph unicode="5" d="M150 219l129 98q66 -96 137 -144t192 -48q145 0 225 80t80 221v16q0 141 -80.5 221t-228.5 80q-92 0 -150.5 -30.5t-111.5 -89.5l-145 20l51 787h778v-150h-639l-41 -547h14q57 78 125 117t174 39q125 0 223.5 -53.5t154 -152.5t55.5 -234q0 -139 -58.5 -247t-169 -167.5 t-260.5 -59.5q-164 0 -269.5 67t-184.5 177z" />
<glyph unicode="6" d="M131 524q0 199 77 377t195.5 312.5t245.5 216.5h221q-248 -178 -376.5 -341t-186.5 -401l10 -4q57 96 142.5 150.5t210.5 54.5t222 -54.5t151.5 -153.5t54.5 -232q0 -139 -59.5 -247t-169 -167.5t-253.5 -59.5q-149 0 -258.5 67t-168 190.5t-58.5 291.5zM305 426 q0 -143 82 -224t227 -81q146 0 228 81t82 224v16q0 143 -82 224.5t-228 81.5q-145 0 -227 -81t-82 -225v-16z" />
<glyph unicode="7" d="M133 1016v414h954v-152l-548 -1278h-185l559 1282h-626v-266h-154z" />
<glyph unicode="8" d="M113 389q0 141 76.5 229.5t213.5 124.5v17q-115 39 -181 127t-66 209q0 109 54 189.5t157.5 124.5t246.5 44t247 -44t158 -125t54 -189q0 -121 -66.5 -209t-181.5 -127v-17q137 -37 214 -125t77 -229q0 -119 -57.5 -213t-170 -147.5t-274.5 -53.5q-161 0 -274 53.5 t-170 147.5t-57 213zM291 379q0 -121 86 -189.5t237 -68.5q152 0 238 68.5t86 189.5v45q0 123 -85 190.5t-239 67.5t-238.5 -67.5t-84.5 -190.5v-45zM330 1051q0 -111 73.5 -170.5t210.5 -59.5q138 0 211.5 59.5t73.5 170.5v28q0 109 -74.5 169.5t-210.5 60.5 q-135 0 -209.5 -60.5t-74.5 -169.5v-28z" />
<glyph unicode="9" d="M131 981q0 139 59.5 246.5t169 167t252.5 59.5q150 0 259.5 -66.5t168 -190.5t58.5 -292q0 -198 -77 -376.5t-195.5 -312.5t-245.5 -216h-222q248 178 377 341t187 400l-11 4q-57 -96 -142 -150t-210 -54t-222 54t-151.5 153.5t-54.5 232.5zM305 987q0 -143 82 -224 t227 -81q146 0 228 81t82 224v17q0 143 -82 224t-228 81q-145 0 -227 -81t-82 -224v-17z" />
<glyph unicode=":" d="M479 0v268h266v-268h-266zM479 811v268h266v-268h-266z" />
<glyph unicode=";" d="M418 -289l108 568h265l-236 -568h-137zM520 811v268h266v-268h-266z" />
<glyph unicode="&#x3c;" d="M174 543v164l881 510v-170l-727 -412v-17l727 -411v-174z" />
<glyph unicode="=" d="M127 352v140h975v-140h-975zM127 762v139h975v-139h-975z" />
<glyph unicode="&#x3e;" d="M174 33v170l727 411v17l-727 411v175l881 -510v-164z" />
<glyph unicode="?" d="M158 1122q43 147 158.5 239.5t299.5 92.5q129 0 226.5 -47t149.5 -135t52 -205q0 -178 -114.5 -284.5t-278.5 -135.5v-207h-162v322q180 8 278.5 78.5t98.5 206.5v28q0 113 -67.5 171.5t-188.5 58.5q-117 0 -193.5 -65.5t-105.5 -174.5zM438 0v268h267v-268h-267z" />
<glyph unicode="@" horiz-adv-x="1843" d="M133 590q0 252 99.5 447.5t281.5 304t420 108.5q203 0 375 -83t277.5 -260t105.5 -445q0 -229 -87 -375t-270 -146q-94 0 -145 47.5t-62 128.5h-8q-43 -86 -103.5 -131t-150.5 -45q-98 0 -179 50.5t-129 151.5t-48 249q0 147 48 248.5t129 151.5t179 50q88 0 145.5 -43 t88.5 -114h8v139h141v-623q0 -78 27 -106.5t86 -28.5q94 0 144 98.5t50 270.5v94q0 176 -81.5 312.5t-224 211t-318.5 74.5q-193 0 -343.5 -88t-234.5 -241.5t-84 -340.5v-120q0 -193 81 -342.5t228.5 -233.5t338.5 -84h473v-125h-476q-233 0 -410 103.5t-274.5 294 t-97.5 440.5zM682 510q0 -109 53 -171.5t160 -62.5q106 0 159.5 51.5t53.5 145.5v250q0 82 -54.5 133t-158.5 51q-106 0 -159.5 -62.5t-53.5 -170.5v-164z" />
<glyph unicode="A" d="M63 0l439 1430h227l438 -1430h-182l-121 408h-502l-120 -408h-179zM403 557h420l-200 690h-19z" />
<glyph unicode="B" d="M180 0v1430h486q182 0 287.5 -100.5t105.5 -268.5q0 -123 -59.5 -199t-163.5 -108v-6q129 -29 202.5 -112t73.5 -224q0 -115 -50 -209t-138 -148.5t-197 -54.5h-547zM352 150h324q121 0 187.5 55t66.5 162v84q0 106 -66.5 161.5t-187.5 55.5h-324v-518zM352 809h295 q111 0 171.5 49t60.5 146v79q0 96 -60.5 146.5t-171.5 50.5h-295v-471z" />
<glyph unicode="C" d="M143 715q0 360 130 549.5t389 189.5q178 0 277 -85t163 -228l-148 -68q-45 113 -109.5 172.5t-182.5 59.5q-166 0 -251 -126t-85 -348v-233q0 -221 85 -347t251 -126q119 0 183 59.5t109 171.5l148 -67q-63 -143 -162.5 -228.5t-277.5 -85.5q-259 0 -389 189.5 t-130 550.5z" />
<glyph unicode="D" d="M195 0v1430h399q260 0 390 -180.5t130 -534.5t-130 -534.5t-390 -180.5h-399zM367 150h219q168 0 257 118.5t89 335.5v221q0 217 -89 336t-257 119h-219v-1130z" />
<glyph unicode="E" d="M184 0v1430h881v-150h-709v-481h684v-150h-684v-499h709v-150h-881z" />
<glyph unicode="F" d="M184 0v1430h901v-150h-729v-481h668v-150h-668v-649h-172z" />
<glyph unicode="G" d="M115 705q0 369 127 559t383 190q182 0 285.5 -87t158.5 -226l-147 -68q-45 113 -108.5 172.5t-182.5 59.5q-168 0 -251 -125t-83 -349v-221q0 -229 76 -359t241 -130q135 0 215 83t80 218v147h-301v138h461v-707h-160v190h-10q-41 -98 -114.5 -156.5t-209.5 -58.5 q-229 0 -344.5 187.5t-115.5 542.5z" />
<glyph unicode="H" d="M164 0v1430h172v-631h557v631h172v-1430h-172v649h-557v-649h-172z" />
<glyph unicode="I" d="M172 0v137h356v1155h-356v138h885v-138h-357v-1155h357v-137h-885z" />
<glyph unicode="J" d="M152 299l163 35q23 -96 81.5 -151.5t168.5 -55.5q119 0 182.5 68.5t63.5 205.5v879h-516v150h688v-1059q0 -119 -53 -209t-149.5 -138.5t-219.5 -48.5q-162 0 -269.5 85t-139.5 239z" />
<glyph unicode="K" d="M174 0v1430h172v-746h6l189 238l422 508h206l-501 -603l516 -827h-201l-432 700l-205 -241v-459h-172z" />
<glyph unicode="L" d="M246 0v1430h172v-1280h678v-150h-850z" />
<glyph unicode="M" horiz-adv-x="1843" d="M242 0v1430h266l410 -771h8l411 771h267v-1430h-168v1204h-52l-120 -239l-342 -623l-340 623l-121 237h-51v-1202h-168z" />
<glyph unicode="N" d="M164 0v1430h244l487 -1199h14v1199h156v-1430h-244l-487 1210h-15v-1210h-155z" />
<glyph unicode="O" d="M115 715q0 360 121.5 549.5t377.5 189.5t378 -189.5t122 -549.5t-122 -550t-378 -190t-377.5 189.5t-121.5 550.5zM297 598q0 -225 77 -349t240 -124q164 0 241 124t77 349v233q0 225 -77 349.5t-241 124.5t-240.5 -124t-76.5 -350v-233z" />
<glyph unicode="P" d="M184 0v1430h521q197 0 302 -109t105 -303q0 -195 -105.5 -303.5t-301.5 -108.5h-349v-606h-172zM356 756h344q109 0 169.5 54t60.5 155v106q0 100 -60.5 154.5t-169.5 54.5h-344v-524z" />
<glyph unicode="Q" d="M115 715q0 360 121.5 549.5t377.5 189.5t378 -189.5t122 -549.5t-122 -550t-378 -190t-377.5 189.5t-121.5 550.5zM297 598q0 -225 77 -349t240 -124q164 0 241 124t77 349v233q0 225 -77 349.5t-241 124.5t-240.5 -124t-76.5 -350v-233zM522 457h219l564 -535h-220z" />
<glyph unicode="R" d="M184 0v1430h521q197 0 302 -109t105 -303q0 -174 -91 -278.5t-261 -121.5l364 -618h-192l-348 610h-228v-610h-172zM356 756h344q109 0 169.5 54t60.5 155v106q0 100 -60.5 154.5t-169.5 54.5h-344v-524z" />
<glyph unicode="S" d="M92 227l125 103q84 -106 178 -156.5t221 -50.5q154 0 237 71.5t83 200.5q0 106 -61.5 163.5t-204.5 82.5l-160 27q-197 33 -283 136t-86 253q0 193 127 295t350 102q166 0 286 -56.5t194 -162.5l-121 -105q-66 86 -151 131.5t-210 45.5q-145 0 -223 -62.5t-78 -183.5 q0 -100 60.5 -159.5t208.5 -84.5l153 -26q199 -35 286 -137.5t87 -254.5q0 -131 -58.5 -226t-171 -146.5t-270.5 -51.5q-182 0 -307 67t-211 185z" />
<glyph unicode="T" d="M51 1280v150h1127v-150h-478v-1280h-172v1280h-477z" />
<glyph unicode="U" d="M164 612v818h172v-859q0 -166 15.5 -255t74.5 -140t188 -51t188.5 51t75 140.5t15.5 254.5v859h172v-818q0 -231 -34 -365t-130 -203t-287 -69q-190 0 -286.5 69t-130 203t-33.5 365z" />
<glyph unicode="V" d="M74 1430h182l203 -715l153 -541h11l153 541l203 715h176l-424 -1430h-233z" />
<glyph unicode="W" horiz-adv-x="1843" d="M51 1430h182l154 -689l119 -534h4l133 534l180 689h197l174 -689l133 -532h6l123 532l162 689h176l-367 -1430h-190l-186 713l-131 524h-5l-135 -524l-190 -713h-191z" />
<glyph unicode="X" d="M53 0l467 729l-440 701h194l166 -277l178 -289h9l176 289l172 277h188l-442 -699l457 -731h-195l-170 285l-188 311h-9l-194 -311l-180 -285h-189z" />
<glyph unicode="Y" d="M35 1430h196l205 -373l174 -326h8l179 326l204 373h193l-494 -869v-561h-172v561z" />
<glyph unicode="Z" d="M98 0v154l809 1126h-774v150h963v-154l-811 -1126h845v-150h-1032z" />
<glyph unicode="[" d="M461 -283v1839h573v-126h-432v-1586h432v-127h-573z" />
<glyph unicode="\" d="M184 1556h148l712 -1839h-147z" />
<glyph unicode="]" d="M195 -156h432v1586h-432v126h573v-1839h-573v127z" />
<glyph unicode="^" d="M92 651l430 779h185l430 -779l-136 -63l-387 700h-8l-387 -700z" />
<glyph unicode="_" d="M123 -195h983v-151h-983v151z" />
<glyph unicode="`" d="M383 1524l149 71l175 -348l-107 -49z" />
<glyph unicode="a" d="M135 297q0 307 455 307h225v105q0 115 -65.5 174t-186.5 59q-102 0 -170.5 -40t-111.5 -116l-111 82q43 90 147.5 151.5t255.5 61.5q186 0 296 -95t110 -261v-508q0 -31 21.5 -52.5t52.5 -21.5h73v-143h-112q-90 0 -134 46t-55 126h-10q-35 -94 -113.5 -145.5 t-203.5 -51.5q-166 0 -264.5 86t-98.5 236zM307 279q0 -80 58.5 -123t160.5 -43q125 0 207 56t82 138v174h-225q-143 0 -213 -41t-70 -118v-43z" />
<glyph unicode="b" d="M195 0v1516h163v-631h9q51 96 133 146t192 50q195 0 304.5 -146.5t109.5 -406.5t-109.5 -406.5t-304.5 -146.5q-111 0 -192.5 50.5t-132.5 146.5h-9v-172h-163zM358 338q0 -102 78 -159.5t193 -57.5q141 0 221 86t80 231v180q0 145 -80 231.5t-221 86.5 q-115 0 -193 -57.5t-78 -159.5v-381z" />
<glyph unicode="c" d="M172 528q0 254 127 403.5t350 149.5q147 0 245.5 -65.5t145.5 -177.5l-131 -70q-29 82 -96.5 127t-163.5 45q-141 0 -221 -89t-80 -233v-180q0 -143 80 -232t225 -89q102 0 174 48t113 136l117 -80q-49 -113 -151.5 -179.5t-254.5 -66.5q-225 0 -352 149.5t-127 403.5z " />
<glyph unicode="d" d="M123 528q0 260 109.5 406.5t304.5 146.5q111 0 192.5 -50t132.5 -146h8v631h164v-1516h-164v172h-8q-51 -96 -133 -146.5t-192 -50.5q-195 0 -304.5 146.5t-109.5 406.5zM299 438q0 -145 80 -231t221 -86q115 0 192.5 57.5t77.5 159.5v381q0 102 -77.5 159.5t-192.5 57.5 q-141 0 -221 -86t-80 -232v-180z" />
<glyph unicode="e" d="M137 526q0 166 61.5 292t171 194.5t253.5 68.5q139 0 245.5 -66.5t165 -183t58.5 -266.5v-78h-783v-49q0 -141 88 -231t236 -90q104 0 182 48t121 136l121 -82q-49 -111 -161 -177.5t-263 -66.5q-150 0 -262.5 68t-173 192.5t-60.5 290.5zM309 610h606v23 q0 139 -80.5 226t-211.5 87q-88 0 -160 -42t-113 -115.5t-41 -163.5v-15z" />
<glyph unicode="f" d="M150 918v139h376v104q0 143 52.5 221t149.5 106t259 28h127v-140h-129q-117 0 -175 -11t-89 -57t-31 -145v-106h424v-139h-424v-779h377v-139h-897v139h356v779h-376z" />
<glyph unicode="g" d="M123 543q0 250 110.5 394t303.5 144q111 0 192.5 -50t132.5 -146h8v172h164v-1022q0 -219 -123 -344t-342 -125q-238 0 -379 145l97 113q111 -115 284 -115q150 0 224.5 79t74.5 237v176h-8q-51 -96 -133 -146.5t-192 -50.5q-193 0 -303.5 144.5t-110.5 394.5zM299 467 q0 -145 80 -231t221 -86q115 0 192.5 57t77.5 160v352q0 102 -77.5 159.5t-192.5 57.5q-141 0 -221 -86t-80 -232v-151z" />
<glyph unicode="h" d="M201 0v1516h164v-631h8q39 90 109.5 143t191.5 53q168 0 267 -106.5t99 -296.5v-678h-163v649q0 143 -63.5 215t-186.5 72q-109 0 -185.5 -52.5t-76.5 -150.5v-733h-164z" />
<glyph unicode="i" d="M184 0v143h387v768h-387v146h551v-914h355v-143h-906zM530 1298v218h218v-218h-218z" />
<glyph unicode="j" d="M190 918v139h695v-1112q0 -143 -52.5 -221t-149.5 -106t-259 -28h-215v140h217q117 0 175 11t89 57t31 145v975h-531zM694 1299v217h217v-217h-217z" />
<glyph unicode="k" d="M215 0v1516h164v-957h8l184 174l353 324h200l-438 -414l490 -643h-203l-412 549l-182 -166v-383h-164z" />
<glyph unicode="l" d="M164 0v139h368v1237h-368v140h532v-1377h369v-139h-901z" />
<glyph unicode="m" horiz-adv-x="1843" d="M197 0v1057h163v-172h9q41 92 106.5 144t177.5 52q111 0 197 -53t127 -162h4q33 94 114 154.5t208 60.5q162 0 253 -106.5t91 -296.5v-678h-164v649q0 141 -56.5 213t-175.5 72q-104 0 -175.5 -52.5t-71.5 -148.5v-733h-164v649q0 143 -55.5 214t-172.5 71 q-104 0 -178 -52.5t-74 -148.5v-733h-163z" />
<glyph unicode="n" d="M201 0v1057h164v-172h8q39 90 109.5 143t191.5 53q168 0 267 -106.5t99 -296.5v-678h-163v649q0 143 -63.5 215t-186.5 72q-109 0 -185.5 -52.5t-76.5 -150.5v-733h-164z" />
<glyph unicode="o" d="M135 528q0 168 58.5 293t166 192.5t254.5 67.5t255 -67.5t166.5 -192.5t58.5 -293t-58.5 -292.5t-166 -192.5t-255.5 -68q-147 0 -254.5 68t-166 192.5t-58.5 292.5zM309 453q0 -166 82 -251t223 -85q142 0 224 85t82 251v151q0 166 -82 251t-224 85q-141 0 -223 -85 t-82 -251v-151z" />
<glyph unicode="p" d="M195 -410v1467h163v-172h9q51 96 133 146t192 50q195 0 304.5 -146.5t109.5 -406.5t-109.5 -406.5t-304.5 -146.5q-111 0 -192.5 50.5t-132.5 146.5h-9v-582h-163zM358 338q0 -102 78 -159.5t193 -57.5q141 0 221 86t80 231v180q0 145 -80 231.5t-221 86.5 q-115 0 -193 -57.5t-78 -159.5v-381z" />
<glyph unicode="q" d="M123 528q0 260 109.5 406.5t304.5 146.5q111 0 192.5 -50t132.5 -146h8v172h164v-1467h-164v582h-8q-51 -96 -133 -146.5t-192 -50.5q-195 0 -304.5 146.5t-109.5 406.5zM299 438q0 -145 80 -231t221 -86q115 0 192.5 57.5t77.5 159.5v381q0 102 -77.5 159.5t-192.5 57.5 q-141 0 -221 -86t-80 -232v-180z" />
<glyph unicode="r" d="M158 0v139h309v779h-309v139h473v-266h10q78 266 356 266h148v-164h-199q-150 0 -232.5 -84t-82.5 -213v-457h409v-139h-882z" />
<glyph unicode="s" d="M137 182l111 97q78 -84 170 -125t213 -41q129 0 204.5 46t75.5 136q0 76 -49 108.5t-137 45.5l-166 24q-100 14 -176 40t-131 86t-55 167q0 154 116.5 234.5t309.5 80.5q270 0 430 -170l-107 -100q-47 55 -126 94t-204 39t-191.5 -43t-66.5 -125q0 -76 50.5 -108.5 t136.5 -44.5l166 -25q102 -14 178 -40t130 -86t54 -167q0 -156 -121 -243t-325 -87q-160 0 -281 54.5t-209 152.5z" />
<glyph unicode="t" d="M80 918v139h352v373h164v-373h481v-139h-481v-566q0 -98 30.5 -144t89 -57.5t175.5 -11.5h129v-139h-127q-162 0 -259 27.5t-149.5 105.5t-52.5 221v564h-352z" />
<glyph unicode="u" d="M188 379v678h164v-649q0 -143 63.5 -215t186.5 -72q109 0 185.5 52t76.5 151v733h164v-1057h-164v172h-8q-39 -90 -109.5 -143.5t-191.5 -53.5q-168 0 -267.5 106.5t-99.5 297.5z" />
<glyph unicode="v" d="M131 1057h166l152 -443l163 -477h9l163 477l152 443h162l-379 -1057h-209z" />
<glyph unicode="w" horiz-adv-x="1843" d="M158 1057h159l109 -408l137 -512h4l158 516l125 404h145l127 -404l162 -516h4l135 514l109 406h154l-302 -1057h-202l-154 489l-106 340h-4l-105 -337l-154 -492h-198z" />
<glyph unicode="x" d="M125 0l393 537l-383 520h197l160 -223l126 -177h9l123 177l157 223h189l-387 -518l397 -539h-197l-178 248l-121 168h-8l-117 -168l-172 -248h-188z" />
<glyph unicode="y" d="M109 1057h167l179 -443l157 -401h9l157 401l178 443h164l-524 -1288q-39 -96 -97.5 -137.5t-172.5 -41.5h-156v140h203q20 0 35.5 10t23.5 31l103 249z" />
<glyph unicode="z" d="M174 0v158l682 760h-659v139h837v-158l-682 -760h703v-139h-881z" />
<glyph unicode="{" d="M215 573v127h160q139 0 210.5 37t71.5 113q0 33 -13 62.5t-48 70.5l-12 14q-49 63 -76 117.5t-27 145.5v129q0 74 45 120.5t127 46.5h361v-126h-391v-158q0 -72 18 -114t59 -97q0 -2 5 -6l8 -11q43 -59 65.5 -101t22.5 -95q0 -84 -60.5 -138.5t-165.5 -68.5v-8 q104 -14 165 -68.5t61 -138.5q0 -53 -22.5 -95t-65.5 -102l-8 -10q-4 -4 -5 -6q-41 -55 -59 -97t-18 -114v-158h391v-127h-361q-82 0 -127 47.5t-45 120.5v129q0 90 27 144.5t76 117.5l12 15q35 41 48 70.5t13 62.5q0 76 -71.5 112.5t-210.5 36.5h-160z" />
<glyph unicode="|" d="M543 -283v1839h143v-1839h-143z" />
<glyph unicode="}" d="M215 -156h391v158q0 72 -18.5 114t-59.5 97q0 2 -4 6l-8 10q-43 59 -65.5 101.5t-22.5 95.5q0 84 60.5 138t164.5 69v8q-104 14 -164.5 68.5t-60.5 138.5q0 53 22.5 95t65.5 101l8 11q4 4 4 6q41 55 59.5 97t18.5 114v158h-391v126h360q82 0 127.5 -47t45.5 -120v-129 q0 -90 -27 -144.5t-76 -118.5l-12 -14q-35 -41 -48.5 -70.5t-13.5 -62.5q0 -76 72 -113t211 -37h160v-127h-160q-139 0 -211 -36.5t-72 -112.5q0 -33 13.5 -62.5t48.5 -70.5l12 -15q49 -63 76 -117.5t27 -144.5v-129q0 -74 -45.5 -121t-127.5 -47h-360v127z" />
<glyph unicode="~" d="M106 537q29 102 104 164.5t183 62.5q57 0 112.5 -17.5t119.5 -48.5q16 -8 26 -12q70 -33 109 -48t78 -15q55 0 93 36.5t66 104.5l125 -51q-29 -102 -103.5 -165t-182.5 -63q-58 0 -113 17.5t-119 48.5q-16 8 -26 12q-70 33 -109 48.5t-78 15.5q-55 0 -93 -37t-67 -105z " />
<glyph unicode="&#xa0;" />
<glyph unicode="&#xa1;" d="M479 786v269h266v-269h-266zM524 43l58 537h65l58 -537v-416h-181v416z" />
<glyph unicode="&#xa2;" d="M172 528q0 229 105.5 375t293.5 172v215h127v-211q127 -10 213 -74.5t129 -166.5l-131 -70q-27 72 -81 116t-132 54v-819q168 18 244 182l117 -80q-45 -104 -135.5 -168.5t-223.5 -75.5v-210h-127v215q-188 27 -293.5 172t-105.5 374zM348 438q0 -123 58.5 -207 t166.5 -106v807q-106 -23 -165.5 -107t-59.5 -207v-180z" />
<glyph unicode="&#xa3;" d="M106 586v141h160q-2 8 -5 14.5t-5 14.5q-29 86 -42 143t-13 123q0 127 58 225.5t167 152.5t254 54q295 0 446 -233l-129 -93q-59 88 -137 132.5t-190 44.5q-139 0 -216 -71t-77 -222q0 -68 13 -124.5t42 -139.5l6 -21h412v-141h-373l6 -80q0 -115 -50 -201t-118 -131v-10 h787v-164h-948v215q84 35 122.5 103.5t38.5 166.5q0 45 -10 101h-199z" />
<glyph unicode="&#xa5;" d="M45 1430h191l376 -766h9l376 766h187l-398 -766h289v-142h-379v-381h379v-141h-921v141h378v381h-378v142h288z" />
<glyph unicode="&#xa6;" d="M543 -283v736h143v-736h-143zM543 821v735h143v-735h-143z" />
<glyph unicode="&#xa7;" d="M166 557q0 98 59.5 174t169.5 119v10q-78 47 -116.5 117t-38.5 153q0 96 51 170t144 114t216 40q98 0 188.5 -27.5t159.5 -87.5l-96 -114q-104 88 -254 88q-117 0 -182.5 -48t-65.5 -132q0 -74 54.5 -121t162.5 -78l132 -37q164 -47 242.5 -128t78.5 -189 q0 -98 -59.5 -174t-169.5 -119v-11q78 -47 116.5 -116.5t38.5 -153.5q0 -96 -51 -170t-144 -113.5t-216 -39.5q-98 0 -188.5 27.5t-159.5 86.5l96 115q104 -88 254 -88q117 0 182.5 48t65.5 132q0 74 -54.5 121t-163.5 78l-131 37q-164 47 -242.5 128t-78.5 189zM328 598 q0 -86 59 -140.5t186 -88.5l129 -35q35 -8 70 -23q137 94 137 228q0 86 -59 140t-186 89l-129 35q-35 8 -70 22q-137 -94 -137 -227z" />
<glyph unicode="&#xa8;" d="M273 1262v217h217v-217h-217zM735 1262v217h217v-217h-217z" />
<glyph unicode="&#xa9;" horiz-adv-x="1843" d="M238 715q0 221 90 389t245.5 258t348.5 90t348 -90t245.5 -258t90.5 -389t-90.5 -389t-246 -258.5t-347.5 -90.5q-193 0 -348.5 90.5t-245.5 258.5t-90 389zM377 653q0 -158 69.5 -283.5t193.5 -197.5t282 -72q157 0 281 72t193.5 198t69.5 283v123q0 158 -69.5 284 t-193.5 197.5t-281 71.5q-158 0 -282 -71.5t-193.5 -197.5t-69.5 -284v-123zM600 715q0 182 90 289.5t248 107.5q98 0 167 -47t105 -131l-116 -66q-25 57 -62 86t-94 29q-86 0 -134 -55.5t-48 -147.5v-133q0 -92 48 -147.5t134 -55.5q61 0 101 31t73 92l111 -69 q-37 -82 -110 -131.5t-175 -49.5q-158 0 -248 107.5t-90 290.5z" />
<glyph unicode="&#xaa;" d="M283 918q0 106 79.5 159t229.5 53h149v58q0 80 -39.5 120t-117.5 40q-68 0 -117 -29t-74 -78l-86 70q35 59 106.5 101t176.5 42q131 0 205.5 -68.5t74.5 -191.5v-348h78v-115h-69q-66 0 -95.5 27.5t-33.5 81.5h-9q-27 -53 -85 -89t-146 -36q-109 0 -168 55t-59 148z M412 920q0 -51 31.5 -76t93.5 -25q84 0 144 37t60 96v84h-153q-86 0 -131 -24.5t-45 -71.5v-20z" />
<glyph unicode="&#xab;" d="M149 471v164l422 356l51 -117l-303 -321l303 -322l-51 -116zM620 471v164l422 356l51 -117l-303 -321l303 -322l-51 -116z" />
<glyph unicode="&#xac;" d="M127 555v139h942v-534h-141v395h-801z" />
<glyph unicode="&#xad;" d="M317 537v172h594v-172h-594z" />
<glyph unicode="&#xae;" d="M240 1081q0 104 50 189.5t136 134.5t188 49t188.5 -49t136.5 -134t50 -190q0 -104 -50 -189t-136 -134t-189 -49q-102 0 -188 49t-136 134t-50 189zM338 1061q0 -121 78 -194.5t198 -73.5q121 0 199 73.5t78 194.5v41q0 121 -78 194.5t-199 73.5t-198.5 -73.5 t-77.5 -194.5v-41zM471 893v379h174q57 0 89 -32t32 -85q0 -39 -20.5 -66.5t-55.5 -39.5l94 -156h-92l-80 143h-59v-143h-82zM553 1096h74q25 0 39 13t14 36v14q0 23 -14.5 36t-38.5 13h-74v-112z" />
<glyph unicode="&#xaf;" d="M328 1305v139h573v-139h-573z" />
<glyph unicode="&#xb0;" d="M264 1104q0 98 46 178t127 126t177 46t177 -46t127.5 -126t46.5 -178t-46.5 -178t-127 -126t-177.5 -46q-96 0 -177 46t-127 126t-46 178zM408 1104q0 -94 57 -156.5t149 -62.5q93 0 150 62.5t57 156.5t-57 156.5t-150 62.5q-92 0 -149 -62.5t-57 -156.5z" />
<glyph unicode="&#xb1;" d="M127 0v139h975v-139h-975zM127 719v139h410v408h155v-408h410v-139h-410v-408h-155v408h-410z" />
<glyph unicode="&#xb2;" d="M330 1257q27 82 95.5 133.5t182.5 51.5q123 0 192.5 -61.5t69.5 -161.5q0 -82 -49 -148.5t-145 -140.5l-199 -154h420v-102h-557v117l266 215q63 51 95 99t32 101v13q0 53 -34.5 84.5t-98.5 31.5q-119 0 -160 -118z" />
<glyph unicode="&#xb3;" d="M309 797l97 69q33 -49 74.5 -75.5t107.5 -26.5q76 0 116.5 32.5t40.5 92.5v12q0 113 -157 113h-92v104h82q76 0 114.5 29t38.5 78v8q0 51 -36 78.5t-97 27.5q-57 0 -99 -23.5t-71 -68.5l-88 70q39 57 103.5 91t158.5 34q119 0 192.5 -52.5t73.5 -142.5q0 -70 -45 -115 t-114 -59v-6q76 -12 124 -59t48 -125q0 -100 -80 -160.5t-213 -60.5q-102 0 -168 36.5t-111 98.5z" />
<glyph unicode="&#xb4;" d="M522 1247l174 348l150 -71l-217 -326z" />
<glyph unicode="&#xb5;" d="M201 -410v1467h164v-649q0 -287 243 -287q106 0 181 52t75 151v733h164v-1057h-164v172h-8q-41 -92 -106.5 -144.5t-180.5 -52.5q-154 0 -211 107h-8l15 -172v-320h-164z" />
<glyph unicode="&#xb6;" d="M92 967q0 131 61.5 236.5t167 166t232.5 60.5h479v-1735h-147v1603h-185v-1603h-147v809q-127 0 -232.5 60.5t-167 166t-61.5 236.5z" />
<glyph unicode="&#xb7;" d="M481 489v268h266v-268h-266z" />
<glyph unicode="&#xb8;" d="M436 -340l78 84q45 -57 125 -57q41 0 65.5 16t24.5 47t-29.5 51.5t-109.5 32.5l-58 8l39 199h103l-33 -166l6 -6q39 12 80 12q61 0 100 -35.5t39 -99.5q0 -84 -64.5 -127t-162.5 -43q-76 0 -127 24.5t-76 59.5z" />
<glyph unicode="&#xb9;" d="M315 1296l258 134h140v-654h200v-102h-553v102h224v543l-217 -113z" />
<glyph unicode="&#xba;" d="M287 1085q0 172 87 270.5t240 98.5q154 0 241 -98.5t87 -270.5t-87 -271t-241 -99q-153 0 -240 99t-87 271zM428 1024q0 -90 48 -145.5t138 -55.5q91 0 139 55.5t48 145.5v121q0 90 -48 145.5t-139 55.5q-90 0 -138 -55.5t-48 -145.5v-121z" />
<glyph unicode="&#xbb;" d="M136 231l303 322l-303 321l51 117l422 -356v-164l-422 -356zM607 231l303 322l-303 321l51 117l422 -356v-164l-422 -356z" />
<glyph unicode="&#xbc;" d="M37 0l328 614h147l-328 -614h-147zM41 1315l221 115h140v-584h170v-103h-492v103h193v471l-183 -92zM643 131v121l291 434h168v-457h96v-98h-96v-131h-125v131h-334zM717 815l327 615h148l-328 -615h-147zM737 229h240v349h-6z" />
<glyph unicode="&#xbd;" d="M37 0l328 614h147l-328 -614h-147zM41 1315l221 115h140v-584h170v-103h-492v103h193v471l-183 -92zM661 524q25 78 89.5 126t166.5 48q111 0 172.5 -56t61.5 -142q0 -78 -48 -143.5t-137 -133.5l-157 -121h368v-102h-503v119l231 184q55 45 83 91t28 93v11 q0 41 -29 67.5t-80 26.5t-84 -28.5t-53 -84.5zM717 815l327 615h148l-328 -615h-147z" />
<glyph unicode="&#xbe;" d="M35 877l96 67q29 -51 66 -79.5t96 -28.5t93 27.5t34 74.5v14q0 45 -37 70t-104 25h-72v102h72q61 0 95 23.5t34 60.5v14q0 41 -31 65.5t-84 24.5q-47 0 -85 -21.5t-62 -62.5l-86 70q39 57 96 88t141 31q109 0 175.5 -48t66.5 -130q0 -63 -41 -104.5t-103 -53.5v-8 q70 -12 113 -53t43 -111q0 -92 -71.5 -147.5t-186.5 -55.5q-176 1 -258 146zM37 0l328 614h147l-328 -614h-147zM643 131v121l291 434h168v-457h96v-98h-96v-131h-125v131h-334zM717 815l327 615h148l-328 -615h-147zM737 229h240v349h-6z" />
<glyph unicode="&#xbf;" d="M184 -10q0 178 115 284.5t279 135.5v206h161v-321q-180 -8 -278.5 -79t-98.5 -206v-28q0 -113 68 -171.5t188 -58.5q117 0 194 65.5t106 174.5l153 -58q-43 -147 -158.5 -239t-300.5 -92q-129 0 -226 47t-149.5 135t-52.5 205zM520 786v269h266v-269h-266z" />
<glyph unicode="&#xc0;" d="M63 0l439 1430h227l438 -1430h-182l-121 408h-502l-120 -408h-179zM383 1872l149 72l175 -349l-107 -49zM403 557h420l-200 690h-19z" />
<glyph unicode="&#xc1;" d="M63 0l439 1430h227l438 -1430h-182l-121 408h-502l-120 -408h-179zM403 557h420l-200 690h-19zM522 1595l174 349l150 -72l-217 -326z" />
<glyph unicode="&#xc2;" d="M63 0l439 1430h227l438 -1430h-182l-121 408h-502l-120 -408h-179zM285 1622l227 293h205l227 -293l-92 -63l-240 239l-239 -239zM403 557h420l-200 690h-19z" />
<glyph unicode="&#xc3;" d="M63 0l439 1430h227l438 -1430h-182l-121 408h-502l-120 -408h-179zM270 1731q31 47 80 77.5t115 30.5q43 0 78 -12t71 -35l15 -6l8 -4q45 -25 78 -35t57 -10q33 0 59.5 13t59.5 42l67 -82q-31 -47 -80 -77.5t-114 -30.5q-43 0 -78 12t-72 35l-14 6l-8 4q-45 25 -78 35 t-57 10q-31 0 -58.5 -13.5t-60.5 -41.5zM403 557h420l-200 690h-19z" />
<glyph unicode="&#xc4;" d="M63 0l439 1430h227l438 -1430h-182l-121 408h-502l-120 -408h-179zM273 1610v217h217v-217h-217zM403 557h420l-200 690h-19zM735 1610v217h217v-217h-217z" />
<glyph unicode="&#xc5;" d="M63 0l439 1430h227l438 -1430h-182l-121 408h-502l-120 -408h-179zM377 1763q0 66 31.5 120t86 85t119.5 31q66 0 120 -31t86 -85t32 -120t-32 -120t-86 -84.5t-120 -30.5q-65 0 -119.5 30.5t-86 85t-31.5 119.5zM403 557h420l-200 690h-19zM496 1741q0 -53 31.5 -83 t86.5 -30q56 0 87.5 30t31.5 83v45q0 53 -31.5 82.5t-87.5 29.5q-55 0 -86.5 -29.5t-31.5 -82.5v-45z" />
<glyph unicode="&#xc6;" horiz-adv-x="1843" d="M63 0l732 1430h946v-152h-662v-479h621v-152h-621v-495h662v-152h-832v420h-460l-209 -420h-177zM520 571h389v707h-26z" />
<glyph unicode="&#xc7;" d="M143 715q0 360 130 549.5t389 189.5q178 0 277 -85t163 -228l-148 -68q-45 113 -109.5 172.5t-182.5 59.5q-166 0 -251 -126t-85 -348v-233q0 -221 85 -347t251 -126q119 0 183 59.5t109 171.5l148 -67q-63 -141 -159.5 -225t-266.5 -89l-19 -100l7 -6q39 12 79 12 q61 0 100.5 -35.5t39.5 -99.5q0 -84 -64.5 -127t-163.5 -43q-76 0 -127 24.5t-75 59.5l77 84q45 -57 125 -57q41 0 65.5 16t24.5 47t-29.5 51.5t-109.5 32.5l-57 8l26 140q-217 31 -324.5 217t-107.5 516z" />
<glyph unicode="&#xc8;" d="M184 0v1430h881v-150h-709v-481h684v-150h-684v-499h709v-150h-881zM393 1872l149 72l175 -349l-107 -49z" />
<glyph unicode="&#xc9;" d="M184 0v1430h881v-150h-709v-481h684v-150h-684v-499h709v-150h-881zM532 1595l174 349l150 -72l-217 -326z" />
<glyph unicode="&#xca;" d="M184 0v1430h881v-150h-709v-481h684v-150h-684v-499h709v-150h-881zM295 1622l227 293h205l227 -293l-92 -63l-240 239l-239 -239z" />
<glyph unicode="&#xcb;" d="M184 0v1430h881v-150h-709v-481h684v-150h-684v-499h709v-150h-881zM283 1610v217h217v-217h-217zM745 1610v217h217v-217h-217z" />
<glyph unicode="&#xcc;" d="M172 0v137h356v1155h-356v138h885v-138h-357v-1155h357v-137h-885zM383 1872l149 72l175 -349l-107 -49z" />
<glyph unicode="&#xcd;" d="M172 0v137h356v1155h-356v138h885v-138h-357v-1155h357v-137h-885zM522 1595l174 349l150 -72l-217 -326z" />
<glyph unicode="&#xce;" d="M172 0v137h356v1155h-356v138h885v-138h-357v-1155h357v-137h-885zM285 1622l227 293h205l227 -293l-92 -63l-240 239l-239 -239z" />
<glyph unicode="&#xcf;" d="M172 0v137h356v1155h-356v138h885v-138h-357v-1155h357v-137h-885zM273 1610v217h217v-217h-217zM735 1610v217h217v-217h-217z" />
<glyph unicode="&#xd0;" d="M45 688v131h164v611h385q260 0 390 -180.5t130 -534.5t-130 -534.5t-390 -180.5h-385v688h-164zM381 150h205q168 0 257 118.5t89 335.5v221q0 217 -89 336t-257 119h-205v-461h289v-131h-289v-538z" />
<glyph unicode="&#xd1;" d="M164 0v1430h244l487 -1199h14v1199h156v-1430h-244l-487 1210h-15v-1210h-155zM270 1731q31 47 80 77.5t115 30.5q43 0 78 -12t71 -35l15 -6l8 -4q45 -25 78 -35t57 -10q33 0 59.5 13t59.5 42l67 -82q-31 -47 -80 -77.5t-114 -30.5q-43 0 -78 12t-72 35l-14 6l-8 4 q-45 25 -78 35t-57 10q-31 0 -58.5 -13.5t-60.5 -41.5z" />
<glyph unicode="&#xd2;" d="M115 715q0 360 121.5 549.5t377.5 189.5t378 -189.5t122 -549.5t-122 -550t-378 -190t-377.5 189.5t-121.5 550.5zM297 598q0 -225 77 -349t240 -124q164 0 241 124t77 349v233q0 225 -77 349.5t-241 124.5t-240.5 -124t-76.5 -350v-233zM383 1872l149 72l175 -349 l-107 -49z" />
<glyph unicode="&#xd3;" d="M115 715q0 360 121.5 549.5t377.5 189.5t378 -189.5t122 -549.5t-122 -550t-378 -190t-377.5 189.5t-121.5 550.5zM297 598q0 -225 77 -349t240 -124q164 0 241 124t77 349v233q0 225 -77 349.5t-241 124.5t-240.5 -124t-76.5 -350v-233zM522 1595l174 349l150 -72 l-217 -326z" />
<glyph unicode="&#xd4;" d="M115 715q0 360 121.5 549.5t377.5 189.5t378 -189.5t122 -549.5t-122 -550t-378 -190t-377.5 189.5t-121.5 550.5zM285 1622l227 293h205l227 -293l-92 -63l-240 239l-239 -239zM297 598q0 -225 77 -349t240 -124q164 0 241 124t77 349v233q0 225 -77 349.5t-241 124.5 t-240.5 -124t-76.5 -350v-233z" />
<glyph unicode="&#xd5;" d="M115 715q0 360 121.5 549.5t377.5 189.5t378 -189.5t122 -549.5t-122 -550t-378 -190t-377.5 189.5t-121.5 550.5zM270 1731q31 47 80 77.5t115 30.5q43 0 78 -12t71 -35l15 -6l8 -4q45 -25 78 -35t57 -10q33 0 59.5 13t59.5 42l67 -82q-31 -47 -80 -77.5t-114 -30.5 q-43 0 -78 12t-72 35l-14 6l-8 4q-45 25 -78 35t-57 10q-31 0 -58.5 -13.5t-60.5 -41.5zM297 598q0 -225 77 -349t240 -124q164 0 241 124t77 349v233q0 225 -77 349.5t-241 124.5t-240.5 -124t-76.5 -350v-233z" />
<glyph unicode="&#xd6;" d="M115 715q0 360 121.5 549.5t377.5 189.5t378 -189.5t122 -549.5t-122 -550t-378 -190t-377.5 189.5t-121.5 550.5zM273 1610v217h217v-217h-217zM297 598q0 -225 77 -349t240 -124q164 0 241 124t77 349v233q0 225 -77 349.5t-241 124.5t-240.5 -124t-76.5 -350v-233z M735 1610v217h217v-217h-217z" />
<glyph unicode="&#xd7;" d="M180 291l334 334l-334 333l101 101l333 -334l334 334l101 -101l-334 -333l334 -334l-101 -101l-334 334l-333 -334z" />
<glyph unicode="&#xd8;" d="M96 -16l123 209q-104 182 -104 522q0 360 121.5 549.5t377.5 189.5q186 0 299 -98l97 164l123 -74l-123 -209q104 -182 104 -522q0 -360 -122 -550t-378 -190q-184 1 -299 99l-96 -164zM297 598q0 -148 29 -242l508 854q-82 94 -220 95q-164 0 -240.5 -124t-76.5 -350 v-233zM395 219q82 -94 219 -94q164 0 241 124t77 349v233q0 147 -29 242z" />
<glyph unicode="&#xd9;" d="M164 612v818h172v-859q0 -166 15.5 -255t74.5 -140t188 -51t188.5 51t75 140.5t15.5 254.5v859h172v-818q0 -231 -34 -365t-130 -203t-287 -69q-190 0 -286.5 69t-130 203t-33.5 365zM383 1872l149 72l175 -349l-107 -49z" />
<glyph unicode="&#xda;" d="M164 612v818h172v-859q0 -166 15.5 -255t74.5 -140t188 -51t188.5 51t75 140.5t15.5 254.5v859h172v-818q0 -231 -34 -365t-130 -203t-287 -69q-190 0 -286.5 69t-130 203t-33.5 365zM522 1595l174 349l150 -72l-217 -326z" />
<glyph unicode="&#xdb;" d="M164 612v818h172v-859q0 -166 15.5 -255t74.5 -140t188 -51t188.5 51t75 140.5t15.5 254.5v859h172v-818q0 -231 -34 -365t-130 -203t-287 -69q-190 0 -286.5 69t-130 203t-33.5 365zM285 1622l227 293h205l227 -293l-92 -63l-240 239l-239 -239z" />
<glyph unicode="&#xdc;" d="M164 612v818h172v-859q0 -166 15.5 -255t74.5 -140t188 -51t188.5 51t75 140.5t15.5 254.5v859h172v-818q0 -231 -34 -365t-130 -203t-287 -69q-190 0 -286.5 69t-130 203t-33.5 365zM273 1610v217h217v-217h-217zM735 1610v217h217v-217h-217z" />
<glyph unicode="&#xdd;" d="M35 1430h196l205 -373l174 -326h8l179 326l204 373h193l-494 -869v-561h-172v561zM522 1595l174 349l150 -72l-217 -326z" />
<glyph unicode="&#xde;" d="M184 0v1430h172v-297h349q195 0 301 -109t106 -299t-106.5 -299t-300.5 -109h-349v-317h-172zM356 467h349q109 0 169 53t60 152v106q0 98 -60.5 151.5t-168.5 53.5h-349v-516z" />
<glyph unicode="&#xdf;" d="M57 918v139h152v10q0 143 49 249.5t143.5 165t225.5 58.5q129 0 220 -58.5t138 -165t47 -249.5v-125h-96q-127 0 -190.5 -40t-63.5 -130q0 -68 37 -99.5t121 -60.5l49 -16q152 -49 217 -116.5t65 -192.5q0 -154 -92 -233t-260 -79q-113 0 -194.5 37t-145.5 119l105 94 q88 -119 245 -119q94 0 141.5 40t47.5 124q0 63 -31 110.5t-108 72.5l-52 16q-100 33 -159.5 61.5t-99.5 85t-40 150.5q0 141 92.5 218t251.5 81v16q0 164 -60 243t-187 79q-129 0 -191.5 -80t-62.5 -242v-1081h-162v918h-152z" />
<glyph unicode="&#xe0;" d="M135 297q0 307 455 307h225v105q0 115 -65.5 174t-186.5 59q-102 0 -170.5 -40t-111.5 -116l-111 82q43 90 147.5 151.5t255.5 61.5q186 0 296 -95t110 -261v-508q0 -31 21.5 -52.5t52.5 -21.5h73v-143h-112q-90 0 -134 46t-55 126h-10q-35 -94 -113.5 -145.5 t-203.5 -51.5q-166 0 -264.5 86t-98.5 236zM307 279q0 -80 58.5 -123t160.5 -43q125 0 207 56t82 138v174h-225q-143 0 -213 -41t-70 -118v-43zM348 1524l149 71l175 -348l-107 -49z" />
<glyph unicode="&#xe1;" d="M135 297q0 307 455 307h225v105q0 115 -65.5 174t-186.5 59q-102 0 -170.5 -40t-111.5 -116l-111 82q43 90 147.5 151.5t255.5 61.5q186 0 296 -95t110 -261v-508q0 -31 21.5 -52.5t52.5 -21.5h73v-143h-112q-90 0 -134 46t-55 126h-10q-35 -94 -113.5 -145.5 t-203.5 -51.5q-166 0 -264.5 86t-98.5 236zM307 279q0 -80 58.5 -123t160.5 -43q125 0 207 56t82 138v174h-225q-143 0 -213 -41t-70 -118v-43zM487 1247l174 348l150 -71l-217 -326z" />
<glyph unicode="&#xe2;" d="M135 297q0 307 455 307h225v105q0 115 -65.5 174t-186.5 59q-102 0 -170.5 -40t-111.5 -116l-111 82q43 90 147.5 151.5t255.5 61.5q186 0 296 -95t110 -261v-508q0 -31 21.5 -52.5t52.5 -21.5h73v-143h-112q-90 0 -134 46t-55 126h-10q-35 -94 -113.5 -145.5 t-203.5 -51.5q-166 0 -264.5 86t-98.5 236zM250 1274l227 293h205l227 -293l-92 -64l-240 240l-239 -240zM307 279q0 -80 58.5 -123t160.5 -43q125 0 207 56t82 138v174h-225q-143 0 -213 -41t-70 -118v-43z" />
<glyph unicode="&#xe3;" d="M135 297q0 307 455 307h225v105q0 115 -65.5 174t-186.5 59q-102 0 -170.5 -40t-111.5 -116l-111 82q43 90 147.5 151.5t255.5 61.5q186 0 296 -95t110 -261v-508q0 -31 21.5 -52.5t52.5 -21.5h73v-143h-112q-90 0 -134 46t-55 126h-10q-35 -94 -113.5 -145.5 t-203.5 -51.5q-166 0 -264.5 86t-98.5 236zM235 1382q31 47 80 78t115 31q43 0 78 -12.5t71 -34.5l15 -6l8 -4q45 -25 78 -35t57 -10q33 0 59.5 13t59.5 42l67 -82q-31 -47 -80 -78t-114 -31q-43 0 -78 12.5t-72 34.5l-14 7l-8 4q-45 25 -78 35t-57 10q-31 0 -58.5 -13.5 t-60.5 -42.5zM307 279q0 -80 58.5 -123t160.5 -43q125 0 207 56t82 138v174h-225q-143 0 -213 -41t-70 -118v-43z" />
<glyph unicode="&#xe4;" d="M135 297q0 307 455 307h225v105q0 115 -65.5 174t-186.5 59q-102 0 -170.5 -40t-111.5 -116l-111 82q43 90 147.5 151.5t255.5 61.5q186 0 296 -95t110 -261v-508q0 -31 21.5 -52.5t52.5 -21.5h73v-143h-112q-90 0 -134 46t-55 126h-10q-35 -94 -113.5 -145.5 t-203.5 -51.5q-166 0 -264.5 86t-98.5 236zM238 1262v217h217v-217h-217zM307 279q0 -80 58.5 -123t160.5 -43q125 0 207 56t82 138v174h-225q-143 0 -213 -41t-70 -118v-43zM700 1262v217h217v-217h-217z" />
<glyph unicode="&#xe5;" d="M135 297q0 307 455 307h225v105q0 115 -65.5 174t-186.5 59q-102 0 -170.5 -40t-111.5 -116l-111 82q43 90 147.5 151.5t255.5 61.5q186 0 296 -95t110 -261v-508q0 -31 21.5 -52.5t52.5 -21.5h73v-143h-112q-90 0 -134 46t-55 126h-10q-35 -94 -113.5 -145.5 t-203.5 -51.5q-166 0 -264.5 86t-98.5 236zM307 279q0 -80 58.5 -123t160.5 -43q125 0 207 56t82 138v174h-225q-143 0 -213 -41t-70 -118v-43zM342 1415q0 66 31.5 120t86 85t119.5 31q66 0 120 -31t86 -85t32 -120t-32 -120t-86 -84.5t-120 -30.5q-65 0 -119.5 30.5 t-86 85t-31.5 119.5zM461 1393q0 -53 31.5 -83t86.5 -30q56 0 87.5 29.5t31.5 83.5v45q0 53 -31.5 82.5t-87.5 29.5q-55 0 -86.5 -29.5t-31.5 -82.5v-45z" />
<glyph unicode="&#xe6;" horiz-adv-x="1843" d="M131 291q0 154 114.5 236.5t336.5 82.5h209v99q0 113 -62.5 172t-181.5 59q-98 0 -163 -39t-112 -117l-98 90q45 90 142.5 148.5t234.5 58.5q160 0 234.5 -72.5t97.5 -162.5h12q12 51 64.5 105.5t134.5 92t182 37.5q131 0 230.5 -66.5t153.5 -183t54 -266.5v-78h-760v-49 q0 -139 85 -229t229 -90q100 0 174 46t117 134l116 -82q-51 -111 -157.5 -176.5t-241.5 -65.5q-104 0 -189.5 38t-137.5 93.5t-64 106.5h-13q-10 -49 -60 -104.5t-135 -94.5t-196 -39q-160 0 -255 86t-95 230zM303 279q0 -78 56.5 -121t154.5 -43q119 0 198 55t79 137v180 h-218q-137 0 -203.5 -43t-66.5 -122v-43zM954 610h584v23q0 139 -77 225t-204 86q-133 0 -218 -90t-85 -229v-15z" />
<glyph unicode="&#xe7;" d="M172 528q0 254 127 403.5t350 149.5q148 0 246 -65.5t145 -177.5l-131 -70q-29 82 -96.5 127t-163.5 45q-141 0 -221 -89t-80 -233v-180q0 -143 80 -232t225 -89q102 0 174 48t113 136l117 -80q-49 -111 -146.5 -176t-242.5 -70l-21 -100l6 -6q41 12 80 12 q61 0 100 -35.5t39 -99.5q0 -84 -64.5 -127t-162.5 -43q-76 0 -127 24.5t-76 59.5l78 84q45 -57 125 -57q41 0 65.5 16t24.5 47t-29.5 51.5t-109.5 32.5l-57 8l28 140q-186 27 -290.5 173t-104.5 373z" />
<glyph unicode="&#xe8;" d="M137 526q0 166 61.5 292t171 194.5t253.5 68.5q139 0 245.5 -66.5t165 -183t58.5 -266.5v-78h-783v-49q0 -141 88 -231t236 -90q104 0 182 48t121 136l121 -82q-49 -111 -161 -177.5t-263 -66.5q-150 0 -262.5 68t-173 192.5t-60.5 290.5zM309 610h606v23 q0 139 -80.5 226t-211.5 87q-88 0 -160 -42t-113 -115.5t-41 -163.5v-15zM387 1524l149 71l175 -348l-107 -49z" />
<glyph unicode="&#xe9;" d="M137 526q0 166 61.5 292t171 194.5t253.5 68.5q139 0 245.5 -66.5t165 -183t58.5 -266.5v-78h-783v-49q0 -141 88 -231t236 -90q104 0 182 48t121 136l121 -82q-49 -111 -161 -177.5t-263 -66.5q-150 0 -262.5 68t-173 192.5t-60.5 290.5zM309 610h606v23 q0 139 -80.5 226t-211.5 87q-88 0 -160 -42t-113 -115.5t-41 -163.5v-15zM526 1247l174 348l150 -71l-217 -326z" />
<glyph unicode="&#xea;" d="M137 526q0 166 61.5 292t171 194.5t253.5 68.5q139 0 245.5 -66.5t165 -183t58.5 -266.5v-78h-783v-49q0 -141 88 -231t236 -90q104 0 182 48t121 136l121 -82q-49 -111 -161 -177.5t-263 -66.5q-150 0 -262.5 68t-173 192.5t-60.5 290.5zM289 1274l227 293h205l227 -293 l-92 -64l-240 240l-239 -240zM309 610h606v23q0 139 -80.5 226t-211.5 87q-88 0 -160 -42t-113 -115.5t-41 -163.5v-15z" />
<glyph unicode="&#xeb;" d="M137 526q0 166 61.5 292t171 194.5t253.5 68.5q139 0 245.5 -66.5t165 -183t58.5 -266.5v-78h-783v-49q0 -141 88 -231t236 -90q104 0 182 48t121 136l121 -82q-49 -111 -161 -177.5t-263 -66.5q-150 0 -262.5 68t-173 192.5t-60.5 290.5zM277 1262v217h217v-217h-217z M309 610h606v23q0 139 -80.5 226t-211.5 87q-88 0 -160 -42t-113 -115.5t-41 -163.5v-15zM739 1262v217h217v-217h-217z" />
<glyph unicode="&#xec;" d="M217 0v139h381v779h-381v139h545v-918h356v-139h-901zM449 1524l149 71l175 -348l-107 -49z" />
<glyph unicode="&#xed;" d="M217 0v139h381v779h-381v139h545v-918h356v-139h-901zM588 1247l174 348l150 -71l-217 -326z" />
<glyph unicode="&#xee;" d="M217 0v139h381v779h-381v139h545v-918h356v-139h-901zM351 1274l227 293h205l227 -293l-92 -64l-240 240l-239 -240z" />
<glyph unicode="&#xef;" d="M217 0v139h381v779h-381v139h545v-918h356v-139h-901zM339 1262v217h217v-217h-217zM801 1262v217h217v-217h-217z" />
<glyph unicode="&#xf0;" d="M135 504q0 158 56.5 277.5t155.5 185t226 65.5q219 0 338 -196l9 4q-94 236 -275 405l-203 -143l-77 92l188 131q-121 96 -293 191h258q92 -59 152 -107l192 133l78 -92l-178 -125q147 -143 239.5 -337.5t92.5 -442.5q0 -281 -125 -425.5t-348 -144.5 q-227 0 -356.5 142.5t-129.5 386.5zM309 432q0 -156 82 -235.5t223 -79.5q142 0 224 79.5t82 235.5v143q0 156 -82 236t-224 80q-141 0 -223 -80t-82 -236v-143z" />
<glyph unicode="&#xf1;" d="M201 0v1057h164v-172h8q39 90 109.5 143t191.5 53q168 0 267 -106.5t99 -296.5v-678h-163v649q0 143 -63.5 215t-186.5 72q-109 0 -185.5 -52.5t-76.5 -150.5v-733h-164zM276 1382q31 47 80 78t115 31q43 0 78 -12.5t71 -34.5l15 -6l8 -4q45 -25 78 -35t57 -10 q33 0 59.5 13t59.5 42l67 -82q-31 -47 -80 -78t-114 -31q-43 0 -78 12.5t-72 34.5l-14 7l-8 4q-45 25 -78 35t-57 10q-31 0 -58.5 -13.5t-60.5 -42.5z" />
<glyph unicode="&#xf2;" d="M135 528q0 168 58.5 293t166 192.5t254.5 67.5t255 -67.5t166.5 -192.5t58.5 -293t-58.5 -292.5t-166 -192.5t-255.5 -68q-147 0 -254.5 68t-166 192.5t-58.5 292.5zM309 453q0 -166 82 -251t223 -85q142 0 224 85t82 251v151q0 166 -82 251t-224 85q-141 0 -223 -85 t-82 -251v-151zM383 1524l149 71l175 -348l-107 -49z" />
<glyph unicode="&#xf3;" d="M135 528q0 168 58.5 293t166 192.5t254.5 67.5t255 -67.5t166.5 -192.5t58.5 -293t-58.5 -292.5t-166 -192.5t-255.5 -68q-147 0 -254.5 68t-166 192.5t-58.5 292.5zM309 453q0 -166 82 -251t223 -85q142 0 224 85t82 251v151q0 166 -82 251t-224 85q-141 0 -223 -85 t-82 -251v-151zM522 1247l174 348l150 -71l-217 -326z" />
<glyph unicode="&#xf4;" d="M135 528q0 168 58.5 293t166 192.5t254.5 67.5t255 -67.5t166.5 -192.5t58.5 -293t-58.5 -292.5t-166 -192.5t-255.5 -68q-147 0 -254.5 68t-166 192.5t-58.5 292.5zM285 1274l227 293h205l227 -293l-92 -64l-240 240l-239 -240zM309 453q0 -166 82 -251t223 -85 q142 0 224 85t82 251v151q0 166 -82 251t-224 85q-141 0 -223 -85t-82 -251v-151z" />
<glyph unicode="&#xf5;" d="M135 528q0 168 58.5 293t166 192.5t254.5 67.5t255 -67.5t166.5 -192.5t58.5 -293t-58.5 -292.5t-166 -192.5t-255.5 -68q-147 0 -254.5 68t-166 192.5t-58.5 292.5zM270 1382q31 47 80 78t115 31q43 0 78 -12.5t71 -34.5l15 -6l8 -4q45 -25 78 -35t57 -10q33 0 59.5 13 t59.5 42l67 -82q-31 -47 -80 -78t-114 -31q-43 0 -78 12.5t-72 34.5l-14 7l-8 4q-45 25 -78 35t-57 10q-31 0 -58.5 -13.5t-60.5 -42.5zM309 453q0 -166 82 -251t223 -85q142 0 224 85t82 251v151q0 166 -82 251t-224 85q-141 0 -223 -85t-82 -251v-151z" />
<glyph unicode="&#xf6;" d="M135 528q0 168 58.5 293t166 192.5t254.5 67.5t255 -67.5t166.5 -192.5t58.5 -293t-58.5 -292.5t-166 -192.5t-255.5 -68q-147 0 -254.5 68t-166 192.5t-58.5 292.5zM273 1262v217h217v-217h-217zM309 453q0 -166 82 -251t223 -85q142 0 224 85t82 251v151q0 166 -82 251 t-224 85q-141 0 -223 -85t-82 -251v-151zM735 1262v217h217v-217h-217z" />
<glyph unicode="&#xf7;" d="M127 555v139h975v-139h-975zM498 127v217h217v-217h-217zM502 926v217h217v-217h-217z" />
<glyph unicode="&#xf8;" d="M96 -12l142 172q-102 147 -103 368q0 168 58.5 293t166 192.5t254.5 67.5q174 0 297 -100l129 158l93 -70l-142 -172q102 -147 103 -369q0 -168 -58.5 -292.5t-166 -192.5t-255.5 -68q-174 0 -297 101l-129 -158zM309 453q0 -102 31 -170l481 587q-76 70 -207 70 q-141 0 -223 -85t-82 -251v-151zM408 186q76 -70 206 -69q142 0 224 85t82 251v151q0 102 -31 170z" />
<glyph unicode="&#xf9;" d="M188 379v678h164v-649q0 -143 63.5 -215t186.5 -72q109 0 185.5 52t76.5 151v733h164v-1057h-164v172h-8q-39 -90 -109.5 -143.5t-191.5 -53.5q-168 0 -267.5 106.5t-99.5 297.5zM377 1524l149 71l175 -348l-107 -49z" />
<glyph unicode="&#xfa;" d="M188 379v678h164v-649q0 -143 63.5 -215t186.5 -72q109 0 185.5 52t76.5 151v733h164v-1057h-164v172h-8q-39 -90 -109.5 -143.5t-191.5 -53.5q-168 0 -267.5 106.5t-99.5 297.5zM516 1247l174 348l150 -71l-217 -326z" />
<glyph unicode="&#xfb;" d="M188 379v678h164v-649q0 -143 63.5 -215t186.5 -72q109 0 185.5 52t76.5 151v733h164v-1057h-164v172h-8q-39 -90 -109.5 -143.5t-191.5 -53.5q-168 0 -267.5 106.5t-99.5 297.5zM279 1274l227 293h205l227 -293l-92 -64l-240 240l-239 -240z" />
<glyph unicode="&#xfc;" d="M188 379v678h164v-649q0 -143 63.5 -215t186.5 -72q109 0 185.5 52t76.5 151v733h164v-1057h-164v172h-8q-39 -90 -109.5 -143.5t-191.5 -53.5q-168 0 -267.5 106.5t-99.5 297.5zM267 1262v217h217v-217h-217zM729 1262v217h217v-217h-217z" />
<glyph unicode="&#xfd;" d="M109 1057h167l179 -443l157 -401h9l157 401l178 443h164l-524 -1288q-39 -96 -97.5 -137.5t-172.5 -41.5h-156v140h203q20 0 35.5 10t23.5 31l103 249zM522 1247l174 348l150 -71l-217 -326z" />
<glyph unicode="&#xfe;" d="M195 -410v1926h163v-631h9q51 96 133 146t192 50q195 0 304.5 -146.5t109.5 -406.5t-109.5 -406.5t-304.5 -146.5q-111 0 -192.5 50.5t-132.5 146.5h-9v-582h-163zM358 338q0 -102 78 -159.5t193 -57.5q141 0 221 86t80 231v180q0 145 -80 231.5t-221 86.5 q-115 0 -193 -57.5t-78 -159.5v-381z" />
<glyph unicode="&#xff;" d="M109 1057h167l179 -443l157 -401h9l157 401l178 443h164l-524 -1288q-39 -96 -97.5 -137.5t-172.5 -41.5h-156v140h203q20 0 35.5 10t23.5 31l103 249zM273 1262v217h217v-217h-217zM735 1262v217h217v-217h-217z" />
<glyph unicode="&#x152;" horiz-adv-x="1843" d="M57 715q0 358 167 548.5t466 190.5q133 0 262 -24h811v-152h-641v-479h600v-152h-600v-495h641v-152h-811q-129 -25 -262 -25q-299 0 -466 190.5t-167 549.5zM242 596q0 -219 117.5 -343t351.5 -124q128 0 239 37v1098q-111 37 -239 36q-233 0 -351 -123.5t-118 -342.5 v-238z" />
<glyph unicode="&#x153;" horiz-adv-x="1843" d="M96 528q0 166 60.5 291t168 193.5t248.5 68.5q135 0 235.5 -61.5t149.5 -173.5h13q45 109 145.5 172t237.5 63t240.5 -65.5t159.5 -183t56 -267.5v-78h-759v-49q0 -139 85 -229t228 -90q100 0 175 47t118 135l115 -84q-53 -111 -159 -176.5t-247 -65.5 q-145 0 -245.5 65.5t-151.5 170.5h-11q-47 -104 -151.5 -170t-233.5 -66q-141 0 -248.5 69t-168 193.5t-60.5 290.5zM272 453q0 -162 82 -247t219 -85q138 0 219.5 85t81.5 247v151q0 162 -81.5 247t-219.5 85q-137 0 -219 -85t-82 -247v-151zM1051 610h583v23 q0 139 -76.5 225t-203.5 86q-133 0 -218 -90t-85 -229v-15z" />
<glyph unicode="&#x178;" d="M35 1430h196l205 -373l174 -326h8l179 326l204 373h193l-494 -869v-561h-172v561zM273 1610v217h217v-217h-217zM735 1610v217h217v-217h-217z" />
<glyph unicode="&#x2c6;" d="M285 1274l227 293h205l227 -293l-92 -64l-240 240l-239 -240z" />
<glyph unicode="&#x2dc;" d="M270 1382q31 47 80 78t115 31q43 0 78 -12.5t71 -34.5l15 -6l8 -4q45 -25 78 -35t57 -10q33 0 59.5 13t59.5 42l67 -82q-31 -47 -80 -78t-114 -31q-43 0 -78 12.5t-72 34.5l-14 7l-8 4q-45 25 -78 35t-57 10q-31 0 -58.5 -13.5t-60.5 -42.5z" />
<glyph unicode="&#x2000;" horiz-adv-x="999" />
<glyph unicode="&#x2001;" horiz-adv-x="1999" />
<glyph unicode="&#x2002;" horiz-adv-x="999" />
<glyph unicode="&#x2003;" horiz-adv-x="1999" />
<glyph unicode="&#x2004;" horiz-adv-x="666" />
<glyph unicode="&#x2005;" horiz-adv-x="499" />
<glyph unicode="&#x2006;" horiz-adv-x="333" />
<glyph unicode="&#x2007;" horiz-adv-x="333" />
<glyph unicode="&#x2008;" horiz-adv-x="249" />
<glyph unicode="&#x2009;" horiz-adv-x="399" />
<glyph unicode="&#x200a;" horiz-adv-x="111" />
<glyph unicode="&#x2010;" d="M317 537v172h594v-172h-594z" />
<glyph unicode="&#x2011;" d="M317 537v172h594v-172h-594z" />
<glyph unicode="&#x2012;" d="M317 537v172h594v-172h-594z" />
<glyph unicode="&#x2013;" d="M123 547v151h983v-151h-983z" />
<glyph unicode="&#x2014;" horiz-adv-x="1843" d="M203 547v151h1437v-151h-1437z" />
<glyph unicode="&#x2018;" d="M399 948l236 568h137l-108 -568h-265z" />
<glyph unicode="&#x2019;" d="M457 948l108 568h264l-235 -568h-137z" />
<glyph unicode="&#x201a;" d="M418 -289l108 568h265l-236 -568h-137z" />
<glyph unicode="&#x201c;" d="M166 948l236 568h137l-108 -568h-265zM657 948l236 568h137l-108 -568h-265z" />
<glyph unicode="&#x201d;" d="M224 948l108 568h264l-235 -568h-137zM715 948l108 568h264l-235 -568h-137z" />
<glyph unicode="&#x201e;" d="M223 -289l108 568h265l-236 -568h-137zM715 -289l108 568h265l-236 -568h-137z" />
<glyph unicode="&#x2022;" d="M421 422v384h381v-384h-381z" />
<glyph unicode="&#x2026;" horiz-adv-x="1849" d="M192 0v268h266v-268h-266zM794 0v268h266v-268h-266zM1390 0v268h266v-268h-266z" />
<glyph unicode="&#x202f;" horiz-adv-x="399" />
<glyph unicode="&#x2039;" d="M348 471v164l422 356l51 -117l-303 -321l303 -322l-51 -116z" />
<glyph unicode="&#x203a;" d="M408 231l303 322l-303 321l51 117l422 -356v-164l-422 -356z" />
<glyph unicode="&#x205f;" horiz-adv-x="499" />
<glyph unicode="&#x20ac;" d="M143 715q0 360 130 549.5t389 189.5q178 0 277 -85t163 -228l-144 -66q-45 113 -110.5 173.5t-185.5 60.5q-143 0 -227.5 -94.5t-106.5 -264.5h467v-141h-473v-188h473v-142h-467q23 -170 106.5 -264t227.5 -94q121 0 186 60.5t110 172.5l144 -65q-63 -143 -162.5 -228.5 t-277.5 -85.5q-259 0 -389 189.5t-130 550.5z" />
<glyph unicode="&#x2122;" d="M33 1335v95h459v-95h-177v-477h-106v477h-176zM578 858v572h133l133 -275h6l133 275h127v-572h-98v260l2 170h-8l-162 -319l-162 319h-8l2 -170v-260h-98z" />
<glyph unicode="&#x25fc;" horiz-adv-x="1054" d="M0 0v1055h1055v-1055h-1055z" />
<glyph unicode="&#xfb01;" d="M78 918v139h143v217q0 111 59.5 176.5t174.5 65.5h231v-140h-227q-31 0 -52.5 -21.5t-21.5 -51.5v-246h643v-1057h-164v918h-479v-918h-164v918h-143zM836 1298v218h217v-218h-217z" />
<glyph unicode="&#xfb02;" d="M78 918v139h143v217q0 111 59.5 176.5t174.5 65.5h252v-140h-291q-14 0 -22.5 -8t-8.5 -22v-289h322v-139h-322v-918h-164v918h-143zM864 0v1516h164v-1516h-164z" />
</font>
</defs>
</svg>
