<svg width="40" height="40" viewBox="0 0 40 40" fill="none" xmlns="http://www.w3.org/2000/svg">
<path fill-rule="evenodd" clip-rule="evenodd" d="M20 36C28.8366 36 36 28.8366 36 20C36 11.1634 28.8366 4 20 4C11.1634 4 4 11.1634 4 20C4 28.8366 11.1634 36 20 36ZM16.2176 28.6154C15.7819 28.6154 15.3461 28.4181 15.0445 28.1221L8.44124 21.6767C7.77087 21.019 7.77087 19.9995 8.44124 19.3418C9.11162 18.6841 10.1507 18.6841 10.8211 19.3418L16.2176 24.6034L28.6866 12.3702C29.357 11.7125 30.3961 11.7125 31.0664 12.3702C31.7368 13.0279 31.7368 14.0473 31.0664 14.705L17.3908 28.1221C17.0891 28.451 16.6534 28.6154 16.2176 28.6154Z" fill="#01F4AB"/>
</svg>
