<svg width="31" height="30" viewBox="0 0 31 30" fill="none" xmlns="http://www.w3.org/2000/svg">
<path d="M11.5 15.9375L14.3125 18.75L19 12.1875M26.5 15C26.5 16.4774 26.209 17.9403 25.6436 19.3052C25.0783 20.6701 24.2496 21.9103 23.205 22.955C22.1603 23.9996 20.9201 24.8283 19.5552 25.3936C18.1903 25.959 16.7274 26.25 15.25 26.25C13.7726 26.25 12.3097 25.959 10.9448 25.3936C9.5799 24.8283 8.33971 23.9996 7.29505 22.955C6.25039 21.9103 5.42172 20.6701 4.85636 19.3052C4.29099 17.9403 4 16.4774 4 15C4 12.0163 5.18526 9.15483 7.29505 7.04505C9.40483 4.93526 12.2663 3.75 15.25 3.75C18.2337 3.75 21.0952 4.93526 23.205 7.04505C25.3147 9.15483 26.5 12.0163 26.5 15Z" stroke="#001133" stroke-width="1.5" stroke-linecap="round" stroke-linejoin="round"/>
</svg>
