<svg width="30" height="30" viewBox="0 0 30 30" fill="none" xmlns="http://www.w3.org/2000/svg">
<path d="M21.0775 5.60882L24.375 8.90632M21.0775 5.60882L23.1862 3.49882C23.6258 3.05923 24.2221 2.81226 24.8438 2.81226C25.4654 2.81226 26.0617 3.05923 26.5013 3.49882C26.9408 3.93842 27.1878 4.53464 27.1878 5.15632C27.1878 5.77801 26.9408 6.37423 26.5013 6.81382L13.2275 20.0876C12.5667 20.7481 11.7517 21.2335 10.8563 21.5001L7.5 22.5001L8.5 19.1439C8.7666 18.2484 9.25204 17.4334 9.9125 16.7726L21.0775 5.60882ZM22.5 17.5001V23.4376C22.5 24.1835 22.2037 24.8989 21.6762 25.4263C21.1488 25.9538 20.4334 26.2501 19.6875 26.2501H6.5625C5.81658 26.2501 5.10121 25.9538 4.57376 25.4263C4.04632 24.8989 3.75 24.1835 3.75 23.4376V10.3126C3.75 9.56665 4.04632 8.85128 4.57376 8.32384C5.10121 7.79639 5.81658 7.50007 6.5625 7.50007H12.5" stroke="#001133" stroke-width="1.5" stroke-linecap="round" stroke-linejoin="round"/>
</svg>
