<svg width="30" height="30" viewBox="0 0 30 30" fill="none" xmlns="http://www.w3.org/2000/svg">
<path d="M11.25 4.6875H8.64C8.03869 4.68761 7.45324 4.88044 6.96956 5.23769C6.48587 5.59494 6.12942 6.0978 5.9525 6.6725L2.9375 16.4713C2.85492 16.7389 2.81279 17.0174 2.8125 17.2975V22.5C2.8125 23.2459 3.10882 23.9613 3.63626 24.4887C4.16371 25.0162 4.87908 25.3125 5.625 25.3125H24.375C25.1209 25.3125 25.8363 25.0162 26.3637 24.4887C26.8912 23.9613 27.1875 23.2459 27.1875 22.5V17.2975C27.1875 17.0175 27.145 16.7388 27.0625 16.4713L24.05 6.6725C23.8731 6.0978 23.5166 5.59494 23.0329 5.23769C22.5493 4.88044 21.9638 4.68761 21.3625 4.6875H18.75M2.8125 16.875H7.6375C8.15975 16.8751 8.67164 17.0207 9.11584 17.2953C9.56004 17.57 9.919 17.9629 10.1525 18.43L10.4725 19.07C10.7061 19.5373 11.0652 19.9304 11.5097 20.205C11.9541 20.4797 12.4663 20.6251 12.9887 20.625H17.0113C17.5337 20.6251 18.0459 20.4797 18.4903 20.205C18.9348 19.9304 19.2939 19.5373 19.5275 19.07L19.8475 18.43C20.0811 17.9627 20.4402 17.5696 20.8847 17.295C21.3291 17.0203 21.8413 16.8749 22.3638 16.875H27.1875M15 3.75V14.0625M15 14.0625L11.25 10.3125M15 14.0625L18.75 10.3125" stroke="#001133" stroke-width="1.5" stroke-linecap="round" stroke-linejoin="round"/>
</svg>
