<svg width="202" height="164" viewBox="0 0 202 164" fill="none" xmlns="http://www.w3.org/2000/svg">
<path d="M170.863 30.3521L165.309 35.6818C165.006 35.9718 164.648 36.2019 164.253 36.3588C163.858 36.5158 163.435 36.5966 163.008 36.5966C162.58 36.5966 162.157 36.5158 161.763 36.3588C161.368 36.2019 161.009 35.9718 160.707 35.6818L155.152 30.3521H133.983L152.822 69.1848L13.3184 67.8196V130.266H36.0972C36.9602 130.266 37.7879 130.595 38.3982 131.18C39.0084 131.766 39.3513 132.56 39.3513 133.388C39.3513 134.216 39.0084 135.01 38.3982 135.596C37.7879 136.181 36.9602 136.51 36.0972 136.51H26.3348V142.755H133.061C136.399 142.748 139.655 141.759 142.389 139.921C145.123 138.084 147.204 135.486 148.351 132.478L169.516 76.6362L192.033 30.3521H170.863ZM36.0972 80.3088H26.3348V89.6757C26.3348 90.5038 25.992 91.298 25.3817 91.8835C24.7714 92.4691 23.9438 92.798 23.0807 92.798C22.2177 92.798 21.39 92.4691 20.7797 91.8835C20.1694 91.298 19.8266 90.5038 19.8266 89.6757V77.1865C19.8266 76.3585 20.1694 75.5643 20.7797 74.9787C21.39 74.3932 22.2177 74.0642 23.0807 74.0642H36.0972C36.9602 74.0642 37.7879 74.3932 38.3982 74.9787C39.0084 75.5643 39.3513 76.3585 39.3513 77.1865C39.3513 78.0146 39.0084 78.8088 38.3982 79.3943C37.7879 79.9799 36.9602 80.3088 36.0972 80.3088ZM45.8595 111.532H39.3513V105.287H45.8595V111.532ZM45.8595 77.1865C45.8595 76.3585 46.2024 75.5643 46.8126 74.9787C47.4229 74.3932 48.2506 74.0642 49.1136 74.0642H55.6219C56.4849 74.0642 57.3126 74.3932 57.9229 74.9787C58.5331 75.5643 58.876 76.3585 58.876 77.1865C58.876 78.0146 58.5331 78.8088 57.9229 79.3943C57.3126 79.9799 56.4849 80.3088 55.6219 80.3088H49.1136C48.2506 80.3088 47.4229 79.9799 46.8126 79.3943C46.2024 78.8088 45.8595 78.0146 45.8595 77.1865ZM84.7421 134.376C84.526 134.997 84.1116 135.538 83.5575 135.921C83.0034 136.304 82.3377 136.51 81.6548 136.51H55.6219C54.7588 136.51 53.9311 136.181 53.3209 135.596C52.7106 135.01 52.3678 134.216 52.3678 133.388C52.3678 132.56 52.7106 131.766 53.3209 131.18C53.9311 130.595 54.7588 130.266 55.6219 130.266H71.8925L53.6691 117.151C52.9788 116.654 52.5226 115.915 52.4007 115.095C52.2788 114.275 52.5013 113.443 53.0192 112.78C53.5371 112.118 54.308 111.68 55.1624 111.563C56.0167 111.447 56.8844 111.66 57.5747 112.157L83.6076 130.891C84.154 131.284 84.5576 131.832 84.7613 132.458C84.9649 133.083 84.9582 133.754 84.7421 134.376ZM149.728 112.762L141.656 130.833C140.905 132.518 139.654 133.955 138.058 134.965C136.463 135.974 134.594 136.512 132.683 136.51H114.196C113.333 136.51 112.505 136.181 111.895 135.596C111.285 135.01 110.942 134.216 110.942 133.388C110.942 132.56 111.285 131.766 111.895 131.18C112.505 130.595 113.333 130.266 114.196 130.266H132.683C133.32 130.266 133.944 130.087 134.475 129.75C135.007 129.413 135.424 128.934 135.675 128.372L143.747 110.302C143.915 109.924 144.158 109.582 144.464 109.295C144.77 109.008 145.132 108.782 145.529 108.629C145.926 108.476 146.351 108.4 146.778 108.405C147.206 108.41 147.629 108.496 148.022 108.657C148.415 108.819 148.771 109.054 149.07 109.348C149.368 109.642 149.603 109.989 149.762 110.37C149.92 110.752 149.999 111.159 149.993 111.57C149.987 111.98 149.897 112.385 149.728 112.762Z" fill="white"/>
<path d="M84.7421 134.376C84.526 134.997 84.1116 135.538 83.5575 135.921C83.0034 136.304 82.3377 136.51 81.6548 136.51H55.6219C54.7588 136.51 53.9311 136.181 53.3209 135.596C52.7106 135.01 52.3678 134.216 52.3678 133.388C52.3678 132.56 52.7106 131.766 53.3209 131.18C53.9311 130.595 54.7588 130.266 55.6219 130.266H71.8925L53.6691 117.151C52.9788 116.654 52.5226 115.915 52.4007 115.095C52.2788 114.275 52.5013 113.443 53.0192 112.78C53.5371 112.118 54.308 111.68 55.1624 111.563C56.0167 111.447 56.8844 111.66 57.5747 112.157L83.6076 130.891C84.154 131.284 84.5576 131.832 84.7613 132.458C84.9649 133.083 84.9582 133.754 84.7421 134.376Z" fill="white"/>
<path d="M39.3513 39.719V52.2082C39.3513 53.0363 39.6942 53.8304 40.3044 54.416C40.9147 55.0015 41.7424 55.3305 42.6054 55.3305C43.4685 55.3305 44.2962 55.0015 44.9064 54.416C45.5167 53.8304 45.8596 53.0363 45.8596 52.2082V39.719C45.8596 38.8909 45.5167 38.0967 44.9064 37.5112C44.2962 36.9256 43.4685 36.5967 42.6054 36.5967C41.7424 36.5967 40.9147 36.9256 40.3044 37.5112C39.6942 38.0967 39.3513 38.8909 39.3513 39.719Z" fill="#01F4AB"/>
<path d="M20.1698 38.3222C19.9786 38.6889 19.8646 39.0883 19.8343 39.4973C19.8039 39.9064 19.8579 40.3171 19.993 40.7062C20.1282 41.0952 20.3419 41.4549 20.6219 41.7647C20.902 42.0745 21.2429 42.3283 21.6252 42.5117C26.1346 44.675 26.3332 52.0721 26.3348 52.217C26.3361 53.0451 26.6801 53.8388 27.2913 54.4235C27.9024 55.0082 28.7306 55.336 29.5937 55.3347C30.4567 55.3335 31.2839 55.0034 31.8933 54.417C32.5027 53.8306 32.8443 53.036 32.843 52.2079C32.843 51.7458 32.7493 40.8667 24.5361 36.9257C24.1539 36.7422 23.7377 36.6327 23.3114 36.6036C22.885 36.5745 22.4569 36.6262 22.0514 36.7559C21.6459 36.8856 21.271 37.0907 20.9482 37.3594C20.6253 37.6282 20.3608 37.9553 20.1698 38.3222Z" fill="#01F4AB"/>
<path d="M55.6219 55.3305C56.485 55.3305 57.3127 55.0015 57.9229 54.416C58.5332 53.8304 58.876 53.0362 58.876 52.2082C58.876 52.1334 59.0047 44.7088 63.5856 42.512C64.3555 42.1404 64.9404 41.491 65.212 40.7062C65.4835 39.9215 65.4196 39.0654 65.0341 38.3258C64.6487 37.5862 63.9733 37.0234 63.1561 36.761C62.3388 36.4986 61.4464 36.5579 60.6747 36.926C52.4616 40.867 52.3678 51.7461 52.3678 52.2082C52.3678 53.0362 52.7106 53.8304 53.3209 54.416C53.9312 55.0015 54.7589 55.3305 55.6219 55.3305Z" fill="#01F4AB"/>
<path d="M13.3183 36.5966C16.9127 36.5966 19.8265 33.8008 19.8265 30.352C19.8265 26.9032 16.9127 24.1074 13.3183 24.1074C9.72389 24.1074 6.81006 26.9032 6.81006 30.352C6.81006 33.8008 9.72389 36.5966 13.3183 36.5966Z" fill="#01F4AB"/>
<path d="M42.6054 30.352C44.5362 30.352 46.4236 29.8026 48.029 28.7734C49.6344 27.7441 50.8857 26.2812 51.6246 24.5696C52.3635 22.858 52.5568 20.9747 52.1801 19.1577C51.8035 17.3407 50.8737 15.6717 49.5084 14.3617C48.1431 13.0517 46.4036 12.1596 44.5099 11.7982C42.6162 11.4367 40.6533 11.6222 38.8695 12.3312C37.0856 13.0401 35.561 14.2407 34.4883 15.7811C33.4156 17.3215 32.843 19.1325 32.843 20.9851C32.8458 23.4685 33.8753 25.8494 35.7055 27.6055C37.5356 29.3615 40.0171 30.3493 42.6054 30.352ZM42.6054 17.8628C43.249 17.8628 43.8781 18.0459 44.4133 18.389C44.9484 18.7321 45.3655 19.2197 45.6118 19.7902C45.8581 20.3607 45.9225 20.9885 45.797 21.5942C45.6714 22.1999 45.3615 22.7562 44.9064 23.1929C44.4513 23.6295 43.8715 23.9269 43.2402 24.0474C42.609 24.1678 41.9547 24.106 41.3601 23.8697C40.7655 23.6334 40.2572 23.2332 39.8997 22.7197C39.5421 22.2063 39.3513 21.6026 39.3513 20.9851C39.3524 20.1573 39.6956 19.3638 40.3056 18.7785C40.9156 18.1931 41.7427 17.8638 42.6054 17.8628Z" fill="#01F4AB"/>
<path d="M78.4007 24.1074H71.8925V30.352H78.4007V24.1074Z" fill="#01F4AB"/>
<path d="M78.4007 36.5967H71.8925V42.8413H78.4007V36.5967Z" fill="#01F4AB"/>
<path d="M71.8925 30.3521H65.3843V36.5966H71.8925V30.3521Z" fill="#01F4AB"/>
<path d="M84.9089 30.3521H78.4006V36.5966H84.9089V30.3521Z" fill="#01F4AB"/>
</svg>
