<svg width="191" height="42" viewBox="0 0 191 42" fill="none" xmlns="http://www.w3.org/2000/svg">
<path d="M45.054 31.6242L40.291 19.1621H44.3074L46.0323 24.4996L47.2939 28.6536H47.4999L48.7614 24.4996L50.4864 19.1621H54.3483L49.5853 31.6242H45.054Z" fill="#001133"/>
<path d="M63.1176 31.914C61.6586 31.914 60.4142 31.6564 59.3844 31.1412C58.3717 30.6098 57.6079 29.8612 57.093 28.8951C56.5781 27.929 56.3206 26.7778 56.3206 25.4415C56.3206 24.089 56.5781 22.9217 57.093 21.9395C57.6251 20.9574 58.3717 20.2006 59.3329 19.6693C60.3113 19.138 61.4612 18.8723 62.7829 18.8723C64.0873 18.8723 65.2201 19.1299 66.1813 19.6451C67.1597 20.1604 67.9063 20.893 68.4212 21.8429C68.9361 22.7929 69.1936 23.9119 69.1936 25.2V26.2626H60.1053V26.48C60.1053 27.3011 60.3799 27.9532 60.9292 28.4362C61.4784 28.9193 62.2508 29.1608 63.2463 29.1608C64.0015 29.1608 64.6623 29.0239 65.2287 28.7502C65.7951 28.4765 66.3015 28.0981 66.7477 27.6151L68.8074 29.7162C68.241 30.3764 67.4858 30.9077 66.5418 31.3102C65.5978 31.7128 64.4564 31.914 63.1176 31.914ZM62.8086 21.4323C62.2594 21.4323 61.7788 21.5451 61.3668 21.7705C60.9721 21.9798 60.6631 22.2857 60.44 22.6882C60.2169 23.0746 60.1053 23.5335 60.1053 24.0648V24.258H65.4604V24.0648C65.4604 23.2598 65.2201 22.6238 64.7396 22.1569C64.2761 21.6739 63.6325 21.4323 62.8086 21.4323Z" fill="#001133"/>
<path d="M72.376 28.8468H75.4398V21.9395H72.376V19.1621H79.2502V22.6882H79.4304C80.0655 20.3375 81.4815 19.1621 83.6785 19.1621H84.94V22.4467H82.108C81.1983 22.4467 80.4946 22.7043 79.9968 23.2195C79.4991 23.7187 79.2502 24.3627 79.2502 25.1516V28.8468H83.627V31.6242H72.376V28.8468Z" fill="#001133"/>
<path d="M88.3284 28.8468H92.5508V21.9395H88.3284V19.1621H96.3611V28.8468H100.275V31.6242H88.3284V28.8468ZM96.4899 13.6315V17.4474H92.3963V13.6315H96.4899Z" fill="#001133"/>
<path d="M106.289 18.9448L107.602 24.0648L108.529 27.929H108.632L109.713 24.0648L111.258 18.9448H114.734L116.304 24.0648L117.411 27.929H117.514L118.441 24.0648L119.754 18.9448H123.281L119.548 31.6242H115.558L113.91 26.2626L112.957 22.978H112.88L111.953 26.2626L110.305 31.6242H106.392L102.607 18.9448H106.289Z" fill="#001133"/>
<path d="M126.201 13.7522H130.011V21.4323H130.166C130.492 20.6595 130.972 20.0396 131.607 19.5727C132.259 19.1058 133.083 18.8723 134.079 18.8723C135.383 18.8723 136.43 19.2829 137.22 20.104C138.009 20.9252 138.404 22.0764 138.404 23.5577V31.6242H134.594V24.0407C134.594 23.2517 134.405 22.656 134.027 22.2535C133.65 21.8349 133.092 21.6256 132.354 21.6256C131.719 21.6256 131.17 21.7866 130.706 22.1086C130.243 22.4306 130.011 22.8734 130.011 23.4369V31.6242H126.201V13.7522Z" fill="#001133"/>
<path d="M152.503 31.6242C151.713 31.6242 151.07 31.431 150.572 31.0446C150.091 30.6581 149.817 30.1188 149.748 29.4264H149.619C149.396 30.2315 148.924 30.8514 148.203 31.2861C147.482 31.7047 146.607 31.914 145.577 31.914C144.273 31.914 143.234 31.5839 142.462 30.9238C141.69 30.2637 141.303 29.354 141.303 28.1947C141.303 25.6347 143.294 24.3547 147.276 24.3547H149.413V23.7267C149.413 22.97 149.225 22.4064 148.847 22.0361C148.469 21.6658 147.851 21.4806 146.993 21.4806C146.238 21.4806 145.603 21.6175 145.088 21.8912C144.59 22.1649 144.144 22.5514 143.749 23.0505L141.664 21.3116C142.127 20.5709 142.848 19.9833 143.827 19.5485C144.805 19.0977 146.006 18.8723 147.431 18.8723C149.267 18.8723 150.692 19.2748 151.705 20.0799C152.717 20.8688 153.224 22.0361 153.224 23.5818V28.2189C153.224 28.4443 153.31 28.6375 153.481 28.7985C153.653 28.9595 153.859 29.04 154.099 29.04H154.691V31.6242H152.503ZM147.019 29.5713C147.723 29.5713 148.298 29.4184 148.744 29.1125C149.19 28.7904 149.413 28.3477 149.413 27.7841V26.2868H147.379C146.624 26.2868 146.041 26.4156 145.629 26.6732C145.234 26.9147 145.037 27.277 145.037 27.76V28.243C145.037 28.6777 145.208 29.0078 145.551 29.2332C145.912 29.4586 146.401 29.5713 147.019 29.5713Z" fill="#001133"/>
<path d="M157.153 28.8468H161.221V16.5296H157.153V13.7522H165.031V28.8468H169.099V31.6242H157.153V28.8468Z" fill="#001133"/>
<path d="M178.924 31.914C177.465 31.914 176.22 31.6564 175.191 31.1412C174.178 30.6098 173.414 29.8612 172.899 28.8951C172.384 27.929 172.127 26.7778 172.127 25.4415C172.127 24.089 172.384 22.9217 172.899 21.9395C173.431 20.9574 174.178 20.2006 175.139 19.6693C176.117 19.138 177.267 18.8723 178.589 18.8723C179.894 18.8723 181.026 19.1299 181.988 19.6451C182.966 20.1604 183.713 20.893 184.227 21.8429C184.742 22.7929 185 23.9119 185 25.2V26.2626H175.912V26.48C175.912 27.3011 176.186 27.9532 176.735 28.4362C177.285 28.9193 178.057 29.1608 179.053 29.1608C179.808 29.1608 180.469 29.0239 181.035 28.7502C181.601 28.4765 182.108 28.0981 182.554 27.6151L184.614 29.7162C184.047 30.3764 183.292 30.9077 182.348 31.3102C181.404 31.7128 180.263 31.914 178.924 31.914ZM178.615 21.4323C178.066 21.4323 177.585 21.5451 177.173 21.7705C176.778 21.9798 176.469 22.2857 176.246 22.6882C176.023 23.0746 175.912 23.5335 175.912 24.0648V24.258H181.267V24.0648C181.267 23.2598 181.026 22.6238 180.546 22.1569C180.082 21.6739 179.439 21.4323 178.615 21.4323Z" fill="#001133"/>
<path d="M33.135 12.5836L32.1799 13.4936C32.128 13.5432 32.0663 13.5824 31.9984 13.6092C31.9305 13.636 31.8578 13.6498 31.7843 13.6498C31.7108 13.6498 31.6381 13.636 31.5702 13.6092C31.5023 13.5824 31.4406 13.5432 31.3887 13.4936L30.4336 12.5836H26.7936L30.0329 19.2142L6.0459 18.9811V29.6437H9.96261C10.111 29.6437 10.2533 29.6999 10.3583 29.7999C10.4632 29.8999 10.5221 30.0355 10.5221 30.1769C10.5221 30.3183 10.4632 30.4539 10.3583 30.5538C10.2533 30.6538 10.111 30.71 9.96261 30.71H8.28402V31.7762H26.6351C27.2091 31.7751 27.7689 31.6062 28.239 31.2924C28.7092 30.9787 29.067 30.535 29.2642 30.0215L32.9034 20.4866L36.775 12.5836H33.135ZM9.96261 21.1137H8.28402V22.713C8.28402 22.8544 8.22507 22.99 8.12014 23.09C8.0152 23.19 7.87289 23.2462 7.72449 23.2462C7.57609 23.2462 7.43377 23.19 7.32884 23.09C7.22391 22.99 7.16496 22.8544 7.16496 22.713V20.5805C7.16496 20.4391 7.22391 20.3035 7.32884 20.2036C7.43377 20.1036 7.57609 20.0474 7.72449 20.0474H9.96261C10.111 20.0474 10.2533 20.1036 10.3583 20.2036C10.4632 20.3035 10.5221 20.4391 10.5221 20.5805C10.5221 20.7219 10.4632 20.8575 10.3583 20.9575C10.2533 21.0575 10.111 21.1137 9.96261 21.1137ZM11.6412 26.445H10.5221V25.3787H11.6412V26.445ZM11.6412 20.5805C11.6412 20.4391 11.7002 20.3035 11.8051 20.2036C11.91 20.1036 12.0523 20.0474 12.2007 20.0474H13.3198C13.4682 20.0474 13.6105 20.1036 13.7154 20.2036C13.8204 20.3035 13.8793 20.4391 13.8793 20.5805C13.8793 20.7219 13.8204 20.8575 13.7154 20.9575C13.6105 21.0575 13.4682 21.1137 13.3198 21.1137H12.2007C12.0523 21.1137 11.91 21.0575 11.8051 20.9575C11.7002 20.8575 11.6412 20.7219 11.6412 20.5805ZM18.3269 30.3456C18.2897 30.4517 18.2185 30.544 18.1232 30.6094C18.0279 30.6748 17.9135 30.71 17.796 30.71H13.3198C13.1714 30.71 13.0291 30.6538 12.9241 30.5538C12.8192 30.4539 12.7603 30.3183 12.7603 30.1769C12.7603 30.0355 12.8192 29.8999 12.9241 29.7999C13.0291 29.6999 13.1714 29.6437 13.3198 29.6437H16.1174L12.984 27.4045C12.8653 27.3196 12.7869 27.1933 12.7659 27.0534C12.745 26.9134 12.7832 26.7712 12.8723 26.6582C12.9613 26.5451 13.0939 26.4703 13.2408 26.4504C13.3877 26.4304 13.5369 26.4668 13.6556 26.5517L18.1318 29.7505C18.2258 29.8176 18.2952 29.9112 18.3302 30.018C18.3652 30.1248 18.364 30.2394 18.3269 30.3456ZM29.5008 26.655L28.113 29.7405C27.9838 30.0284 27.7687 30.2738 27.4944 30.4461C27.2201 30.6185 26.8987 30.7102 26.5701 30.71H23.3913C23.2429 30.71 23.1006 30.6538 22.9957 30.5538C22.8908 30.4539 22.8318 30.3183 22.8318 30.1769C22.8318 30.0355 22.8908 29.8999 22.9957 29.7999C23.1006 29.6999 23.2429 29.6437 23.3913 29.6437H26.5701C26.6797 29.6438 26.7868 29.6132 26.8783 29.5557C26.9698 29.4982 27.0415 29.4164 27.0846 29.3204L28.4725 26.2349C28.5013 26.1704 28.5432 26.112 28.5958 26.063C28.6484 26.014 28.7106 25.9754 28.7789 25.9493C28.8472 25.9232 28.9202 25.9102 28.9937 25.9111C29.0673 25.9119 29.1399 25.9265 29.2075 25.9542C29.2751 25.9818 29.3364 26.0218 29.3877 26.072C29.439 26.1222 29.4795 26.1815 29.5067 26.2466C29.534 26.3117 29.5475 26.3813 29.5465 26.4514C29.5454 26.5215 29.53 26.5906 29.5008 26.655Z" fill="#001133"/>
<path d="M18.3269 30.3456C18.2897 30.4517 18.2185 30.544 18.1232 30.6094C18.0279 30.6748 17.9135 30.71 17.796 30.71H13.3198C13.1714 30.71 13.0291 30.6538 12.9241 30.5538C12.8192 30.4539 12.7603 30.3183 12.7603 30.1769C12.7603 30.0355 12.8192 29.8999 12.9241 29.7999C13.0291 29.6999 13.1714 29.6437 13.3198 29.6437H16.1174L12.984 27.4045C12.8653 27.3196 12.7869 27.1933 12.7659 27.0534C12.745 26.9134 12.7832 26.7712 12.8723 26.6582C12.9613 26.5451 13.0939 26.4703 13.2408 26.4504C13.3877 26.4304 13.5369 26.4668 13.6556 26.5517L18.1318 29.7505C18.2258 29.8176 18.2952 29.9112 18.3302 30.018C18.3652 30.1248 18.364 30.2394 18.3269 30.3456Z" fill="#001133"/>
<path d="M10.5222 14.183V16.3155C10.5222 16.4569 10.5812 16.5925 10.6861 16.6925C10.791 16.7924 10.9334 16.8486 11.0817 16.8486C11.2301 16.8486 11.3725 16.7924 11.4774 16.6925C11.5823 16.5925 11.6413 16.4569 11.6413 16.3155V14.183C11.6413 14.0416 11.5823 13.906 11.4774 13.806C11.3725 13.706 11.2301 13.6498 11.0817 13.6498C10.9334 13.6498 10.791 13.706 10.6861 13.806C10.5812 13.906 10.5222 14.0416 10.5222 14.183Z" fill="#01F4AB"/>
<path d="M7.22414 13.9445C7.19127 14.0071 7.17166 14.0753 7.16645 14.1452C7.16124 14.215 7.17051 14.2852 7.19375 14.3516C7.21699 14.418 7.25374 14.4794 7.30189 14.5323C7.35004 14.5852 7.40866 14.6286 7.4744 14.6599C8.24977 15.0293 8.28391 16.2923 8.28419 16.317C8.2844 16.4584 8.34356 16.594 8.44865 16.6938C8.55374 16.7936 8.69614 16.8496 8.84454 16.8494C8.99293 16.8492 9.13517 16.7928 9.23994 16.6927C9.34472 16.5926 9.40347 16.4569 9.40325 16.3155C9.40325 16.2366 9.38713 14.379 7.97492 13.7061C7.90919 13.6747 7.83763 13.656 7.76433 13.6511C7.69102 13.6461 7.6174 13.6549 7.54768 13.6771C7.47796 13.6992 7.4135 13.7342 7.35798 13.7801C7.30247 13.826 7.25699 13.8819 7.22414 13.9445Z" fill="#01F4AB"/>
<path d="M13.3198 16.8486C13.4682 16.8486 13.6105 16.7925 13.7154 16.6925C13.8204 16.5925 13.8793 16.4569 13.8793 16.3155C13.8793 16.3027 13.9014 15.035 14.6891 14.6599C14.8215 14.5964 14.9221 14.4856 14.9687 14.3516C15.0154 14.2176 15.0044 14.0714 14.9382 13.9451C14.8719 13.8188 14.7558 13.7227 14.6152 13.6779C14.4747 13.6331 14.3213 13.6432 14.1886 13.7061C12.7764 14.379 12.7603 16.2366 12.7603 16.3155C12.7603 16.4569 12.8192 16.5925 12.9241 16.6925C13.0291 16.7925 13.1714 16.8486 13.3198 16.8486Z" fill="#01F4AB"/>
<path d="M6.04606 13.6499C6.6641 13.6499 7.16512 13.1725 7.16512 12.5836C7.16512 11.9947 6.6641 11.5173 6.04606 11.5173C5.42802 11.5173 4.927 11.9947 4.927 12.5836C4.927 13.1725 5.42802 13.6499 6.04606 13.6499Z" fill="#01F4AB"/>
<path d="M11.0817 12.5836C11.4137 12.5836 11.7382 12.4898 12.0142 12.314C12.2903 12.1383 12.5054 11.8885 12.6325 11.5962C12.7595 11.304 12.7928 10.9824 12.728 10.6722C12.6632 10.3619 12.5034 10.0769 12.2686 9.85325C12.0339 9.62957 11.7348 9.47724 11.4091 9.41553C11.0835 9.35382 10.746 9.38549 10.4393 9.50654C10.1326 9.6276 9.87042 9.83259 9.68597 10.0956C9.50152 10.3586 9.40308 10.6679 9.40308 10.9842C9.40356 11.4082 9.58057 11.8148 9.89526 12.1146C10.21 12.4145 10.6366 12.5831 11.0817 12.5836ZM11.0817 10.4511C11.1923 10.4511 11.3005 10.4823 11.3925 10.5409C11.4845 10.5995 11.5563 10.6827 11.5986 10.7802C11.641 10.8776 11.652 10.9848 11.6304 11.0882C11.6089 11.1916 11.5556 11.2866 11.4773 11.3612C11.3991 11.4357 11.2994 11.4865 11.1908 11.5071C11.0823 11.5276 10.9698 11.5171 10.8675 11.4767C10.7653 11.4364 10.6779 11.368 10.6164 11.2804C10.555 11.1927 10.5221 11.0896 10.5221 10.9842C10.5223 10.8428 10.5813 10.7074 10.6862 10.6074C10.7911 10.5075 10.9333 10.4512 11.0817 10.4511Z" fill="#01F4AB"/>
<path d="M17.2365 11.5173H16.1174V12.5836H17.2365V11.5173Z" fill="#01F4AB"/>
<path d="M17.2365 13.6498H16.1174V14.7161H17.2365V13.6498Z" fill="#01F4AB"/>
<path d="M16.1176 12.5836H14.9985V13.6498H16.1176V12.5836Z" fill="#01F4AB"/>
<path d="M18.3556 12.5836H17.2366V13.6498H18.3556V12.5836Z" fill="#01F4AB"/>
</svg>
