<svg width="170" height="60" viewBox="0 0 170 60" fill="none" xmlns="http://www.w3.org/2000/svg">
<path d="M35.5138 44.9091V15.8182H37.3774V44.9091H35.5138ZM40.457 25.4205C40.3661 24.5038 39.9759 23.7917 39.2865 23.2841C38.5971 22.7765 37.6615 22.5227 36.4797 22.5227C35.6767 22.5227 34.9986 22.6364 34.4456 22.8636C33.8926 23.0833 33.4683 23.3902 33.1729 23.7841C32.885 24.178 32.7411 24.625 32.7411 25.125C32.7259 25.5417 32.813 25.9053 33.0024 26.2159C33.1994 26.5265 33.4683 26.7955 33.8093 27.0227C34.1502 27.2424 34.5441 27.4356 34.9911 27.6023C35.438 27.7614 35.9153 27.8977 36.4229 28.0114L38.5138 28.5114C39.529 28.7386 40.4608 29.0417 41.3093 29.4205C42.1577 29.7992 42.8926 30.2652 43.5138 30.8182C44.135 31.3712 44.6161 32.0227 44.957 32.7727C45.3055 33.5227 45.4835 34.3826 45.4911 35.3523C45.4835 36.7765 45.1199 38.0114 44.4002 39.0568C43.688 40.0947 42.6577 40.9015 41.3093 41.4773C39.9683 42.0455 38.3509 42.3295 36.457 42.3295C34.5782 42.3295 32.9418 42.0417 31.5479 41.4659C30.1615 40.8902 29.0782 40.0379 28.2979 38.9091C27.5252 37.7727 27.1199 36.3674 27.082 34.6932H31.8433C31.8964 35.4735 32.1199 36.125 32.5138 36.6477C32.9153 37.1629 33.4494 37.553 34.1161 37.8182C34.7903 38.0758 35.5517 38.2045 36.4002 38.2045C37.2335 38.2045 37.957 38.0833 38.5706 37.8409C39.1918 37.5985 39.6729 37.2614 40.0138 36.8295C40.3547 36.3977 40.5252 35.9015 40.5252 35.3409C40.5252 34.8182 40.3699 34.3788 40.0593 34.0227C39.7562 33.6667 39.3093 33.3636 38.7183 33.1136C38.135 32.8636 37.4191 32.6364 36.5706 32.4318L34.0365 31.7955C32.0744 31.3182 30.5252 30.572 29.3888 29.5568C28.2524 28.5417 27.688 27.1742 27.6956 25.4545C27.688 24.0455 28.063 22.8144 28.8206 21.7614C29.5858 20.7083 30.635 19.8864 31.9683 19.2955C33.3017 18.7045 34.8168 18.4091 36.5138 18.4091C38.2411 18.4091 39.7486 18.7045 41.0365 19.2955C42.332 19.8864 43.3396 20.7083 44.0593 21.7614C44.779 22.8144 45.1502 24.0341 45.1729 25.4205H40.457ZM49.1121 37.9091V34.0341L58.828 18.7273H62.1689V24.0909H60.1916L54.0666 33.7841V33.9659H67.8735V37.9091H49.1121ZM60.2825 42V36.7273L60.3735 35.0114V18.7273H64.9871V42H60.2825ZM80.3723 18.4091C81.5693 18.4091 82.7208 18.6098 83.8269 19.0114C84.9405 19.4129 85.9329 20.053 86.8041 20.9318C87.6829 21.8106 88.3761 22.9773 88.8837 24.4318C89.3988 25.8788 89.6602 27.6553 89.6678 29.7614C89.6678 31.7386 89.4443 33.5038 88.9973 35.0568C88.5579 36.6023 87.9254 37.9167 87.0996 39C86.2738 40.0833 85.2776 40.9091 84.111 41.4773C82.9443 42.0379 81.6413 42.3182 80.2019 42.3182C78.6488 42.3182 77.2776 42.0189 76.0882 41.4205C74.8988 40.8144 73.9405 39.9924 73.2132 38.9545C72.4935 37.9091 72.0579 36.7348 71.9064 35.4318H76.7587C76.9481 36.2803 77.3458 36.9394 77.9519 37.4091C78.5579 37.8712 79.3079 38.1023 80.2019 38.1023C81.717 38.1023 82.8685 37.4432 83.6564 36.125C84.4443 34.7992 84.842 32.9848 84.8496 30.6818H84.6905C84.342 31.3636 83.8723 31.9508 83.2814 32.4432C82.6905 32.928 82.0125 33.303 81.2473 33.5682C80.4897 33.8333 79.6829 33.9659 78.8269 33.9659C77.4557 33.9659 76.2322 33.6439 75.1564 33C74.0807 32.3561 73.2322 31.4697 72.611 30.3409C71.9897 29.2121 71.6791 27.9242 71.6791 26.4773C71.6716 24.9167 72.0314 23.5265 72.7587 22.3068C73.486 21.0871 74.5011 20.1326 75.8041 19.4432C77.1147 18.7462 78.6375 18.4015 80.3723 18.4091ZM80.4064 22.2727C79.6413 22.2727 78.9594 22.4545 78.361 22.8182C77.77 23.1818 77.3004 23.6705 76.9519 24.2841C76.611 24.8977 76.4443 25.5833 76.4519 26.3409C76.4519 27.1061 76.6185 27.7955 76.9519 28.4091C77.2928 29.0152 77.7549 29.5 78.3382 29.8636C78.9291 30.2197 79.6034 30.3977 80.361 30.3977C80.9291 30.3977 81.4557 30.2917 81.9405 30.0795C82.4254 29.8674 82.8458 29.5758 83.2019 29.2045C83.5655 28.8258 83.8496 28.3902 84.0541 27.8977C84.2587 27.4053 84.361 26.8826 84.361 26.3295C84.3534 25.5947 84.1791 24.9205 83.8382 24.3068C83.4973 23.6932 83.0276 23.2008 82.4291 22.8295C81.8307 22.4583 81.1564 22.2727 80.4064 22.2727Z" fill="#001133"/>
<path d="M102 19.776H103.12V20.952H103.176C103.409 20.5133 103.713 20.182 104.086 19.958C104.459 19.7247 104.898 19.608 105.402 19.608C106.289 19.608 106.979 19.944 107.474 20.616C107.978 21.2787 108.23 22.2027 108.23 23.388C108.23 24.5733 107.978 25.502 107.474 26.174C106.979 26.8367 106.289 27.168 105.402 27.168C104.898 27.168 104.459 27.056 104.086 26.832C103.713 26.5987 103.409 26.2627 103.176 25.824H103.12V29.8H102V19.776ZM104.968 26.174C105.612 26.174 106.116 25.978 106.48 25.586C106.844 25.194 107.026 24.6667 107.026 24.004V22.772C107.026 22.1093 106.844 21.582 106.48 21.19C106.116 20.798 105.612 20.602 104.968 20.602C104.445 20.602 104.007 20.7327 103.652 20.994C103.297 21.2553 103.12 21.6193 103.12 22.086V24.69C103.12 25.1567 103.297 25.5207 103.652 25.782C104.007 26.0433 104.445 26.174 104.968 26.174ZM113.74 27.168C113.059 27.168 112.462 27.014 111.948 26.706C111.435 26.398 111.038 25.9593 110.758 25.39C110.488 24.8207 110.352 24.158 110.352 23.402C110.352 22.646 110.492 21.9833 110.772 21.414C111.052 20.8353 111.44 20.392 111.934 20.084C112.438 19.7667 113.017 19.608 113.67 19.608C114.305 19.608 114.865 19.762 115.35 20.07C115.836 20.3687 116.209 20.784 116.47 21.316C116.741 21.848 116.876 22.4547 116.876 23.136V23.668H111.528V24.004C111.528 24.648 111.729 25.1753 112.13 25.586C112.532 25.9967 113.068 26.202 113.74 26.202C114.216 26.202 114.632 26.0947 114.986 25.88C115.341 25.656 115.616 25.3433 115.812 24.942L116.638 25.502C116.414 26.006 116.046 26.412 115.532 26.72C115.028 27.0187 114.431 27.168 113.74 27.168ZM113.67 20.532C113.269 20.532 112.905 20.63 112.578 20.826C112.252 21.0127 111.995 21.274 111.808 21.61C111.622 21.946 111.528 22.3193 111.528 22.73V22.828H115.672V22.674C115.672 22.0393 115.486 21.526 115.112 21.134C114.748 20.7327 114.268 20.532 113.67 20.532ZM119.237 26.048H121.351V20.728H119.237V19.776H122.471V21.596H122.541C122.896 20.3827 123.708 19.776 124.977 19.776H125.985V20.896H124.627C123.946 20.896 123.414 21.0873 123.031 21.47C122.658 21.8527 122.471 22.338 122.471 22.926V26.048H125.271V27H119.237V26.048Z" fill="#001133"/>
<path d="M102.014 34.776H103.134V35.952H103.19C103.377 35.532 103.619 35.2053 103.918 34.972C104.217 34.7293 104.623 34.608 105.136 34.608C105.64 34.608 106.088 34.7293 106.48 34.972C106.872 35.2147 107.161 35.5833 107.348 36.078H107.376C107.525 35.6487 107.782 35.2987 108.146 35.028C108.519 34.748 108.995 34.608 109.574 34.608C110.311 34.608 110.885 34.8507 111.296 35.336C111.716 35.8213 111.926 36.498 111.926 37.366V42H110.806V37.562C110.806 36.918 110.675 36.4327 110.414 36.106C110.162 35.7793 109.765 35.616 109.224 35.616C108.748 35.616 108.347 35.7373 108.02 35.98C107.693 36.2133 107.53 36.5493 107.53 36.988V42H106.41V37.562C106.41 36.9087 106.284 36.4233 106.032 36.106C105.78 35.7793 105.388 35.616 104.856 35.616C104.38 35.616 103.974 35.7373 103.638 35.98C103.302 36.2133 103.134 36.5493 103.134 36.988V42H102.014V34.776ZM117.825 42.168C117.153 42.168 116.57 42.014 116.075 41.706C115.59 41.398 115.212 40.9593 114.941 40.39C114.68 39.8207 114.549 39.1533 114.549 38.388C114.549 37.6227 114.68 36.9553 114.941 36.386C115.212 35.8167 115.59 35.378 116.075 35.07C116.57 34.762 117.153 34.608 117.825 34.608C118.497 34.608 119.076 34.762 119.561 35.07C120.056 35.378 120.434 35.8167 120.695 36.386C120.966 36.9553 121.101 37.6227 121.101 38.388C121.101 39.1533 120.966 39.8207 120.695 40.39C120.434 40.9593 120.056 41.398 119.561 41.706C119.076 42.014 118.497 42.168 117.825 42.168ZM117.825 41.202C118.469 41.202 118.978 41.0107 119.351 40.628C119.725 40.236 119.911 39.662 119.911 38.906V37.87C119.911 37.114 119.725 36.5447 119.351 36.162C118.978 35.77 118.469 35.574 117.825 35.574C117.181 35.574 116.673 35.77 116.299 36.162C115.926 36.5447 115.739 37.114 115.739 37.87V38.906C115.739 39.662 115.926 40.236 116.299 40.628C116.673 41.0107 117.181 41.202 117.825 41.202ZM123.742 42V34.776H124.862V35.952H124.918C125.095 35.5413 125.343 35.2147 125.66 34.972C125.987 34.7293 126.425 34.608 126.976 34.608C127.741 34.608 128.348 34.8507 128.796 35.336C129.253 35.8213 129.482 36.498 129.482 37.366V42H128.362V37.562C128.362 36.9087 128.217 36.4187 127.928 36.092C127.639 35.7653 127.214 35.602 126.654 35.602C126.159 35.602 125.735 35.7233 125.38 35.966C125.035 36.1993 124.862 36.54 124.862 36.988V42H123.742ZM135.188 39.592C135.188 40.04 135.258 40.3713 135.398 40.586C135.538 40.7913 135.739 40.922 136 40.978C136.271 41.0247 136.672 41.048 137.204 41.048H138.086V42H137.218C136.481 42 135.888 41.9393 135.44 41.818C135.002 41.6873 134.661 41.4447 134.418 41.09C134.185 40.7353 134.068 40.2313 134.068 39.578V35.728H131.66V34.776H134.068V32.228H135.188V34.776H138.478V35.728H135.188V39.592ZM141.231 31.64H142.351V35.952H142.407C142.584 35.5413 142.832 35.2147 143.149 34.972C143.476 34.7293 143.914 34.608 144.465 34.608C145.23 34.608 145.837 34.8507 146.285 35.336C146.742 35.8213 146.971 36.498 146.971 37.366V42H145.851V37.562C145.851 36.9087 145.706 36.4187 145.417 36.092C145.128 35.7653 144.703 35.602 144.143 35.602C143.648 35.602 143.224 35.7233 142.869 35.966C142.524 36.1993 142.351 36.54 142.351 36.988V42H141.231V31.64Z" fill="#001133"/>
</svg>
