<svg width="170" height="60" viewBox="0 0 170 60" fill="none" xmlns="http://www.w3.org/2000/svg">
<path d="M46.7626 44.9091V15.8182H48.6262V44.9091H46.7626ZM51.7057 25.4205C51.6148 24.5038 51.2247 23.7917 50.5353 23.2841C49.8459 22.7765 48.9103 22.5227 47.7285 22.5227C46.9254 22.5227 46.2474 22.6364 45.6944 22.8636C45.1413 23.0833 44.7171 23.3902 44.4216 23.7841C44.1338 24.178 43.9898 24.625 43.9898 25.125C43.9747 25.5417 44.0618 25.9053 44.2512 26.2159C44.4482 26.5265 44.7171 26.7955 45.058 27.0227C45.3989 27.2424 45.7929 27.4356 46.2398 27.6023C46.6868 27.7614 47.1641 27.8977 47.6716 28.0114L49.7626 28.5114C50.7777 28.7386 51.7095 29.0417 52.558 29.4205C53.4065 29.7992 54.1413 30.2652 54.7626 30.8182C55.3838 31.3712 55.8648 32.0227 56.2057 32.7727C56.5542 33.5227 56.7323 34.3826 56.7398 35.3523C56.7323 36.7765 56.3686 38.0114 55.6489 39.0568C54.9368 40.0947 53.9065 40.9015 52.558 41.4773C51.2171 42.0455 49.5997 42.3295 47.7057 42.3295C45.8269 42.3295 44.1906 42.0417 42.7966 41.4659C41.4103 40.8902 40.3269 40.0379 39.5466 38.9091C38.7739 37.7727 38.3686 36.3674 38.3307 34.6932H43.0921C43.1451 35.4735 43.3686 36.125 43.7626 36.6477C44.1641 37.1629 44.6982 37.553 45.3648 37.8182C46.0391 38.0758 46.8004 38.2045 47.6489 38.2045C48.4823 38.2045 49.2057 38.0833 49.8194 37.8409C50.4406 37.5985 50.9216 37.2614 51.2626 36.8295C51.6035 36.3977 51.7739 35.9015 51.7739 35.3409C51.7739 34.8182 51.6186 34.3788 51.308 34.0227C51.005 33.6667 50.558 33.3636 49.9671 33.1136C49.3838 32.8636 48.6679 32.6364 47.8194 32.4318L45.2853 31.7955C43.3232 31.3182 41.7739 30.572 40.6376 29.5568C39.5012 28.5417 38.9368 27.1742 38.9444 25.4545C38.9368 24.0455 39.3118 22.8144 40.0694 21.7614C40.8345 20.7083 41.8838 19.8864 43.2171 19.2955C44.5504 18.7045 46.0656 18.4091 47.7626 18.4091C49.4898 18.4091 50.9974 18.7045 52.2853 19.2955C53.5807 19.8864 54.5883 20.7083 55.308 21.7614C56.0277 22.8144 56.3989 24.0341 56.4216 25.4205H51.7057ZM69.1336 18.4091C70.3305 18.4091 71.4821 18.6098 72.5881 19.0114C73.7018 19.4129 74.6942 20.053 75.5654 20.9318C76.4442 21.8106 77.1374 22.9773 77.6449 24.4318C78.1601 25.8788 78.4215 27.6553 78.429 29.7614C78.429 31.7386 78.2055 33.5038 77.7586 35.0568C77.3192 36.6023 76.6866 37.9167 75.8608 39C75.0351 40.0833 74.0389 40.9091 72.8722 41.4773C71.7055 42.0379 70.4025 42.3182 68.9631 42.3182C67.4101 42.3182 66.0389 42.0189 64.8495 41.4205C63.6601 40.8144 62.7018 39.9924 61.9745 38.9545C61.2548 37.9091 60.8192 36.7348 60.6677 35.4318H65.5199C65.7093 36.2803 66.1071 36.9394 66.7131 37.4091C67.3192 37.8712 68.0692 38.1023 68.9631 38.1023C70.4783 38.1023 71.6298 37.4432 72.4177 36.125C73.2055 34.7992 73.6033 32.9848 73.6108 30.6818H73.4518C73.1033 31.3636 72.6336 31.9508 72.0427 32.4432C71.4518 32.928 70.7737 33.303 70.0086 33.5682C69.251 33.8333 68.4442 33.9659 67.5881 33.9659C66.2169 33.9659 64.9934 33.6439 63.9177 33C62.8419 32.3561 61.9934 31.4697 61.3722 30.3409C60.751 29.2121 60.4404 27.9242 60.4404 26.4773C60.4328 24.9167 60.7927 23.5265 61.5199 22.3068C62.2472 21.0871 63.2624 20.1326 64.5654 19.4432C65.876 18.7462 67.3987 18.4015 69.1336 18.4091ZM69.1677 22.2727C68.4025 22.2727 67.7207 22.4545 67.1222 22.8182C66.5313 23.1818 66.0616 23.6705 65.7131 24.2841C65.3722 24.8977 65.2055 25.5833 65.2131 26.3409C65.2131 27.1061 65.3798 27.7955 65.7131 28.4091C66.054 29.0152 66.5162 29.5 67.0995 29.8636C67.6904 30.2197 68.3646 30.3977 69.1222 30.3977C69.6904 30.3977 70.2169 30.2917 70.7018 30.0795C71.1866 29.8674 71.6071 29.5758 71.9631 29.2045C72.3268 28.8258 72.6108 28.3902 72.8154 27.8977C73.0199 27.4053 73.1222 26.8826 73.1222 26.3295C73.1146 25.5947 72.9404 24.9205 72.5995 24.3068C72.2586 23.6932 71.7889 23.2008 71.1904 22.8295C70.5919 22.4583 69.9177 22.2727 69.1677 22.2727Z" fill="#001133"/>
<path d="M91.8349 19.776H92.9549V20.952H93.0109C93.2442 20.5133 93.5475 20.182 93.9209 19.958C94.2942 19.7247 94.7329 19.608 95.2369 19.608C96.1235 19.608 96.8142 19.944 97.3089 20.616C97.8129 21.2787 98.0649 22.2027 98.0649 23.388C98.0649 24.5733 97.8129 25.502 97.3089 26.174C96.8142 26.8367 96.1235 27.168 95.2369 27.168C94.7329 27.168 94.2942 27.056 93.9209 26.832C93.5475 26.5987 93.2442 26.2627 93.0109 25.824H92.9549V29.8H91.8349V19.776ZM94.8029 26.174C95.4469 26.174 95.9509 25.978 96.3149 25.586C96.6789 25.194 96.8609 24.6667 96.8609 24.004V22.772C96.8609 22.1093 96.6789 21.582 96.3149 21.19C95.9509 20.798 95.4469 20.602 94.8029 20.602C94.2802 20.602 93.8415 20.7327 93.4869 20.994C93.1322 21.2553 92.9549 21.6193 92.9549 22.086V24.69C92.9549 25.1567 93.1322 25.5207 93.4869 25.782C93.8415 26.0433 94.2802 26.174 94.8029 26.174ZM103.575 27.168C102.894 27.168 102.297 27.014 101.783 26.706C101.27 26.398 100.873 25.9593 100.593 25.39C100.323 24.8207 100.187 24.158 100.187 23.402C100.187 22.646 100.327 21.9833 100.607 21.414C100.887 20.8353 101.275 20.392 101.769 20.084C102.273 19.7667 102.852 19.608 103.505 19.608C104.14 19.608 104.7 19.762 105.185 20.07C105.671 20.3687 106.044 20.784 106.305 21.316C106.576 21.848 106.711 22.4547 106.711 23.136V23.668H101.363V24.004C101.363 24.648 101.564 25.1753 101.965 25.586C102.367 25.9967 102.903 26.202 103.575 26.202C104.051 26.202 104.467 26.0947 104.821 25.88C105.176 25.656 105.451 25.3433 105.647 24.942L106.473 25.502C106.249 26.006 105.881 26.412 105.367 26.72C104.863 27.0187 104.266 27.168 103.575 27.168ZM103.505 20.532C103.104 20.532 102.74 20.63 102.413 20.826C102.087 21.0127 101.83 21.274 101.643 21.61C101.457 21.946 101.363 22.3193 101.363 22.73V22.828H105.507V22.674C105.507 22.0393 105.321 21.526 104.947 21.134C104.583 20.7327 104.103 20.532 103.505 20.532ZM109.072 26.048H111.186V20.728H109.072V19.776H112.306V21.596H112.376C112.731 20.3827 113.543 19.776 114.812 19.776H115.82V20.896H114.462C113.781 20.896 113.249 21.0873 112.866 21.47C112.493 21.8527 112.306 22.338 112.306 22.926V26.048H115.106V27H109.072V26.048Z" fill="#001133"/>
<path d="M91.8489 34.776H92.9689V35.952H93.0249C93.2115 35.532 93.4542 35.2053 93.7529 34.972C94.0515 34.7293 94.4575 34.608 94.9709 34.608C95.4749 34.608 95.9229 34.7293 96.3149 34.972C96.7069 35.2147 96.9962 35.5833 97.1829 36.078H97.2109C97.3602 35.6487 97.6169 35.2987 97.9809 35.028C98.3542 34.748 98.8302 34.608 99.4089 34.608C100.146 34.608 100.72 34.8507 101.131 35.336C101.551 35.8213 101.761 36.498 101.761 37.366V42H100.641V37.562C100.641 36.918 100.51 36.4327 100.249 36.106C99.9969 35.7793 99.6002 35.616 99.0589 35.616C98.5829 35.616 98.1815 35.7373 97.8549 35.98C97.5282 36.2133 97.3649 36.5493 97.3649 36.988V42H96.2449V37.562C96.2449 36.9087 96.1189 36.4233 95.8669 36.106C95.6149 35.7793 95.2229 35.616 94.6909 35.616C94.2149 35.616 93.8089 35.7373 93.4729 35.98C93.1369 36.2133 92.9689 36.5493 92.9689 36.988V42H91.8489V34.776ZM107.66 42.168C106.988 42.168 106.405 42.014 105.91 41.706C105.425 41.398 105.047 40.9593 104.776 40.39C104.515 39.8207 104.384 39.1533 104.384 38.388C104.384 37.6227 104.515 36.9553 104.776 36.386C105.047 35.8167 105.425 35.378 105.91 35.07C106.405 34.762 106.988 34.608 107.66 34.608C108.332 34.608 108.911 34.762 109.396 35.07C109.891 35.378 110.269 35.8167 110.53 36.386C110.801 36.9553 110.936 37.6227 110.936 38.388C110.936 39.1533 110.801 39.8207 110.53 40.39C110.269 40.9593 109.891 41.398 109.396 41.706C108.911 42.014 108.332 42.168 107.66 42.168ZM107.66 41.202C108.304 41.202 108.813 41.0107 109.186 40.628C109.56 40.236 109.746 39.662 109.746 38.906V37.87C109.746 37.114 109.56 36.5447 109.186 36.162C108.813 35.77 108.304 35.574 107.66 35.574C107.016 35.574 106.508 35.77 106.134 36.162C105.761 36.5447 105.574 37.114 105.574 37.87V38.906C105.574 39.662 105.761 40.236 106.134 40.628C106.508 41.0107 107.016 41.202 107.66 41.202ZM113.577 42V34.776H114.697V35.952H114.753C114.93 35.5413 115.178 35.2147 115.495 34.972C115.822 34.7293 116.26 34.608 116.811 34.608C117.576 34.608 118.183 34.8507 118.631 35.336C119.088 35.8213 119.317 36.498 119.317 37.366V42H118.197V37.562C118.197 36.9087 118.052 36.4187 117.763 36.092C117.474 35.7653 117.049 35.602 116.489 35.602C115.994 35.602 115.57 35.7233 115.215 35.966C114.87 36.1993 114.697 36.54 114.697 36.988V42H113.577ZM125.023 39.592C125.023 40.04 125.093 40.3713 125.233 40.586C125.373 40.7913 125.574 40.922 125.835 40.978C126.106 41.0247 126.507 41.048 127.039 41.048H127.921V42H127.053C126.316 42 125.723 41.9393 125.275 41.818C124.837 41.6873 124.496 41.4447 124.253 41.09C124.02 40.7353 123.903 40.2313 123.903 39.578V35.728H121.495V34.776H123.903V32.228H125.023V34.776H128.313V35.728H125.023V39.592ZM131.066 31.64H132.186V35.952H132.242C132.419 35.5413 132.667 35.2147 132.984 34.972C133.311 34.7293 133.749 34.608 134.3 34.608C135.065 34.608 135.672 34.8507 136.12 35.336C136.577 35.8213 136.806 36.498 136.806 37.366V42H135.686V37.562C135.686 36.9087 135.541 36.4187 135.252 36.092C134.963 35.7653 134.538 35.602 133.978 35.602C133.483 35.602 133.059 35.7233 132.704 35.966C132.359 36.1993 132.186 36.54 132.186 36.988V42H131.066V31.64Z" fill="#001133"/>
</svg>
