<svg width="170" height="60" viewBox="0 0 170 60" fill="none" xmlns="http://www.w3.org/2000/svg">
<path d="M35.7952 44.9091V15.8182H37.6588V44.9091H35.7952ZM40.7384 25.4205C40.6474 24.5038 40.2573 23.7917 39.5679 23.2841C38.8785 22.7765 37.9429 22.5227 36.7611 22.5227C35.9581 22.5227 35.28 22.6364 34.727 22.8636C34.174 23.0833 33.7497 23.3902 33.4543 23.7841C33.1664 24.178 33.0224 24.625 33.0224 25.125C33.0073 25.5417 33.0944 25.9053 33.2838 26.2159C33.4808 26.5265 33.7497 26.7955 34.0906 27.0227C34.4315 27.2424 34.8255 27.4356 35.2724 27.6023C35.7194 27.7614 36.1967 27.8977 36.7043 28.0114L38.7952 28.5114C39.8103 28.7386 40.7421 29.0417 41.5906 29.4205C42.4391 29.7992 43.174 30.2652 43.7952 30.8182C44.4164 31.3712 44.8974 32.0227 45.2384 32.7727C45.5868 33.5227 45.7649 34.3826 45.7724 35.3523C45.7649 36.7765 45.4012 38.0114 44.6815 39.0568C43.9694 40.0947 42.9391 40.9015 41.5906 41.4773C40.2497 42.0455 38.6323 42.3295 36.7384 42.3295C34.8596 42.3295 33.2232 42.0417 31.8293 41.4659C30.4429 40.8902 29.3596 40.0379 28.5793 38.9091C27.8065 37.7727 27.4012 36.3674 27.3634 34.6932H32.1247C32.1777 35.4735 32.4012 36.125 32.7952 36.6477C33.1967 37.1629 33.7308 37.553 34.3974 37.8182C35.0717 38.0758 35.8331 38.2045 36.6815 38.2045C37.5149 38.2045 38.2384 38.0833 38.852 37.8409C39.4732 37.5985 39.9543 37.2614 40.2952 36.8295C40.6361 36.3977 40.8065 35.9015 40.8065 35.3409C40.8065 34.8182 40.6512 34.3788 40.3406 34.0227C40.0376 33.6667 39.5906 33.3636 38.9997 33.1136C38.4164 32.8636 37.7005 32.6364 36.852 32.4318L34.3179 31.7955C32.3558 31.3182 30.8065 30.572 29.6702 29.5568C28.5338 28.5417 27.9694 27.1742 27.977 25.4545C27.9694 24.0455 28.3444 22.8144 29.102 21.7614C29.8671 20.7083 30.9164 19.8864 32.2497 19.2955C33.5831 18.7045 35.0982 18.4091 36.7952 18.4091C38.5224 18.4091 40.03 18.7045 41.3179 19.2955C42.6134 19.8864 43.6209 20.7083 44.3406 21.7614C45.0603 22.8144 45.4315 24.0341 45.4543 25.4205H40.7384ZM58.1662 18.4091C59.3632 18.4091 60.5147 18.6098 61.6207 19.0114C62.7344 19.4129 63.7268 20.053 64.598 20.9318C65.4768 21.8106 66.17 22.9773 66.6776 24.4318C67.1927 25.8788 67.4541 27.6553 67.4616 29.7614C67.4616 31.7386 67.2382 33.5038 66.7912 35.0568C66.3518 36.6023 65.7192 37.9167 64.8935 39C64.0677 40.0833 63.0715 40.9091 61.9048 41.4773C60.7382 42.0379 59.4351 42.3182 57.9957 42.3182C56.4427 42.3182 55.0715 42.0189 53.8821 41.4205C52.6927 40.8144 51.7344 39.9924 51.0071 38.9545C50.2874 37.9091 49.8518 36.7348 49.7003 35.4318H54.5526C54.742 36.2803 55.1397 36.9394 55.7457 37.4091C56.3518 37.8712 57.1018 38.1023 57.9957 38.1023C59.5109 38.1023 60.6624 37.4432 61.4503 36.125C62.2382 34.7992 62.6359 32.9848 62.6435 30.6818H62.4844C62.1359 31.3636 61.6662 31.9508 61.0753 32.4432C60.4844 32.928 59.8063 33.303 59.0412 33.5682C58.2836 33.8333 57.4768 33.9659 56.6207 33.9659C55.2495 33.9659 54.026 33.6439 52.9503 33C51.8745 32.3561 51.026 31.4697 50.4048 30.3409C49.7836 29.2121 49.473 27.9242 49.473 26.4773C49.4654 24.9167 49.8253 23.5265 50.5526 22.3068C51.2798 21.0871 52.295 20.1326 53.598 19.4432C54.9086 18.7462 56.4313 18.4015 58.1662 18.4091ZM58.2003 22.2727C57.4351 22.2727 56.7533 22.4545 56.1548 22.8182C55.5639 23.1818 55.0942 23.6705 54.7457 24.2841C54.4048 24.8977 54.2382 25.5833 54.2457 26.3409C54.2457 27.1061 54.4124 27.7955 54.7457 28.4091C55.0866 29.0152 55.5488 29.5 56.1321 29.8636C56.723 30.2197 57.3973 30.3977 58.1548 30.3977C58.723 30.3977 59.2495 30.2917 59.7344 30.0795C60.2192 29.8674 60.6397 29.5758 60.9957 29.2045C61.3594 28.8258 61.6435 28.3902 61.848 27.8977C62.0526 27.4053 62.1548 26.8826 62.1548 26.3295C62.1473 25.5947 61.973 24.9205 61.6321 24.3068C61.2912 23.6932 60.8215 23.2008 60.223 22.8295C59.6245 22.4583 58.9503 22.2727 58.2003 22.2727ZM80.0912 18.4091C81.2882 18.4091 82.4397 18.6098 83.5457 19.0114C84.6594 19.4129 85.6518 20.053 86.523 20.9318C87.4018 21.8106 88.095 22.9773 88.6026 24.4318C89.1177 25.8788 89.3791 27.6553 89.3866 29.7614C89.3866 31.7386 89.1632 33.5038 88.7162 35.0568C88.2768 36.6023 87.6442 37.9167 86.8185 39C85.9927 40.0833 84.9965 40.9091 83.8298 41.4773C82.6632 42.0379 81.3601 42.3182 79.9207 42.3182C78.3677 42.3182 76.9965 42.0189 75.8071 41.4205C74.6177 40.8144 73.6594 39.9924 72.9321 38.9545C72.2124 37.9091 71.7768 36.7348 71.6253 35.4318H76.4776C76.667 36.2803 77.0647 36.9394 77.6707 37.4091C78.2768 37.8712 79.0268 38.1023 79.9207 38.1023C81.4359 38.1023 82.5874 37.4432 83.3753 36.125C84.1632 34.7992 84.5609 32.9848 84.5685 30.6818H84.4094C84.0609 31.3636 83.5912 31.9508 83.0003 32.4432C82.4094 32.928 81.7313 33.303 80.9662 33.5682C80.2086 33.8333 79.4018 33.9659 78.5457 33.9659C77.1745 33.9659 75.951 33.6439 74.8753 33C73.7995 32.3561 72.951 31.4697 72.3298 30.3409C71.7086 29.2121 71.398 27.9242 71.398 26.4773C71.3904 24.9167 71.7503 23.5265 72.4776 22.3068C73.2048 21.0871 74.22 20.1326 75.523 19.4432C76.8336 18.7462 78.3563 18.4015 80.0912 18.4091ZM80.1253 22.2727C79.3601 22.2727 78.6783 22.4545 78.0798 22.8182C77.4889 23.1818 77.0192 23.6705 76.6707 24.2841C76.3298 24.8977 76.1632 25.5833 76.1707 26.3409C76.1707 27.1061 76.3374 27.7955 76.6707 28.4091C77.0116 29.0152 77.4738 29.5 78.0571 29.8636C78.648 30.2197 79.3223 30.3977 80.0798 30.3977C80.648 30.3977 81.1745 30.2917 81.6594 30.0795C82.1442 29.8674 82.5647 29.5758 82.9207 29.2045C83.2844 28.8258 83.5685 28.3902 83.773 27.8977C83.9776 27.4053 84.0798 26.8826 84.0798 26.3295C84.0723 25.5947 83.898 24.9205 83.5571 24.3068C83.2162 23.6932 82.7465 23.2008 82.148 22.8295C81.5495 22.4583 80.8753 22.2727 80.1253 22.2727Z" fill="#001133"/>
<path d="M102 19.776H103.12V20.952H103.176C103.409 20.5133 103.713 20.182 104.086 19.958C104.459 19.7247 104.898 19.608 105.402 19.608C106.289 19.608 106.979 19.944 107.474 20.616C107.978 21.2787 108.23 22.2027 108.23 23.388C108.23 24.5733 107.978 25.502 107.474 26.174C106.979 26.8367 106.289 27.168 105.402 27.168C104.898 27.168 104.459 27.056 104.086 26.832C103.713 26.5987 103.409 26.2627 103.176 25.824H103.12V29.8H102V19.776ZM104.968 26.174C105.612 26.174 106.116 25.978 106.48 25.586C106.844 25.194 107.026 24.6667 107.026 24.004V22.772C107.026 22.1093 106.844 21.582 106.48 21.19C106.116 20.798 105.612 20.602 104.968 20.602C104.445 20.602 104.007 20.7327 103.652 20.994C103.297 21.2553 103.12 21.6193 103.12 22.086V24.69C103.12 25.1567 103.297 25.5207 103.652 25.782C104.007 26.0433 104.445 26.174 104.968 26.174ZM113.741 27.168C113.059 27.168 112.462 27.014 111.949 26.706C111.435 26.398 111.039 25.9593 110.759 25.39C110.488 24.8207 110.353 24.158 110.353 23.402C110.353 22.646 110.493 21.9833 110.773 21.414C111.053 20.8353 111.44 20.392 111.935 20.084C112.439 19.7667 113.017 19.608 113.671 19.608C114.305 19.608 114.865 19.762 115.351 20.07C115.836 20.3687 116.209 20.784 116.471 21.316C116.741 21.848 116.877 22.4547 116.877 23.136V23.668H111.529V24.004C111.529 24.648 111.729 25.1753 112.131 25.586C112.532 25.9967 113.069 26.202 113.741 26.202C114.217 26.202 114.632 26.0947 114.987 25.88C115.341 25.656 115.617 25.3433 115.813 24.942L116.639 25.502C116.415 26.006 116.046 26.412 115.533 26.72C115.029 27.0187 114.431 27.168 113.741 27.168ZM113.671 20.532C113.269 20.532 112.905 20.63 112.579 20.826C112.252 21.0127 111.995 21.274 111.809 21.61C111.622 21.946 111.529 22.3193 111.529 22.73V22.828H115.673V22.674C115.673 22.0393 115.486 21.526 115.113 21.134C114.749 20.7327 114.268 20.532 113.671 20.532ZM119.237 26.048H121.351V20.728H119.237V19.776H122.471V21.596H122.541C122.896 20.3827 123.708 19.776 124.977 19.776H125.985V20.896H124.627C123.946 20.896 123.414 21.0873 123.031 21.47C122.658 21.8527 122.471 22.338 122.471 22.926V26.048H125.271V27H119.237V26.048Z" fill="#001133"/>
<path d="M102.014 34.776H103.134V35.952H103.19C103.377 35.532 103.619 35.2053 103.918 34.972C104.217 34.7293 104.623 34.608 105.136 34.608C105.64 34.608 106.088 34.7293 106.48 34.972C106.872 35.2147 107.161 35.5833 107.348 36.078H107.376C107.525 35.6487 107.782 35.2987 108.146 35.028C108.519 34.748 108.995 34.608 109.574 34.608C110.311 34.608 110.885 34.8507 111.296 35.336C111.716 35.8213 111.926 36.498 111.926 37.366V42H110.806V37.562C110.806 36.918 110.675 36.4327 110.414 36.106C110.162 35.7793 109.765 35.616 109.224 35.616C108.748 35.616 108.347 35.7373 108.02 35.98C107.693 36.2133 107.53 36.5493 107.53 36.988V42H106.41V37.562C106.41 36.9087 106.284 36.4233 106.032 36.106C105.78 35.7793 105.388 35.616 104.856 35.616C104.38 35.616 103.974 35.7373 103.638 35.98C103.302 36.2133 103.134 36.5493 103.134 36.988V42H102.014V34.776ZM117.826 42.168C117.154 42.168 116.57 42.014 116.076 41.706C115.59 41.398 115.212 40.9593 114.942 40.39C114.68 39.8207 114.55 39.1533 114.55 38.388C114.55 37.6227 114.68 36.9553 114.942 36.386C115.212 35.8167 115.59 35.378 116.076 35.07C116.57 34.762 117.154 34.608 117.826 34.608C118.498 34.608 119.076 34.762 119.562 35.07C120.056 35.378 120.434 35.8167 120.696 36.386C120.966 36.9553 121.102 37.6227 121.102 38.388C121.102 39.1533 120.966 39.8207 120.696 40.39C120.434 40.9593 120.056 41.398 119.562 41.706C119.076 42.014 118.498 42.168 117.826 42.168ZM117.826 41.202C118.47 41.202 118.978 41.0107 119.352 40.628C119.725 40.236 119.912 39.662 119.912 38.906V37.87C119.912 37.114 119.725 36.5447 119.352 36.162C118.978 35.77 118.47 35.574 117.826 35.574C117.182 35.574 116.673 35.77 116.3 36.162C115.926 36.5447 115.74 37.114 115.74 37.87V38.906C115.74 39.662 115.926 40.236 116.3 40.628C116.673 41.0107 117.182 41.202 117.826 41.202ZM123.742 42V34.776H124.862V35.952H124.918C125.095 35.5413 125.343 35.2147 125.66 34.972C125.987 34.7293 126.425 34.608 126.976 34.608C127.741 34.608 128.348 34.8507 128.796 35.336C129.253 35.8213 129.482 36.498 129.482 37.366V42H128.362V37.562C128.362 36.9087 128.217 36.4187 127.928 36.092C127.639 35.7653 127.214 35.602 126.654 35.602C126.159 35.602 125.735 35.7233 125.38 35.966C125.035 36.1993 124.862 36.54 124.862 36.988V42H123.742ZM135.189 39.592C135.189 40.04 135.259 40.3713 135.399 40.586C135.539 40.7913 135.739 40.922 136.001 40.978C136.271 41.0247 136.673 41.048 137.205 41.048H138.087V42H137.219C136.481 42 135.889 41.9393 135.441 41.818C135.002 41.6873 134.661 41.4447 134.419 41.09C134.185 40.7353 134.069 40.2313 134.069 39.578V35.728H131.661V34.776H134.069V32.228H135.189V34.776H138.479V35.728H135.189V39.592ZM141.231 31.64H142.351V35.952H142.407C142.584 35.5413 142.832 35.2147 143.149 34.972C143.476 34.7293 143.914 34.608 144.465 34.608C145.23 34.608 145.837 34.8507 146.285 35.336C146.742 35.8213 146.971 36.498 146.971 37.366V42H145.851V37.562C145.851 36.9087 145.706 36.4187 145.417 36.092C145.128 35.7653 144.703 35.602 144.143 35.602C143.648 35.602 143.224 35.7233 142.869 35.966C142.524 36.1993 142.351 36.54 142.351 36.988V42H141.231V31.64Z" fill="#001133"/>
</svg>
