<svg width="170" height="60" viewBox="0 0 170 60" fill="none" xmlns="http://www.w3.org/2000/svg">
<path d="M27.7321 44.9091V15.8182H29.5957V44.9091H27.7321ZM32.6753 25.4205C32.5844 24.5038 32.1942 23.7917 31.5048 23.2841C30.8154 22.7765 29.8798 22.5227 28.698 22.5227C27.895 22.5227 27.2169 22.6364 26.6639 22.8636C26.1109 23.0833 25.6866 23.3902 25.3912 23.7841C25.1033 24.178 24.9594 24.625 24.9594 25.125C24.9442 25.5417 25.0313 25.9053 25.2207 26.2159C25.4177 26.5265 25.6866 26.7955 26.0275 27.0227C26.3684 27.2424 26.7624 27.4356 27.2094 27.6023C27.6563 27.7614 28.1336 27.8977 28.6412 28.0114L30.7321 28.5114C31.7472 28.7386 32.6791 29.0417 33.5275 29.4205C34.376 29.7992 35.1109 30.2652 35.7321 30.8182C36.3533 31.3712 36.8344 32.0227 37.1753 32.7727C37.5238 33.5227 37.7018 34.3826 37.7094 35.3523C37.7018 36.7765 37.3381 38.0114 36.6184 39.0568C35.9063 40.0947 34.876 40.9015 33.5275 41.4773C32.1866 42.0455 30.5692 42.3295 28.6753 42.3295C26.7965 42.3295 25.1601 42.0417 23.7662 41.4659C22.3798 40.8902 21.2965 40.0379 20.5162 38.9091C19.7434 37.7727 19.3381 36.3674 19.3003 34.6932H24.0616C24.1147 35.4735 24.3381 36.125 24.7321 36.6477C25.1336 37.1629 25.6677 37.553 26.3344 37.8182C27.0086 38.0758 27.77 38.2045 28.6184 38.2045C29.4518 38.2045 30.1753 38.0833 30.7889 37.8409C31.4101 37.5985 31.8912 37.2614 32.2321 36.8295C32.573 36.3977 32.7434 35.9015 32.7434 35.3409C32.7434 34.8182 32.5881 34.3788 32.2775 34.0227C31.9745 33.6667 31.5275 33.3636 30.9366 33.1136C30.3533 32.8636 29.6374 32.6364 28.7889 32.4318L26.2548 31.7955C24.2927 31.3182 22.7434 30.572 21.6071 29.5568C20.4707 28.5417 19.9063 27.1742 19.9139 25.4545C19.9063 24.0455 20.2813 22.8144 21.0389 21.7614C21.8041 20.7083 22.8533 19.8864 24.1866 19.2955C25.52 18.7045 27.0351 18.4091 28.7321 18.4091C30.4594 18.4091 31.9669 18.7045 33.2548 19.2955C34.5503 19.8864 35.5578 20.7083 36.2775 21.7614C36.9972 22.8144 37.3684 24.0341 37.3912 25.4205H32.6753ZM51.8077 18.7273V42H46.8872V23.3977H46.7508L41.4213 26.7386V22.375L47.1827 18.7273H51.8077ZM66.5594 18.4091C67.7563 18.4091 68.9078 18.6098 70.0139 19.0114C71.1275 19.4129 72.12 20.053 72.9912 20.9318C73.87 21.8106 74.5631 22.9773 75.0707 24.4318C75.5859 25.8788 75.8472 27.6553 75.8548 29.7614C75.8548 31.7386 75.6313 33.5038 75.1844 35.0568C74.745 36.6023 74.1124 37.9167 73.2866 39C72.4609 40.0833 71.4647 40.9091 70.298 41.4773C69.1313 42.0379 67.8283 42.3182 66.3889 42.3182C64.8359 42.3182 63.4647 42.0189 62.2753 41.4205C61.0859 40.8144 60.1275 39.9924 59.4003 38.9545C58.6806 37.9091 58.245 36.7348 58.0934 35.4318H62.9457C63.1351 36.2803 63.5328 36.9394 64.1389 37.4091C64.745 37.8712 65.495 38.1023 66.3889 38.1023C67.9041 38.1023 69.0556 37.4432 69.8434 36.125C70.6313 34.7992 71.0291 32.9848 71.0366 30.6818H70.8775C70.5291 31.3636 70.0594 31.9508 69.4684 32.4432C68.8775 32.928 68.1995 33.303 67.4344 33.5682C66.6768 33.8333 65.87 33.9659 65.0139 33.9659C63.6427 33.9659 62.4192 33.6439 61.3434 33C60.2677 32.3561 59.4192 31.4697 58.798 30.3409C58.1768 29.2121 57.8662 27.9242 57.8662 26.4773C57.8586 24.9167 58.2184 23.5265 58.9457 22.3068C59.673 21.0871 60.6881 20.1326 61.9912 19.4432C63.3018 18.7462 64.8245 18.4015 66.5594 18.4091ZM66.5934 22.2727C65.8283 22.2727 65.1465 22.4545 64.548 22.8182C63.9571 23.1818 63.4874 23.6705 63.1389 24.2841C62.798 24.8977 62.6313 25.5833 62.6389 26.3409C62.6389 27.1061 62.8056 27.7955 63.1389 28.4091C63.4798 29.0152 63.9419 29.5 64.5253 29.8636C65.1162 30.2197 65.7904 30.3977 66.548 30.3977C67.1162 30.3977 67.6427 30.2917 68.1275 30.0795C68.6124 29.8674 69.0328 29.5758 69.3889 29.2045C69.7525 28.8258 70.0366 28.3902 70.2412 27.8977C70.4457 27.4053 70.548 26.8826 70.548 26.3295C70.5404 25.5947 70.3662 24.9205 70.0253 24.3068C69.6844 23.6932 69.2147 23.2008 68.6162 22.8295C68.0177 22.4583 67.3434 22.2727 66.5934 22.2727ZM88.4844 18.4091C89.6813 18.4091 90.8328 18.6098 91.9389 19.0114C93.0525 19.4129 94.045 20.053 94.9162 20.9318C95.795 21.8106 96.4881 22.9773 96.9957 24.4318C97.5109 25.8788 97.7722 27.6553 97.7798 29.7614C97.7798 31.7386 97.5563 33.5038 97.1094 35.0568C96.67 36.6023 96.0374 37.9167 95.2116 39C94.3859 40.0833 93.3897 40.9091 92.223 41.4773C91.0563 42.0379 89.7533 42.3182 88.3139 42.3182C86.7609 42.3182 85.3897 42.0189 84.2003 41.4205C83.0109 40.8144 82.0525 39.9924 81.3253 38.9545C80.6056 37.9091 80.17 36.7348 80.0184 35.4318H84.8707C85.0601 36.2803 85.4578 36.9394 86.0639 37.4091C86.67 37.8712 87.42 38.1023 88.3139 38.1023C89.8291 38.1023 90.9806 37.4432 91.7684 36.125C92.5563 34.7992 92.9541 32.9848 92.9616 30.6818H92.8025C92.4541 31.3636 91.9844 31.9508 91.3934 32.4432C90.8025 32.928 90.1245 33.303 89.3594 33.5682C88.6018 33.8333 87.795 33.9659 86.9389 33.9659C85.5677 33.9659 84.3442 33.6439 83.2684 33C82.1927 32.3561 81.3442 31.4697 80.723 30.3409C80.1018 29.2121 79.7912 27.9242 79.7912 26.4773C79.7836 24.9167 80.1434 23.5265 80.8707 22.3068C81.598 21.0871 82.6131 20.1326 83.9162 19.4432C85.2268 18.7462 86.7495 18.4015 88.4844 18.4091ZM88.5184 22.2727C87.7533 22.2727 87.0715 22.4545 86.473 22.8182C85.8821 23.1818 85.4124 23.6705 85.0639 24.2841C84.723 24.8977 84.5563 25.5833 84.5639 26.3409C84.5639 27.1061 84.7306 27.7955 85.0639 28.4091C85.4048 29.0152 85.8669 29.5 86.4503 29.8636C87.0412 30.2197 87.7154 30.3977 88.473 30.3977C89.0412 30.3977 89.5677 30.2917 90.0525 30.0795C90.5374 29.8674 90.9578 29.5758 91.3139 29.2045C91.6775 28.8258 91.9616 28.3902 92.1662 27.8977C92.3707 27.4053 92.473 26.8826 92.473 26.3295C92.4654 25.5947 92.2912 24.9205 91.9503 24.3068C91.6094 23.6932 91.1397 23.2008 90.5412 22.8295C89.9427 22.4583 89.2684 22.2727 88.5184 22.2727Z" fill="#001133"/>
<path d="M109 19.776H110.12V20.952H110.176C110.409 20.5133 110.713 20.182 111.086 19.958C111.459 19.7247 111.898 19.608 112.402 19.608C113.289 19.608 113.979 19.944 114.474 20.616C114.978 21.2787 115.23 22.2027 115.23 23.388C115.23 24.5733 114.978 25.502 114.474 26.174C113.979 26.8367 113.289 27.168 112.402 27.168C111.898 27.168 111.459 27.056 111.086 26.832C110.713 26.5987 110.409 26.2627 110.176 25.824H110.12V29.8H109V19.776ZM111.968 26.174C112.612 26.174 113.116 25.978 113.48 25.586C113.844 25.194 114.026 24.6667 114.026 24.004V22.772C114.026 22.1093 113.844 21.582 113.48 21.19C113.116 20.798 112.612 20.602 111.968 20.602C111.445 20.602 111.007 20.7327 110.652 20.994C110.297 21.2553 110.12 21.6193 110.12 22.086V24.69C110.12 25.1567 110.297 25.5207 110.652 25.782C111.007 26.0433 111.445 26.174 111.968 26.174ZM120.741 27.168C120.059 27.168 119.462 27.014 118.949 26.706C118.435 26.398 118.039 25.9593 117.759 25.39C117.488 24.8207 117.353 24.158 117.353 23.402C117.353 22.646 117.493 21.9833 117.773 21.414C118.053 20.8353 118.44 20.392 118.935 20.084C119.439 19.7667 120.017 19.608 120.671 19.608C121.305 19.608 121.865 19.762 122.351 20.07C122.836 20.3687 123.209 20.784 123.471 21.316C123.741 21.848 123.877 22.4547 123.877 23.136V23.668H118.529V24.004C118.529 24.648 118.729 25.1753 119.131 25.586C119.532 25.9967 120.069 26.202 120.741 26.202C121.217 26.202 121.632 26.0947 121.987 25.88C122.341 25.656 122.617 25.3433 122.813 24.942L123.639 25.502C123.415 26.006 123.046 26.412 122.533 26.72C122.029 27.0187 121.431 27.168 120.741 27.168ZM120.671 20.532C120.269 20.532 119.905 20.63 119.579 20.826C119.252 21.0127 118.995 21.274 118.809 21.61C118.622 21.946 118.529 22.3193 118.529 22.73V22.828H122.673V22.674C122.673 22.0393 122.486 21.526 122.113 21.134C121.749 20.7327 121.268 20.532 120.671 20.532ZM126.237 26.048H128.351V20.728H126.237V19.776H129.471V21.596H129.541C129.896 20.3827 130.708 19.776 131.977 19.776H132.985V20.896H131.627C130.946 20.896 130.414 21.0873 130.031 21.47C129.658 21.8527 129.471 22.338 129.471 22.926V26.048H132.271V27H126.237V26.048Z" fill="#001133"/>
<path d="M109.014 34.776H110.134V35.952H110.19C110.377 35.532 110.619 35.2053 110.918 34.972C111.217 34.7293 111.623 34.608 112.136 34.608C112.64 34.608 113.088 34.7293 113.48 34.972C113.872 35.2147 114.161 35.5833 114.348 36.078H114.376C114.525 35.6487 114.782 35.2987 115.146 35.028C115.519 34.748 115.995 34.608 116.574 34.608C117.311 34.608 117.885 34.8507 118.296 35.336C118.716 35.8213 118.926 36.498 118.926 37.366V42H117.806V37.562C117.806 36.918 117.675 36.4327 117.414 36.106C117.162 35.7793 116.765 35.616 116.224 35.616C115.748 35.616 115.347 35.7373 115.02 35.98C114.693 36.2133 114.53 36.5493 114.53 36.988V42H113.41V37.562C113.41 36.9087 113.284 36.4233 113.032 36.106C112.78 35.7793 112.388 35.616 111.856 35.616C111.38 35.616 110.974 35.7373 110.638 35.98C110.302 36.2133 110.134 36.5493 110.134 36.988V42H109.014V34.776ZM124.826 42.168C124.154 42.168 123.57 42.014 123.076 41.706C122.59 41.398 122.212 40.9593 121.942 40.39C121.68 39.8207 121.55 39.1533 121.55 38.388C121.55 37.6227 121.68 36.9553 121.942 36.386C122.212 35.8167 122.59 35.378 123.076 35.07C123.57 34.762 124.154 34.608 124.826 34.608C125.498 34.608 126.076 34.762 126.562 35.07C127.056 35.378 127.434 35.8167 127.696 36.386C127.966 36.9553 128.102 37.6227 128.102 38.388C128.102 39.1533 127.966 39.8207 127.696 40.39C127.434 40.9593 127.056 41.398 126.562 41.706C126.076 42.014 125.498 42.168 124.826 42.168ZM124.826 41.202C125.47 41.202 125.978 41.0107 126.352 40.628C126.725 40.236 126.912 39.662 126.912 38.906V37.87C126.912 37.114 126.725 36.5447 126.352 36.162C125.978 35.77 125.47 35.574 124.826 35.574C124.182 35.574 123.673 35.77 123.3 36.162C122.926 36.5447 122.74 37.114 122.74 37.87V38.906C122.74 39.662 122.926 40.236 123.3 40.628C123.673 41.0107 124.182 41.202 124.826 41.202ZM130.742 42V34.776H131.862V35.952H131.918C132.095 35.5413 132.343 35.2147 132.66 34.972C132.987 34.7293 133.425 34.608 133.976 34.608C134.741 34.608 135.348 34.8507 135.796 35.336C136.253 35.8213 136.482 36.498 136.482 37.366V42H135.362V37.562C135.362 36.9087 135.217 36.4187 134.928 36.092C134.639 35.7653 134.214 35.602 133.654 35.602C133.159 35.602 132.735 35.7233 132.38 35.966C132.035 36.1993 131.862 36.54 131.862 36.988V42H130.742ZM142.189 39.592C142.189 40.04 142.259 40.3713 142.399 40.586C142.539 40.7913 142.739 40.922 143.001 40.978C143.271 41.0247 143.673 41.048 144.205 41.048H145.087V42H144.219C143.481 42 142.889 41.9393 142.441 41.818C142.002 41.6873 141.661 41.4447 141.419 41.09C141.185 40.7353 141.069 40.2313 141.069 39.578V35.728H138.661V34.776H141.069V32.228H142.189V34.776H145.479V35.728H142.189V39.592ZM148.231 31.64H149.351V35.952H149.407C149.584 35.5413 149.832 35.2147 150.149 34.972C150.476 34.7293 150.914 34.608 151.465 34.608C152.23 34.608 152.837 34.8507 153.285 35.336C153.742 35.8213 153.971 36.498 153.971 37.366V42H152.851V37.562C152.851 36.9087 152.706 36.4187 152.417 36.092C152.128 35.7653 151.703 35.602 151.143 35.602C150.648 35.602 150.224 35.7233 149.869 35.966C149.524 36.1993 149.351 36.54 149.351 36.988V42H148.231V31.64Z" fill="#001133"/>
</svg>
