<svg width="170" height="60" viewBox="0 0 170 60" fill="none" xmlns="http://www.w3.org/2000/svg">
<path d="M24.7165 44.9091V15.8182H26.5801V44.9091H24.7165ZM29.6596 25.4205C29.5687 24.5038 29.1786 23.7917 28.4892 23.2841C27.7998 22.7765 26.8642 22.5227 25.6824 22.5227C24.8793 22.5227 24.2013 22.6364 23.6483 22.8636C23.0952 23.0833 22.671 23.3902 22.3755 23.7841C22.0877 24.178 21.9437 24.625 21.9437 25.125C21.9286 25.5417 22.0157 25.9053 22.2051 26.2159C22.4021 26.5265 22.671 26.7955 23.0119 27.0227C23.3528 27.2424 23.7468 27.4356 24.1937 27.6023C24.6407 27.7614 25.118 27.8977 25.6256 28.0114L27.7165 28.5114C28.7316 28.7386 29.6634 29.0417 30.5119 29.4205C31.3604 29.7992 32.0952 30.2652 32.7165 30.8182C33.3377 31.3712 33.8187 32.0227 34.1596 32.7727C34.5081 33.5227 34.6862 34.3826 34.6937 35.3523C34.6862 36.7765 34.3225 38.0114 33.6028 39.0568C32.8907 40.0947 31.8604 40.9015 30.5119 41.4773C29.171 42.0455 27.5536 42.3295 25.6596 42.3295C23.7809 42.3295 22.1445 42.0417 20.7505 41.4659C19.3642 40.8902 18.2809 40.0379 17.5005 38.9091C16.7278 37.7727 16.3225 36.3674 16.2846 34.6932H21.046C21.099 35.4735 21.3225 36.125 21.7165 36.6477C22.118 37.1629 22.6521 37.553 23.3187 37.8182C23.993 38.0758 24.7543 38.2045 25.6028 38.2045C26.4362 38.2045 27.1596 38.0833 27.7733 37.8409C28.3945 37.5985 28.8755 37.2614 29.2165 36.8295C29.5574 36.3977 29.7278 35.9015 29.7278 35.3409C29.7278 34.8182 29.5725 34.3788 29.2619 34.0227C28.9589 33.6667 28.5119 33.3636 27.921 33.1136C27.3377 32.8636 26.6218 32.6364 25.7733 32.4318L23.2392 31.7955C21.2771 31.3182 19.7278 30.572 18.5915 29.5568C17.4551 28.5417 16.8907 27.1742 16.8983 25.4545C16.8907 24.0455 17.2657 22.8144 18.0233 21.7614C18.7884 20.7083 19.8377 19.8864 21.171 19.2955C22.5043 18.7045 24.0195 18.4091 25.7165 18.4091C27.4437 18.4091 28.9513 18.7045 30.2392 19.2955C31.5346 19.8864 32.5422 20.7083 33.2619 21.7614C33.9816 22.8144 34.3528 24.0341 34.3755 25.4205H29.6596ZM38.3148 37.9091V34.0341L48.0307 18.7273H51.3716V24.0909H49.3943L43.2693 33.7841V33.9659H57.0761V37.9091H38.3148ZM49.4852 42V36.7273L49.5761 35.0114V18.7273H54.1898V42H49.4852ZM69.575 18.4091C70.772 18.4091 71.9235 18.6098 73.0295 19.0114C74.1432 19.4129 75.1356 20.053 76.0068 20.9318C76.8856 21.8106 77.5788 22.9773 78.0863 24.4318C78.6015 25.8788 78.8629 27.6553 78.8704 29.7614C78.8704 31.7386 78.647 33.5038 78.2 35.0568C77.7606 36.6023 77.128 37.9167 76.3023 39C75.4765 40.0833 74.4803 40.9091 73.3136 41.4773C72.147 42.0379 70.8439 42.3182 69.4045 42.3182C67.8515 42.3182 66.4803 42.0189 65.2909 41.4205C64.1015 40.8144 63.1432 39.9924 62.4159 38.9545C61.6962 37.9091 61.2606 36.7348 61.1091 35.4318H65.9613C66.1507 36.2803 66.5485 36.9394 67.1545 37.4091C67.7606 37.8712 68.5106 38.1023 69.4045 38.1023C70.9197 38.1023 72.0712 37.4432 72.8591 36.125C73.647 34.7992 74.0447 32.9848 74.0523 30.6818H73.8932C73.5447 31.3636 73.075 31.9508 72.4841 32.4432C71.8932 32.928 71.2151 33.303 70.45 33.5682C69.6924 33.8333 68.8856 33.9659 68.0295 33.9659C66.6583 33.9659 65.4348 33.6439 64.3591 33C63.2833 32.3561 62.4348 31.4697 61.8136 30.3409C61.1924 29.2121 60.8818 27.9242 60.8818 26.4773C60.8742 24.9167 61.2341 23.5265 61.9613 22.3068C62.6886 21.0871 63.7038 20.1326 65.0068 19.4432C66.3174 18.7462 67.8401 18.4015 69.575 18.4091ZM69.6091 22.2727C68.8439 22.2727 68.1621 22.4545 67.5636 22.8182C66.9727 23.1818 66.503 23.6705 66.1545 24.2841C65.8136 24.8977 65.6469 25.5833 65.6545 26.3409C65.6545 27.1061 65.8212 27.7955 66.1545 28.4091C66.4954 29.0152 66.9576 29.5 67.5409 29.8636C68.1318 30.2197 68.806 30.3977 69.5636 30.3977C70.1318 30.3977 70.6583 30.2917 71.1432 30.0795C71.628 29.8674 72.0485 29.5758 72.4045 29.2045C72.7682 28.8258 73.0523 28.3902 73.2568 27.8977C73.4613 27.4053 73.5636 26.8826 73.5636 26.3295C73.556 25.5947 73.3818 24.9205 73.0409 24.3068C72.7 23.6932 72.2303 23.2008 71.6318 22.8295C71.0333 22.4583 70.3591 22.2727 69.6091 22.2727ZM91.5 18.4091C92.6969 18.4091 93.8485 18.6098 94.9545 19.0114C96.0682 19.4129 97.0606 20.053 97.9318 20.9318C98.8106 21.8106 99.5038 22.9773 100.011 24.4318C100.526 25.8788 100.788 27.6553 100.795 29.7614C100.795 31.7386 100.572 33.5038 100.125 35.0568C99.6856 36.6023 99.053 37.9167 98.2273 39C97.4015 40.0833 96.4053 40.9091 95.2386 41.4773C94.0719 42.0379 92.7689 42.3182 91.3295 42.3182C89.7765 42.3182 88.4053 42.0189 87.2159 41.4205C86.0265 40.8144 85.0682 39.9924 84.3409 38.9545C83.6212 37.9091 83.1856 36.7348 83.0341 35.4318H87.8863C88.0757 36.2803 88.4735 36.9394 89.0795 37.4091C89.6856 37.8712 90.4356 38.1023 91.3295 38.1023C92.8447 38.1023 93.9962 37.4432 94.7841 36.125C95.5719 34.7992 95.9697 32.9848 95.9773 30.6818H95.8182C95.4697 31.3636 95 31.9508 94.4091 32.4432C93.8182 32.928 93.1401 33.303 92.375 33.5682C91.6174 33.8333 90.8106 33.9659 89.9545 33.9659C88.5833 33.9659 87.3598 33.6439 86.2841 33C85.2083 32.3561 84.3598 31.4697 83.7386 30.3409C83.1174 29.2121 82.8068 27.9242 82.8068 26.4773C82.7992 24.9167 83.1591 23.5265 83.8863 22.3068C84.6136 21.0871 85.6288 20.1326 86.9318 19.4432C88.2424 18.7462 89.7651 18.4015 91.5 18.4091ZM91.5341 22.2727C90.7689 22.2727 90.0871 22.4545 89.4886 22.8182C88.8977 23.1818 88.428 23.6705 88.0795 24.2841C87.7386 24.8977 87.5719 25.5833 87.5795 26.3409C87.5795 27.1061 87.7462 27.7955 88.0795 28.4091C88.4204 29.0152 88.8826 29.5 89.4659 29.8636C90.0568 30.2197 90.731 30.3977 91.4886 30.3977C92.0568 30.3977 92.5833 30.2917 93.0682 30.0795C93.553 29.8674 93.9735 29.5758 94.3295 29.2045C94.6932 28.8258 94.9773 28.3902 95.1818 27.8977C95.3863 27.4053 95.4886 26.8826 95.4886 26.3295C95.481 25.5947 95.3068 24.9205 94.9659 24.3068C94.625 23.6932 94.1553 23.2008 93.5568 22.8295C92.9583 22.4583 92.2841 22.2727 91.5341 22.2727Z" fill="#001133"/>
<path d="M116 19.776H117.12V20.952H117.176C117.409 20.5133 117.713 20.182 118.086 19.958C118.459 19.7247 118.898 19.608 119.402 19.608C120.289 19.608 120.979 19.944 121.474 20.616C121.978 21.2787 122.23 22.2027 122.23 23.388C122.23 24.5733 121.978 25.502 121.474 26.174C120.979 26.8367 120.289 27.168 119.402 27.168C118.898 27.168 118.459 27.056 118.086 26.832C117.713 26.5987 117.409 26.2627 117.176 25.824H117.12V29.8H116V19.776ZM118.968 26.174C119.612 26.174 120.116 25.978 120.48 25.586C120.844 25.194 121.026 24.6667 121.026 24.004V22.772C121.026 22.1093 120.844 21.582 120.48 21.19C120.116 20.798 119.612 20.602 118.968 20.602C118.445 20.602 118.007 20.7327 117.652 20.994C117.297 21.2553 117.12 21.6193 117.12 22.086V24.69C117.12 25.1567 117.297 25.5207 117.652 25.782C118.007 26.0433 118.445 26.174 118.968 26.174ZM127.741 27.168C127.059 27.168 126.462 27.014 125.949 26.706C125.435 26.398 125.039 25.9593 124.759 25.39C124.488 24.8207 124.353 24.158 124.353 23.402C124.353 22.646 124.493 21.9833 124.773 21.414C125.053 20.8353 125.44 20.392 125.935 20.084C126.439 19.7667 127.017 19.608 127.671 19.608C128.305 19.608 128.865 19.762 129.351 20.07C129.836 20.3687 130.209 20.784 130.471 21.316C130.741 21.848 130.877 22.4547 130.877 23.136V23.668H125.529V24.004C125.529 24.648 125.729 25.1753 126.131 25.586C126.532 25.9967 127.069 26.202 127.741 26.202C128.217 26.202 128.632 26.0947 128.987 25.88C129.341 25.656 129.617 25.3433 129.813 24.942L130.639 25.502C130.415 26.006 130.046 26.412 129.533 26.72C129.029 27.0187 128.431 27.168 127.741 27.168ZM127.671 20.532C127.269 20.532 126.905 20.63 126.579 20.826C126.252 21.0127 125.995 21.274 125.809 21.61C125.622 21.946 125.529 22.3193 125.529 22.73V22.828H129.673V22.674C129.673 22.0393 129.486 21.526 129.113 21.134C128.749 20.7327 128.268 20.532 127.671 20.532ZM133.237 26.048H135.351V20.728H133.237V19.776H136.471V21.596H136.541C136.896 20.3827 137.708 19.776 138.977 19.776H139.985V20.896H138.627C137.946 20.896 137.414 21.0873 137.031 21.47C136.658 21.8527 136.471 22.338 136.471 22.926V26.048H139.271V27H133.237V26.048Z" fill="#001133"/>
<path d="M116.014 34.776H117.134V35.952H117.19C117.377 35.532 117.619 35.2053 117.918 34.972C118.217 34.7293 118.623 34.608 119.136 34.608C119.64 34.608 120.088 34.7293 120.48 34.972C120.872 35.2147 121.161 35.5833 121.348 36.078H121.376C121.525 35.6487 121.782 35.2987 122.146 35.028C122.519 34.748 122.995 34.608 123.574 34.608C124.311 34.608 124.885 34.8507 125.296 35.336C125.716 35.8213 125.926 36.498 125.926 37.366V42H124.806V37.562C124.806 36.918 124.675 36.4327 124.414 36.106C124.162 35.7793 123.765 35.616 123.224 35.616C122.748 35.616 122.347 35.7373 122.02 35.98C121.693 36.2133 121.53 36.5493 121.53 36.988V42H120.41V37.562C120.41 36.9087 120.284 36.4233 120.032 36.106C119.78 35.7793 119.388 35.616 118.856 35.616C118.38 35.616 117.974 35.7373 117.638 35.98C117.302 36.2133 117.134 36.5493 117.134 36.988V42H116.014V34.776ZM131.826 42.168C131.154 42.168 130.57 42.014 130.076 41.706C129.59 41.398 129.212 40.9593 128.942 40.39C128.68 39.8207 128.55 39.1533 128.55 38.388C128.55 37.6227 128.68 36.9553 128.942 36.386C129.212 35.8167 129.59 35.378 130.076 35.07C130.57 34.762 131.154 34.608 131.826 34.608C132.498 34.608 133.076 34.762 133.562 35.07C134.056 35.378 134.434 35.8167 134.696 36.386C134.966 36.9553 135.102 37.6227 135.102 38.388C135.102 39.1533 134.966 39.8207 134.696 40.39C134.434 40.9593 134.056 41.398 133.562 41.706C133.076 42.014 132.498 42.168 131.826 42.168ZM131.826 41.202C132.47 41.202 132.978 41.0107 133.352 40.628C133.725 40.236 133.912 39.662 133.912 38.906V37.87C133.912 37.114 133.725 36.5447 133.352 36.162C132.978 35.77 132.47 35.574 131.826 35.574C131.182 35.574 130.673 35.77 130.3 36.162C129.926 36.5447 129.74 37.114 129.74 37.87V38.906C129.74 39.662 129.926 40.236 130.3 40.628C130.673 41.0107 131.182 41.202 131.826 41.202ZM137.742 42V34.776H138.862V35.952H138.918C139.095 35.5413 139.343 35.2147 139.66 34.972C139.987 34.7293 140.425 34.608 140.976 34.608C141.741 34.608 142.348 34.8507 142.796 35.336C143.253 35.8213 143.482 36.498 143.482 37.366V42H142.362V37.562C142.362 36.9087 142.217 36.4187 141.928 36.092C141.639 35.7653 141.214 35.602 140.654 35.602C140.159 35.602 139.735 35.7233 139.38 35.966C139.035 36.1993 138.862 36.54 138.862 36.988V42H137.742ZM149.189 39.592C149.189 40.04 149.259 40.3713 149.399 40.586C149.539 40.7913 149.739 40.922 150.001 40.978C150.271 41.0247 150.673 41.048 151.205 41.048H152.087V42H151.219C150.481 42 149.889 41.9393 149.441 41.818C149.002 41.6873 148.661 41.4447 148.419 41.09C148.185 40.7353 148.069 40.2313 148.069 39.578V35.728H145.661V34.776H148.069V32.228H149.189V34.776H152.479V35.728H149.189V39.592ZM155.231 31.64H156.351V35.952H156.407C156.584 35.5413 156.832 35.2147 157.149 34.972C157.476 34.7293 157.914 34.608 158.465 34.608C159.23 34.608 159.837 34.8507 160.285 35.336C160.742 35.8213 160.971 36.498 160.971 37.366V42H159.851V37.562C159.851 36.9087 159.706 36.4187 159.417 36.092C159.128 35.7653 158.703 35.602 158.143 35.602C157.648 35.602 157.224 35.7233 156.869 35.966C156.524 36.1993 156.351 36.54 156.351 36.988V42H155.231V31.64Z" fill="#001133"/>
</svg>
