<svg width="164" height="132" viewBox="0 0 164 132" fill="none" xmlns="http://www.w3.org/2000/svg">
<path d="M28.1005 106.82L28.067 107.769L28.3406 110.991L85.0686 126.96L135.292 66.4797L134.845 61.2759L123.271 61.0023L28.1005 106.82Z" fill="#01F4AB"/>
<path d="M134.672 61.1195L80.01 47.708L28.1005 106.82L83.7174 122.459L134.672 61.1195Z" fill="white" stroke="#001133" stroke-linecap="round" stroke-linejoin="round"/>
<path d="M134.672 61.1195L135.147 66.6583L85.0686 126.96L83.7174 122.459" stroke="#001133" stroke-linecap="round" stroke-linejoin="round"/>
<path d="M85.0686 126.96L28.3406 110.991L28 106.971" stroke="#001133" stroke-linecap="round" stroke-linejoin="round"/>
<path d="M84.3818 124.671L36.8163 111.309" stroke="#001133" stroke-linecap="round" stroke-linejoin="round"/>
<path d="M134.856 65.0111L108.117 96.111" stroke="#001133" stroke-linecap="round" stroke-linejoin="round"/>
<path d="M105.091 99.0144L84.3093 123.833" stroke="#001133" stroke-linecap="round" stroke-linejoin="round"/>
<path d="M76.3138 60.6002C77.1793 62.1636 79.4517 62.56 81.3892 61.4824C83.3267 60.4048 84.1809 58.2663 83.3155 56.703C82.4501 55.1396 80.172 54.7488 78.2346 55.8264C76.2971 56.904 75.4428 59.0424 76.3138 60.6002Z" stroke="#001133" stroke-miterlimit="10"/>
<path d="M120.239 72.0798L84.756 62.2864" stroke="#001133" stroke-linecap="round" stroke-linejoin="round"/>
<path d="M121.406 70.6895L85.9174 60.9017" stroke="#001133" stroke-linecap="round" stroke-linejoin="round"/>
<path d="M66.1183 72.0073C66.9893 73.5707 69.2618 73.9671 71.1936 72.8895C73.1255 71.8119 73.9854 69.6734 73.1199 68.1101C72.2545 66.5467 69.9765 66.1559 68.0446 67.2335C66.1127 68.3111 65.2473 70.4495 66.1183 72.0073Z" stroke="#001133" stroke-miterlimit="10"/>
<path d="M112.618 82.5154L77.6204 72.8616" stroke="#001133" stroke-linecap="round" stroke-linejoin="round"/>
<path d="M113.823 81.1419L78.7872 71.4769" stroke="#001133" stroke-linecap="round" stroke-linejoin="round"/>
<path d="M105.091 90.6504L69.0106 80.6895" stroke="#001133" stroke-linecap="round" stroke-linejoin="round"/>
<path d="M106.28 89.2713L70.172 79.3048" stroke="#001133" stroke-linecap="round" stroke-linejoin="round"/>
<path d="M60.1386 85.4691C62.0728 84.3916 62.9352 82.2516 62.0649 80.6891C61.1945 79.1266 58.9209 78.7335 56.9867 79.8109C55.0525 80.8884 54.1901 83.0285 55.0604 84.5909C55.9308 86.1534 58.2044 86.5466 60.1386 85.4691Z" stroke="#001133" stroke-miterlimit="10"/>
<path d="M96.939 100.025L60.8419 90.0697" stroke="#001133" stroke-linecap="round" stroke-linejoin="round"/>
<path d="M98.0781 98.6348L62.0089 88.6851" stroke="#001133" stroke-linecap="round" stroke-linejoin="round"/>
<path d="M43.2596 98.0653C44.1251 99.6231 46.4031 100.019 48.335 98.9419C50.2669 97.8643 51.1267 95.7258 50.2613 94.1624C49.3959 92.5991 47.1178 92.2082 45.1804 93.2858C43.2429 94.3634 42.3886 96.5075 43.2596 98.0653Z" stroke="#001133" stroke-miterlimit="10"/>
<path d="M86.9949 111.667L51.512 101.873" stroke="#001133" stroke-linecap="round" stroke-linejoin="round"/>
<path d="M88.1619 110.276L52.679 100.489" stroke="#001133" stroke-linecap="round" stroke-linejoin="round"/>
<path d="M78.6085 56.4908C78.6085 56.4908 78.2567 59.8855 78.9658 60.3154C79.9485 59.3383 84.8396 54.9106 84.8396 54.9106" stroke="#01F4AB" stroke-width="3" stroke-linecap="round" stroke-linejoin="round"/>
<path d="M57.8381 81.4322C57.8381 81.4322 57.1513 84.7823 57.8381 85.2792C58.9157 84.4026 64.2256 80.483 64.2256 80.483" stroke="#01F4AB" stroke-width="3" stroke-linecap="round" stroke-linejoin="round"/>
<path d="M70.7637 74.33L68.6643 65.6198" stroke="#001133" stroke-width="3" stroke-linecap="round" stroke-linejoin="round"/>
<path d="M48.4634 100.717L46.364 92.0072" stroke="#001133" stroke-width="3" stroke-linecap="round" stroke-linejoin="round"/>
<path d="M65.2473 72.8616L73.4215 67.1832" stroke="#001133" stroke-width="3" stroke-linecap="round" stroke-linejoin="round"/>
<path d="M42.277 98.9531L50.4512 93.2747" stroke="#001133" stroke-width="3" stroke-linecap="round" stroke-linejoin="round"/>
<path d="M73.12 44.023L111.356 90.8124C110.344 92.7171 109.958 94.8917 110.251 97.0281C110.545 99.1645 111.503 101.154 112.991 102.716C114.478 104.277 116.419 105.331 118.539 105.728C120.658 106.125 122.849 105.845 124.801 104.927L116.833 95.1563L120.68 92.0408L128.659 101.823C129.957 100.093 130.676 97.9972 130.714 95.8345C130.752 93.6717 130.105 91.5523 128.868 89.7782C127.63 88.0041 125.864 86.6659 123.822 85.9543C121.779 85.2427 119.564 85.1941 117.492 85.8152L79.2506 38.9699C79.2116 38.9197 80.2501 36.368 80.3227 36.0386C81.0764 32.7276 80.7861 28.9309 78.7816 26.1056C75.5209 21.516 69.8872 21.2033 64.9849 23.0738C63.7763 23.5155 62.6312 24.1143 61.579 24.8549L71.4115 35.7203L69.7364 37.4791L60.4232 25.8934C56.4589 27.1721 54.2814 31.8343 56.6599 38.473C57.2183 40.0084 62.8017 41.4155 64.0189 42.32C65.3018 43.2822 66.7923 43.9303 68.3708 44.2125C69.9494 44.4947 71.5721 44.403 73.1088 43.9448L73.12 44.023Z" fill="#001133"/>
<path d="M68.8933 44.023L107.129 90.8124C106.119 92.7165 105.733 94.8901 106.027 97.0255C106.32 99.1609 107.278 101.15 108.764 102.711C110.251 104.272 112.19 105.326 114.309 105.724C116.427 106.121 118.617 105.843 120.568 104.927L112.601 95.1563L116.464 92.0408L124.449 101.823C125.747 100.093 126.466 97.9972 126.504 95.8345C126.542 93.6717 125.896 91.5523 124.658 89.7782C123.42 88.0041 121.654 86.6659 119.612 85.9543C117.569 85.2427 115.354 85.194 113.282 85.8152L75.0407 38.9699C76.052 37.0652 76.4382 34.8907 76.1448 32.7542C75.8513 30.6178 74.8931 28.6279 73.4057 27.0664C71.9184 25.505 69.9774 24.4511 67.8577 24.0542C65.7381 23.6573 63.5473 23.9374 61.5957 24.8549L69.3567 34.3468L65.4986 37.4568L57.7376 27.9649C56.4378 29.6908 55.7163 31.783 55.6759 33.9431C55.6354 36.1033 56.2781 38.221 57.5123 39.9943C58.7465 41.7676 60.5092 43.1059 62.5489 43.8183C64.5886 44.5307 66.8011 44.5808 68.871 43.9615L68.8933 44.023Z" fill="#01F4AB" stroke="#001133" stroke-width="1.25654" stroke-linecap="round" stroke-linejoin="round"/>
<path d="M72.718 41.4321C72.7191 41.6621 72.6519 41.8872 72.525 42.0789C72.398 42.2706 72.217 42.4203 72.0049 42.5091C71.7928 42.5978 71.5591 42.6216 71.3335 42.5775C71.1078 42.5333 70.9004 42.4231 70.7374 42.2609C70.5744 42.0987 70.4633 41.8918 70.418 41.6664C70.3727 41.4409 70.3954 41.2071 70.4831 40.9946C70.5709 40.7821 70.7197 40.6004 70.9108 40.4725C71.1019 40.3446 71.3267 40.2764 71.5566 40.2764C71.8637 40.2764 72.1582 40.398 72.3758 40.6145C72.5935 40.8311 72.7165 41.1251 72.718 41.4321Z" fill="#001133"/>
<path d="M93.7676 71.7783L106.967 88.216" stroke="#001133" stroke-width="1.25654" stroke-linecap="round" stroke-linejoin="round"/>
<path d="M87.8491 64.4082L91.3388 68.7521" stroke="#001133" stroke-width="1.25654" stroke-linecap="round" stroke-linejoin="round"/>
</svg>
