<svg width="164" height="132" viewBox="0 0 164 132" fill="none" xmlns="http://www.w3.org/2000/svg">
<path d="M87.0438 19.2345L104.981 111.825C105.065 112.258 105.083 112.7 105.035 113.138C104.931 114.05 104.539 114.905 103.916 115.579C103.292 116.253 102.47 116.71 101.568 116.885L55.8136 125.749C55.2571 125.857 54.6849 125.854 54.1296 125.74C53.5742 125.627 53.0467 125.405 52.5772 125.087C52.1077 124.77 51.7053 124.363 51.3932 123.89C51.081 123.417 50.8652 122.887 50.758 122.33L32.8203 29.7392C32.6053 28.6164 32.8439 27.4542 33.4837 26.5069C34.1235 25.5596 35.1126 24.9043 36.2344 24.6844L81.9937 15.8195C83.1161 15.6033 84.2785 15.8415 85.2254 16.4819C86.1724 17.1222 86.8264 18.1122 87.0438 19.2345Z" fill="#001133"/>
<path opacity="0.1" d="M87.0438 19.2345L104.981 111.825C105.065 112.258 105.083 112.7 105.035 113.138L33.1853 27.0134C33.4778 26.4161 33.9051 25.8949 34.4334 25.4909C34.9618 25.0869 35.5767 24.8111 36.2298 24.6853L81.9891 15.8204C82.5451 15.7127 83.117 15.7155 83.672 15.8288C84.2269 15.9421 84.7541 16.1635 85.2235 16.4806C85.6929 16.7976 86.0952 17.2039 86.4076 17.6765C86.7199 18.149 86.9361 18.6784 87.0438 19.2345Z" fill="white"/>
<path d="M87.0438 19.2345L104.981 111.825C105.065 112.258 105.083 112.7 105.035 113.138C104.931 114.05 104.539 114.905 103.916 115.579C103.292 116.253 102.47 116.71 101.568 116.885L55.8136 125.749C55.2571 125.857 54.6849 125.854 54.1296 125.74C53.5742 125.627 53.0467 125.405 52.5772 125.087C52.1077 124.77 51.7053 124.363 51.3932 123.89C51.081 123.417 50.8652 122.887 50.758 122.33L32.8203 29.7392C32.6053 28.6164 32.8439 27.4542 33.4837 26.5069C34.1235 25.5596 35.1126 24.9043 36.2344 24.6844L81.9937 15.8195C83.1161 15.6033 84.2785 15.8415 85.2254 16.4819C86.1724 17.1222 86.8264 18.1122 87.0438 19.2345Z" stroke="#001133" stroke-miterlimit="10"/>
<path d="M85.2435 25.0272L36.7411 34.4236L52.298 114.725L100.8 105.329L85.2435 25.0272Z" fill="white"/>
<path d="M40.8978 37.491L39.8024 37.7032L40.0922 39.1991L41.1876 38.9869L40.8978 37.491Z" fill="#001133"/>
<path d="M42.193 36.1656L41.0975 36.3778L41.5879 38.9092L42.6834 38.697L42.193 36.1656Z" fill="#001133"/>
<path d="M43.5346 34.4636L42.4392 34.6758L43.1989 38.5972L44.2943 38.385L43.5346 34.4636Z" fill="#001133"/>
<path d="M84.1275 28.0417L79.7826 28.8834L80.2436 31.263L84.5885 30.4212L84.1275 28.0417Z" stroke="#001133" stroke-width="0.821067" stroke-linecap="round" stroke-linejoin="round"/>
<path d="M83.1701 28.2272L79.7826 28.8834L80.2436 31.263L83.6311 30.6067L83.1701 28.2272Z" fill="#001133" stroke="#001133" stroke-width="0.725073" stroke-linecap="round" stroke-linejoin="round"/>
<path d="M84.8597 28.5923L84.2476 28.7109L84.4509 29.7603L85.063 29.6417L84.8597 28.5923Z" fill="#001133" stroke="#001133" stroke-width="0.725073" stroke-linecap="round" stroke-linejoin="round"/>
<path opacity="0.1" d="M78.1135 118.348C79.4734 118.085 80.3623 116.769 80.0989 115.409C79.8354 114.049 78.5194 113.16 77.1594 113.424C75.7995 113.687 74.9106 115.003 75.1741 116.363C75.4375 117.723 76.7536 118.612 78.1135 118.348Z" fill="white"/>
<path d="M85.2435 25.0272L36.7411 34.4236L52.298 114.725L100.8 105.329L85.2435 25.0272Z" stroke="#001133" stroke-miterlimit="10"/>
<path opacity="0.1" d="M62.728 116.282L58.963 117.011L59.6924 120.776L63.4573 120.047L62.728 116.282Z" stroke="white" stroke-miterlimit="10"/>
<path d="M81.8105 46.3266C81.8005 46.2985 81.7811 46.2749 81.7554 46.2598C81.7298 46.2446 81.6996 46.239 81.6703 46.2439L79.2173 46.5234C78.7521 45.7886 78.204 45.1096 77.5838 44.4999L78.4145 42.1327C78.4273 42.1069 78.4313 42.0776 78.4258 42.0494C78.4203 42.0211 78.4057 41.9954 78.3842 41.9763L76.0491 40.3991C76.0235 40.3854 75.994 40.381 75.9655 40.3865C75.937 40.392 75.9113 40.4072 75.8926 40.4294L73.9886 42.0876C72.5906 41.4964 71.0863 41.1979 69.5686 41.2105L68.4865 38.9035C68.4747 38.8767 68.454 38.8549 68.428 38.8417C68.4019 38.8284 68.3721 38.8246 68.3435 38.8309L65.5819 39.3659C65.5535 39.3715 65.5277 39.3864 65.5086 39.4083C65.4895 39.4301 65.4782 39.4577 65.4764 39.4866L65.3322 42.0455C64.5509 42.3642 63.8077 42.7692 63.1164 43.2531L60.8862 41.9708C60.8596 41.9578 60.8295 41.9538 60.8004 41.9594C60.7714 41.965 60.7449 41.98 60.7251 42.0021L58.7683 44.0287C58.7482 44.0489 58.7355 44.0754 58.7323 44.1037C58.7292 44.1321 58.7357 44.1607 58.7508 44.1849L60.1305 46.3769C59.6744 47.0843 59.2971 47.8396 59.0053 48.6292L56.4322 48.8554C56.403 48.8587 56.3755 48.871 56.3536 48.8906C56.3317 48.9103 56.3165 48.9363 56.3102 48.965L55.8696 51.7437C55.8649 51.7729 55.8703 51.8029 55.8849 51.8287C55.8994 51.8545 55.9222 51.8746 55.9496 51.8858L58.3138 52.8986C58.3302 53.5047 58.3961 54.1084 58.5107 54.7037C58.5535 54.9247 58.5999 55.164 58.6748 55.4026L56.7137 57.0623C56.6909 57.08 56.6752 57.1053 56.6693 57.1335C56.6634 57.1618 56.6677 57.1912 56.6815 57.2166L57.9075 59.7488C57.9185 59.7761 57.9391 59.7985 57.9654 59.8119C57.9917 59.8252 58.0219 59.8286 58.0505 59.8213L60.5296 59.3076C61.0373 59.9875 61.6175 60.61 62.2599 61.1643L61.619 63.5998C61.6107 63.6286 61.6129 63.6594 61.6252 63.6867C61.6375 63.7141 61.6591 63.7362 61.6862 63.7491L64.1522 65.1147C64.1778 65.1283 64.2073 65.1327 64.2358 65.1272C64.2643 65.1217 64.29 65.1066 64.3086 65.0843L66.0223 63.2815C66.8484 63.5586 67.7039 63.739 68.5715 63.8192L69.4483 66.1516C69.4603 66.1782 69.4801 66.2004 69.5053 66.2153C69.5304 66.2301 69.5595 66.2367 69.5885 66.2343L72.3956 65.934C72.4169 65.925 72.4358 65.9109 72.4506 65.8931C72.4654 65.8753 72.4758 65.8542 72.4808 65.8315L72.842 63.4073C73.6868 63.1575 74.4992 62.8094 75.2628 62.3701L77.2781 63.7513C77.3013 63.7673 77.3289 63.7757 77.357 63.7754C77.3852 63.7751 77.4126 63.766 77.4354 63.7495L79.5612 61.905C79.5826 61.8863 79.5973 61.8611 79.6031 61.8333C79.6089 61.8054 79.6055 61.7765 79.5934 61.7507L78.5124 59.5725C79.0569 58.8782 79.5196 58.1236 79.8914 57.3236L82.341 57.2979C82.3695 57.2987 82.3974 57.2891 82.4194 57.2707C82.4414 57.2524 82.4559 57.2267 82.4602 57.1984L83.1442 54.4681C83.1513 54.4397 83.1491 54.4097 83.1379 54.3826C83.1266 54.3555 83.1069 54.3328 83.0816 54.3178L80.9463 53.1556C80.9919 52.2765 80.9334 51.395 80.7719 50.5296L82.7738 49.1055C82.7983 49.0893 82.8166 49.0655 82.8259 49.0377C82.8353 49.01 82.8351 48.9799 82.8253 48.9522L81.8105 46.3266ZM70.9597 59.3357C69.1839 59.6319 67.3626 59.2229 65.8839 58.1959C64.4052 57.1689 63.3861 55.605 63.0437 53.8375C62.7013 52.07 63.0626 50.2387 64.0508 48.7337C65.039 47.2288 66.5758 46.1693 68.3337 45.7809C70.1318 45.4326 71.9946 45.8128 73.5124 46.8379C75.0301 47.863 76.0785 49.4491 76.4268 51.2472C76.7752 53.0453 76.3949 54.9081 75.3698 56.4258C74.3447 57.9436 72.7587 58.9919 70.9606 59.3403L70.9597 59.3357Z" fill="#01F4AB" stroke="#001133" stroke-linecap="round" stroke-linejoin="round"/>
<path d="M71.2795 71.8329C71.2689 71.8025 71.247 71.7772 71.2184 71.7624C71.1898 71.7475 71.1566 71.7441 71.1256 71.7529L69.211 72.248C68.8332 71.647 68.386 71.0925 67.8786 70.5959L68.8051 68.8215C68.8203 68.7937 68.8253 68.7615 68.8193 68.7304C68.8133 68.6993 68.7966 68.6713 68.7721 68.6512L66.3436 67.0109C66.3159 66.9958 66.2836 66.9907 66.2525 66.9968C66.2215 67.0028 66.1934 67.0195 66.1733 67.0439L64.8612 68.5779C63.7124 68.0915 62.4768 67.8435 61.2292 67.849L60.6029 65.8978C60.598 65.8813 60.5897 65.866 60.5787 65.8528C60.5676 65.8396 60.554 65.8288 60.5387 65.8211C60.5233 65.8133 60.5065 65.8088 60.4894 65.8077C60.4722 65.8067 60.455 65.8091 60.4388 65.815L57.5622 66.3723C57.5307 66.3792 57.5027 66.3971 57.4832 66.4227C57.4637 66.4484 57.4539 66.4801 57.4556 66.5123L57.6105 68.5691C56.9766 68.824 56.3732 69.1491 55.8117 69.5384L54.1744 68.2845C54.1472 68.2673 54.1144 68.2611 54.0827 68.2672C54.0511 68.2734 54.023 68.2913 54.0041 68.3175L51.9631 70.4272C51.9406 70.4501 51.9272 70.4803 51.9255 70.5123C51.9238 70.5443 51.9338 70.5759 51.9538 70.601L53.2709 72.1986C52.8974 72.7714 52.5884 73.3838 52.3496 74.0246L50.2859 73.9469C50.2539 73.945 50.2223 73.955 50.1972 73.9748C50.172 73.9946 50.1549 74.023 50.1492 74.0545L49.6952 76.9122C49.6913 76.9283 49.6907 76.945 49.6934 76.9613C49.6962 76.9776 49.7022 76.9931 49.7111 77.007C49.7201 77.0209 49.7318 77.0329 49.7455 77.0421C49.7592 77.0514 49.7746 77.0577 49.7909 77.0608L51.778 77.6309C51.796 78.1267 51.8517 78.6203 51.9447 79.1076C51.9777 79.2779 52.0125 79.4574 52.0535 79.6691L50.3238 80.7731C50.2958 80.7894 50.2752 80.8158 50.2661 80.8469C50.257 80.878 50.2602 80.9113 50.275 80.9401L51.5556 83.5572C51.5672 83.5872 51.5902 83.6114 51.6196 83.6245C51.649 83.6376 51.6823 83.6385 51.7124 83.6272L53.6252 82.9509C54.0434 83.5098 54.522 84.0209 55.0522 84.4748L54.276 86.3348C54.2606 86.3634 54.2556 86.3964 54.2617 86.4283C54.2679 86.4601 54.2849 86.4889 54.3099 86.5097L56.8758 87.9227C56.9032 87.936 56.9341 87.9401 56.964 87.9343C56.9939 87.9285 57.0211 87.9132 57.0415 87.8906L58.2025 86.2665C58.8727 86.4906 59.5661 86.6382 60.2695 86.7065L60.701 88.6381C60.707 88.6691 60.7247 88.6966 60.7505 88.7147C60.7763 88.7329 60.8081 88.7403 60.8393 88.7355L63.7484 88.4202C63.7803 88.4146 63.8091 88.3977 63.8296 88.3727C63.8502 88.3477 63.8611 88.3163 63.8605 88.2839L63.8816 86.3219C64.5653 86.1125 65.2227 85.8249 65.8406 85.4649L67.2844 86.7801C67.3078 86.8018 67.3385 86.8139 67.3704 86.8139C67.4022 86.8139 67.433 86.8019 67.4564 86.7803L69.6682 84.8619C69.6924 84.8411 69.7078 84.8119 69.7114 84.7802C69.715 84.7485 69.7065 84.7167 69.6876 84.691L68.5884 83.0845C69.0305 82.5202 69.4068 81.9074 69.7102 81.2579L71.6358 81.5104C71.6677 81.5142 71.6998 81.5062 71.7262 81.4879C71.7526 81.4696 71.7713 81.4422 71.7789 81.411L72.4957 78.5789C72.5026 78.548 72.4981 78.5158 72.483 78.488C72.468 78.4602 72.4434 78.4387 72.4139 78.4276L70.5902 77.7399C70.625 77.0263 70.5794 76.3111 70.4541 75.6078L72.1881 74.6988C72.2158 74.6837 72.2374 74.6594 72.2492 74.6301C72.2609 74.6008 72.2621 74.5683 72.2525 74.5383L71.2795 71.8329ZM66.8379 76.2176C67.0484 77.3285 66.9249 78.4768 66.4831 79.5175C66.0413 80.5582 65.3009 81.4447 64.3555 82.0648C63.4101 82.685 62.3022 83.011 61.1716 83.0018C60.041 82.9926 58.9385 82.6485 58.0034 82.013C57.0683 81.3775 56.3425 80.4791 55.9177 79.4313C55.4929 78.3835 55.3882 77.2333 55.6168 76.126C55.8454 75.0187 56.397 74.004 57.202 73.2101C58.007 72.4162 59.0293 71.8787 60.1396 71.6654C61.6279 71.3784 63.1693 71.6933 64.4258 72.5412C65.6822 73.389 66.551 74.7006 66.8417 76.1882L66.8379 76.2176Z" fill="#01F4AB" stroke="#001133" stroke-linecap="round" stroke-linejoin="round"/>
<path d="M81.0171 91.2349L64.7561 94.3852C61.9726 94.9244 60.1533 97.618 60.6926 100.401L60.7434 100.664C61.2826 103.447 63.9762 105.267 66.7596 104.727L83.0207 101.577C85.8041 101.038 87.6234 98.3442 87.0842 95.5608L87.0333 95.2984C86.4941 92.515 83.8005 90.6957 81.0171 91.2349Z" fill="#01F4AB" stroke="#001133" stroke-linecap="round" stroke-linejoin="round"/>
<path d="M65.3024 99.3747C65.2585 99.0169 65.3187 98.6541 65.4757 98.3297C65.6327 98.0052 65.8799 97.7328 66.1877 97.5452C66.4955 97.3576 66.8508 97.2627 67.2112 97.2718C67.5715 97.2809 67.9216 97.3937 68.2195 97.5967L67.8876 98.0525C67.7466 97.9476 67.5846 97.8742 67.4127 97.8375C67.2407 97.8007 67.0629 97.8015 66.8913 97.8396C66.7275 97.8609 66.5698 97.9155 66.4279 98.0001C66.286 98.0846 66.1629 98.1973 66.0662 98.3313C65.9695 98.4652 65.9013 98.6175 65.8658 98.7788C65.8302 98.9401 65.8281 99.107 65.8595 99.2692C65.8909 99.4314 65.9552 99.5854 66.0484 99.7217C66.1417 99.8581 66.2618 99.9739 66.4015 100.062C66.5412 100.15 66.6975 100.209 66.8607 100.234C67.0239 100.26 67.1906 100.251 67.3505 100.21C67.5249 100.182 67.691 100.115 67.8367 100.015C67.9824 99.9148 68.1042 99.7838 68.1934 99.6312L68.6734 99.9394C68.4725 100.239 68.1895 100.475 67.8582 100.617C67.527 100.76 67.1615 100.805 66.8056 100.745C66.4498 100.685 66.1187 100.524 65.8521 100.281C65.5854 100.038 65.3946 99.7235 65.3024 99.3747Z" fill="#001133"/>
<path d="M71.7188 96.3838L72.3724 99.7575L71.7465 99.8788L71.4665 98.4335L69.7221 98.7715L70.0021 100.217L69.3761 100.338L68.7225 96.9642L69.3485 96.843L69.616 98.2238L71.3604 97.8858L71.0929 96.505L71.7188 96.3838Z" fill="#001133"/>
<path d="M75.709 98.5668L75.8107 99.0915L73.2838 99.581L72.6302 96.2073L75.0927 95.7302L75.1943 96.2549L73.3533 96.6116L73.5227 97.4861L75.152 97.1705L75.2519 97.6859L73.6225 98.0016L73.8009 98.9221L75.709 98.5668Z" fill="#001133"/>
<path d="M75.9299 97.3158C75.886 96.958 75.9462 96.5952 76.1032 96.2707C76.2602 95.9462 76.5074 95.6739 76.8152 95.4863C77.1229 95.2987 77.4783 95.2037 77.8386 95.2129C78.199 95.222 78.5491 95.3348 78.847 95.5377L78.515 95.9936C78.3745 95.8878 78.2125 95.8139 78.0404 95.7771C77.8683 95.7403 77.6903 95.7416 77.5187 95.7807C77.3549 95.8019 77.1972 95.8565 77.0553 95.9411C76.9134 96.0256 76.7903 96.1384 76.6937 96.2723C76.597 96.4062 76.5288 96.5586 76.4932 96.7199C76.4577 96.8812 76.4555 97.0481 76.487 97.2102C76.5184 97.3724 76.5827 97.5264 76.6759 97.6628C76.7691 97.7991 76.8893 97.915 77.029 98.0031C77.1687 98.0913 77.3249 98.1499 77.4881 98.1753C77.6513 98.2007 77.818 98.1925 77.9779 98.151C78.1527 98.1235 78.3191 98.0573 78.465 97.9572C78.6108 97.857 78.7324 97.7255 78.8209 97.5723L79.3008 97.8804C79.1 98.1802 78.817 98.4156 78.4857 98.5585C78.1544 98.7014 77.7889 98.7457 77.4331 98.6861C77.0772 98.6265 76.7461 98.4655 76.4795 98.2225C76.2129 97.9794 76.022 97.6646 75.9299 97.3158Z" fill="#001133"/>
<path d="M80.8943 96.6406L80.4584 97.2743L80.626 98.1395L80 98.2608L79.3464 94.8871L79.9724 94.7658L80.3077 96.4964L81.6431 94.4421L82.3473 94.3057L81.2213 96.0854L83.0838 97.6634L82.352 97.8052L80.8943 96.6406Z" fill="#001133"/>
<path opacity="0.1" d="M93.3451 114.519L92.6157 110.754L96.7454 111.907L93.3451 114.519Z" stroke="white" stroke-miterlimit="10"/>
</svg>
