<svg width="164" height="133" viewBox="0 0 164 133" fill="none" xmlns="http://www.w3.org/2000/svg">
<path d="M73.0005 84.1211C72.8756 83.5369 72.8718 82.9332 72.9894 82.3475C73.1071 81.7617 73.3436 81.2063 73.6844 80.7156C74.0251 80.2249 74.4629 79.8093 74.9707 79.4945C75.4785 79.1796 76.0454 78.9723 76.6365 78.8853C81.1741 77.8614 81.8722 83.3124 81.9711 84.6737L73.0005 84.1211Z" fill="#01F4AB" stroke="#001133" stroke-linecap="round" stroke-linejoin="round"/>
<path d="M81.6279 81.3986H77.4276V82.533L81.9711 84.6913C82.154 83.5828 82.0354 82.4455 81.6279 81.3986Z" fill="#001133" stroke="#001133" stroke-miterlimit="10"/>
<path d="M11.8231 72.5442V93.4292C11.8231 93.4292 19.5372 95.9249 25.5525 98.4265C29.8164 100.257 33.9851 102.302 38.0428 104.552H105.922C105.922 104.552 99.3365 104.779 98.2021 103.761C97.0677 102.743 97.2946 100.468 99.3365 99.1071C101.378 97.7458 113.072 97.2921 113.072 97.2921C113.072 97.2921 154.615 95.0174 154.842 94.3368C155.069 93.6561 155.069 93.0918 154.051 92.7486C153.033 92.4053 136.016 87.4139 123.287 85.7093C110.559 84.0048 99.3365 84.6913 96.7244 85.4824C94.1124 86.2736 87.1895 85.2556 82.4249 84.348C79.4985 83.7955 76.5418 83.4167 73.5706 83.2136V79.0133H69.3703V77.7684H71.0749V71.8636C67.4092 71.4443 63.6963 71.793 60.1728 72.8875C54.3552 74.7025 48.2584 80.8284 43.7149 83.4405C39.1714 86.0526 34.0694 87.4139 31.5737 87.4139C30.1448 87.4321 28.7235 87.2017 27.3734 86.7332V82.1955L29.5259 79.9209V71.4098H18.8565C18.8565 71.4098 18.746 73.4517 16.9309 73.5681C15.1159 73.6844 11.8231 72.5442 11.8231 72.5442Z" fill="white" stroke="#001133" stroke-miterlimit="10"/>
<path d="M27.3734 82.341V82.1955L29.5259 79.9209V71.4098H18.8565C18.8565 71.4098 18.746 73.4517 16.9309 73.5681C15.1159 73.6844 11.8231 72.5442 11.8231 72.5442V92.1784C14.2549 89.2231 18.8391 85.4068 27.3734 82.341Z" fill="#01F4AB" stroke="#001133" stroke-linecap="round" stroke-linejoin="round"/>
<path d="M48.8227 95.6923H43.2262L50.4051 104.552H56.6182L48.8227 95.6923Z" fill="#01F4AB" stroke="#001133" stroke-linecap="round" stroke-linejoin="round"/>
<path d="M58.1832 95.6923H52.5925L59.7656 104.552H65.9787L58.1832 95.6923Z" fill="#01F4AB" stroke="#001133" stroke-linecap="round" stroke-linejoin="round"/>
<path d="M86.8813 101.231C81.8607 99.974 79.0334 95.8901 76.8344 91.8062C74.6353 87.7223 69.4519 83.6616 67.7241 83.8012C65.9963 83.9409 62.0752 84.5866 62.0752 84.5866C62.0752 84.5866 60.6616 83.9583 55.164 80.6598C53.7031 79.7847 52.14 79.093 50.5099 78.6003C48.3974 80.2844 46.2014 81.861 43.9303 83.3242C45.0007 83.3475 46.2379 83.4018 47.6419 83.4871C52.8253 83.8012 54.3961 86.6286 54.3961 86.6286C55.5365 86.4224 56.6928 86.3173 57.8517 86.3144C59.7366 86.3144 65.5425 91.1779 66.9562 96.2043C67.8637 99.433 70.8481 102.662 72.861 104.552H100.57C95.7007 103.383 89.6621 101.923 86.8813 101.231Z" fill="#01F4AB" stroke="#001133" stroke-linecap="round" stroke-linejoin="round"/>
<path d="M105.922 104.552H102.903C104.52 104.605 105.922 104.552 105.922 104.552Z" fill="#001133" stroke="#001133" stroke-miterlimit="10"/>
<path d="M99.3364 99.1132C101.378 97.7519 113.072 97.2981 113.072 97.2981C113.072 97.2981 127.959 96.4836 139.96 95.6808C132.368 95.2794 109.843 94.1799 104.671 95.0234C98.4289 96.0473 86.2819 98.6594 79.4695 101.609C72.6572 104.558 64.0356 101.725 47.5777 99.7938C35.9426 98.4267 26.0528 97.2865 21.2533 96.7396C22.7019 97.2806 24.1621 97.8566 25.5525 98.4325C29.8163 100.263 33.9851 102.308 38.0427 104.558H102.903C101.012 104.506 98.8303 104.314 98.202 103.767C97.0676 102.737 97.2945 100.469 99.3364 99.1132Z" fill="#001133" stroke="#001133" stroke-miterlimit="10"/>
<path d="M124.276 105.803C130.513 105.803 135.568 100.748 135.568 94.5113C135.568 88.275 130.513 83.2195 124.276 83.2195C118.04 83.2195 112.984 88.275 112.984 94.5113C112.984 100.748 118.04 105.803 124.276 105.803Z" fill="#001133"/>
<g opacity="0.31">
<path d="M133.66 88.2225L124.131 94.2495L135.353 92.2832C135.062 90.8312 134.487 89.4511 133.66 88.2225Z" fill="white"/>
<path d="M114.52 100.189L124.276 94.5112L113.089 96.0471C113.286 97.5091 113.773 98.9172 114.52 100.189Z" fill="white"/>
</g>
<path d="M113.933 99.0374L119.686 96.0938L113.322 97.2573C113.474 97.8672 113.678 98.4628 113.933 99.0374Z" fill="white"/>
<path d="M128.657 92.4986L135.056 91.1489C134.852 90.4961 134.59 89.8632 134.271 89.2582L128.657 92.4986Z" fill="white"/>
<path d="M124.276 101.149C127.942 101.149 130.914 98.1773 130.914 94.5114C130.914 90.8454 127.942 87.8735 124.276 87.8735C120.61 87.8735 117.639 90.8454 117.639 94.5114C117.639 98.1773 120.61 101.149 124.276 101.149Z" fill="#01F4AB" stroke="#001133" stroke-linecap="round" stroke-linejoin="round"/>
<path d="M124.276 96.2683C125.247 96.2683 126.033 95.4817 126.033 94.5114C126.033 93.5411 125.247 92.7545 124.276 92.7545C123.306 92.7545 122.519 93.5411 122.519 94.5114C122.519 95.4817 123.306 96.2683 124.276 96.2683Z" fill="#001133"/>
<path d="M139.635 95.8145L142.241 98.8803H149.396L147.692 95.0175L139.635 95.8145Z" fill="#001133" stroke="#001133" stroke-miterlimit="10"/>
<path d="M138.727 98.6535V104.215H157V99.4447C157 99.4447 152.457 99.1072 147.919 98.3102C143.381 97.5132 139.745 97.8565 138.727 98.6535Z" fill="white" stroke="#001133" stroke-miterlimit="10"/>
<path d="M98.8827 97.6296V103.307H85.8281V101.719C85.8281 101.719 89.8015 101.039 91.8435 99.6715C93.8854 98.3044 95.2526 97.519 98.8827 97.6296Z" fill="white" stroke="#001133" stroke-miterlimit="10"/>
<path d="M94.3392 88.2108H89.2314C89.2314 88.2108 87.0789 88.6646 87.3058 90.5902C87.5327 92.5158 89.1209 94.6625 90.0284 94.6625H98.301" stroke="#001133" stroke-linecap="round" stroke-linejoin="round"/>
<path d="M89.2314 90.3866C89.8132 87.7804 91.733 88.461 91.733 88.461L91.4072 88.2341H89.2314C89.2314 88.2341 87.0789 88.6879 87.3058 90.6135C87.5327 92.5391 89.1209 94.6858 90.0284 94.6858C89.6034 94.0643 89.313 93.3608 89.1757 92.6204C89.0385 91.8801 89.0575 91.1192 89.2314 90.3866Z" fill="#001133" stroke="#001133" stroke-linecap="round" stroke-linejoin="round"/>
<path d="M36.4546 91.9576C42.9237 90.9337 55.0707 86.6229 55.0707 86.6229C63.4713 83.1323 73.5764 83.2138 73.5764 83.2138" stroke="#001133" stroke-miterlimit="10"/>
<path d="M31.6843 94.5639C31.6843 94.5639 51.3244 90.8174 66.7583 88.2111C82.1923 85.6048 90.8255 86.9603 94.1008 86.396C97.3761 85.8317 99.2086 84.9184 102.164 84.802" stroke="#001133" stroke-miterlimit="10"/>
<path d="M70.1615 71.7706L69.027 69.9497C69.027 69.9497 70.3942 69.1585 68.6896 69.0421C66.9851 68.9258 64.9431 69.0421 64.7162 69.4959C64.4893 69.9497 66.1939 69.8391 66.1939 69.8391V71.7706H70.1615Z" fill="#001133" stroke="#001133" stroke-miterlimit="10"/>
<path d="M29.3573 105.803C35.5936 105.803 40.6492 100.748 40.6492 94.5113C40.6492 88.275 35.5936 83.2195 29.3573 83.2195C23.121 83.2195 18.0654 88.275 18.0654 94.5113C18.0654 100.748 23.121 105.803 29.3573 105.803Z" fill="#001133"/>
<g opacity="0.31">
<path d="M38.7411 88.2225L29.2119 94.2495L40.434 92.2832C40.1408 90.8319 39.5656 89.4523 38.7411 88.2225Z" fill="white"/>
<path d="M19.6012 100.189L29.3572 94.5112L18.17 96.0471C18.3672 97.5091 18.8537 98.9172 19.6012 100.189Z" fill="white"/>
</g>
<path d="M19.0136 99.0374L24.7671 96.0938L18.4027 97.2573C18.5545 97.8672 18.7589 98.4628 19.0136 99.0374Z" fill="white"/>
<path d="M33.7262 92.4986L40.1255 91.1489C39.9217 90.4961 39.6588 89.8632 39.3401 89.2582L33.7262 92.4986Z" fill="white"/>
<path d="M29.3572 101.149C33.0232 101.149 35.995 98.1773 35.995 94.5114C35.995 90.8454 33.0232 87.8735 29.3572 87.8735C25.6912 87.8735 22.7194 90.8454 22.7194 94.5114C22.7194 98.1773 25.6912 101.149 29.3572 101.149Z" fill="#01F4AB" stroke="#001133" stroke-linecap="round" stroke-linejoin="round"/>
<path d="M29.3572 96.2683C30.3275 96.2683 31.1141 95.4817 31.1141 94.5114C31.1141 93.5411 30.3275 92.7545 29.3572 92.7545C28.3869 92.7545 27.6003 93.5411 27.6003 94.5114C27.6003 95.4817 28.3869 96.2683 29.3572 96.2683Z" fill="#001133"/>
<path d="M64.6988 74.5862H47.6417" stroke="#001133" stroke-linecap="round" stroke-linejoin="round"/>
<path d="M14.0571 79.6824H-3" stroke="#001133" stroke-linecap="round" stroke-linejoin="round"/>
<path d="M14.0571 86.8206H4.40576" stroke="#001133" stroke-linecap="round" stroke-linejoin="round"/>
<path d="M49.7477 80.363H40.0964" stroke="#001133" stroke-linecap="round" stroke-linejoin="round"/>
<path d="M44.2908 74.5862H37.2865" stroke="#001133" stroke-linecap="round" stroke-linejoin="round"/>
<path d="M-6.25659 106.305L173.743 105.991" stroke="#001133" stroke-width="3" stroke-linecap="round" stroke-linejoin="round"/>
</svg>
